# Blender v2.93.0 OBJ File: 'edif.blend'
# www.blender.org
mtllib D2_mandibula.mtl
o D2.004
v 0.639160 -0.185755 -0.005252
v 0.804546 0.096040 -0.373249
v 0.708177 0.327897 -0.521913
v 0.734340 0.191704 -0.576353
v 0.737105 -0.187495 -0.655135
v 0.697395 0.020674 -0.770560
v 0.566302 -0.651980 -1.603917
v 0.390804 -0.931432 -1.564526
v 0.569452 -0.531360 -0.471268
v -0.000077 -0.898245 -0.316976
v 0.352786 -1.423321 -3.385927
v 0.562955 -0.474617 -1.610853
v 0.362806 -1.308891 -3.441153
v 0.235460 -1.991622 -4.731758
v 0.207863 -1.565547 -3.340908
v 0.149607 -2.066674 -4.675224
v -0.000140 -2.154616 -4.619999
v 0.087202 -2.515992 -5.999985
v -0.000006 -2.536734 -6.002212
v -0.087198 -2.515979 -5.999985
v -0.000006 -2.504855 -6.193668
v -0.078361 -2.494726 -6.182413
v -0.152304 -2.410121 -5.974074
v -0.059659 -2.459680 -6.137657
v -0.106305 -2.372941 -5.924738
v -0.262346 -1.903798 -4.763690
v -0.206199 -1.863373 -4.766438
v -0.362823 -1.309349 -3.441152
v -0.279742 -1.281592 -3.450052
v -0.563011 -0.475520 -1.610853
v -0.431795 -0.390849 -1.592140
v -0.697365 0.020412 -0.770166
v -0.501005 0.081462 -0.776710
v -0.733899 0.190474 -0.574260
v -0.522298 0.207499 -0.658930
v 0.000002 0.071765 -0.810735
v -0.000005 0.218675 -0.680392
v 0.000021 -0.341002 -1.417301
v 0.431777 -0.389776 -1.592270
v 0.279744 -1.281187 -3.450052
v 0.500964 0.082011 -0.777234
v 0.522305 0.208978 -0.660370
v 0.530637 0.312127 -0.647807
v 0.516919 0.367000 -0.689815
v 0.000021 0.360967 -0.706959
v -0.516623 0.361215 -0.686805
v -0.000020 0.323055 -0.656182
v -0.530648 0.308738 -0.644928
v -0.708125 0.324285 -0.516547
v -0.804377 0.096315 -0.371678
v -0.003814 -0.689630 0.249414
v -0.639103 -0.185467 -0.004859
v -0.569476 -0.531295 -0.471137
v -0.390648 -0.932021 -1.564657
v 0.000015 -1.204630 -1.480772
v -0.000044 -1.745816 -3.283328
v -0.207743 -1.565992 -3.341039
v -0.352789 -1.423792 -3.385927
v -0.566206 -0.652647 -1.604048
v -0.737097 -0.187233 -0.654872
v -0.235466 -1.991675 -4.731758
v -0.000004 -1.869550 -4.740527
v -0.000006 -2.358167 -5.901574
v 0.106294 -2.372941 -5.924738
v 0.206190 -1.863308 -4.766438
v 0.262340 -1.903732 -4.763822
v 0.000007 -1.296472 -3.431075
v 0.154798 -2.444277 -5.894115
v 0.152292 -2.410121 -5.974074
v 0.078342 -2.494699 -6.182413
v 0.059641 -2.459693 -6.137657
v -0.000006 -2.455518 -6.134778
v -0.149619 -2.066988 -4.675093
v -0.154797 -2.444277 -5.893984
v 0.285638 -0.257169 -1.379611
v 0.275534 -0.568042 -2.392257
v 0.285980 -0.134403 -1.418611
v 0.038965 -0.097786 -1.425939
v 0.041719 0.237324 -0.589832
v 0.253434 0.202343 -0.547432
v 0.240942 0.107020 -0.519819
v 0.045939 -0.310340 -1.360636
v 0.272681 -0.676635 -2.357579
v 0.042298 -0.727987 -2.340434
v 0.254620 -1.041099 -3.191722
v 0.255767 -0.947503 -3.221558
v 0.206634 -1.345010 -3.995111
v 0.208637 -1.268440 -4.015657
v 0.155882 -1.568635 -4.662531
v 0.042914 -1.605265 -4.653500
v 0.159759 -1.500912 -4.679150
v 0.114069 -1.680383 -5.088763
v 0.042140 -1.706281 -5.083005
v 0.118203 -1.626832 -5.100934
v 0.082335 -1.712196 -5.266218
v 0.040886 -1.729758 -5.263469
v 0.085329 -1.678419 -5.274332
v 0.041850 -1.706137 -5.307964
v 0.003125 -1.716750 -5.266479
v 0.000642 -1.680500 -5.273677
v -0.027216 -1.683366 -5.088369
v -0.029729 -1.632983 -5.099232
v 0.042194 -1.662794 -5.277080
v 0.041941 -1.608000 -5.103550
v -0.076816 -1.505283 -4.678496
v 0.041265 -1.480654 -4.682683
v -0.132434 -1.261845 -4.018273
v 0.040594 -1.249229 -4.018143
v -0.181379 -0.933697 -3.227448
v 0.042854 -0.923659 -3.225091
v -0.196631 -0.558515 -2.396314
v 0.039191 -0.543400 -2.396576
v -0.170934 -1.044056 -3.189758
v -0.187707 -0.677617 -2.356661
v -0.124327 -1.351855 -3.991969
v -0.071276 -1.573451 -4.661483
v 0.043625 -1.389256 -3.980977
v 0.040473 -1.083722 -3.173400
v -0.195279 -0.249775 -1.380266
v -0.202058 -0.129600 -1.419788
v -0.169335 0.203953 -0.546907
v -0.155538 0.108041 -0.521782
v 0.044135 0.041260 -0.533952
vt 0.302369 1.110260
vt 0.294680 1.116210
vt 0.297409 1.122160
vt 0.288479 1.101330
vt 0.285254 1.110260
vt 0.247179 1.075530
vt 0.247798 1.088930
vt 0.292200 1.085450
vt 0.295175 1.058170
vt 0.173384 1.068090
vt 0.248543 1.095870
vt 0.171896 1.073050
vt 0.117822 1.052220
vt 0.174377 1.060150
vt 0.119683 1.047750
vt 0.121729 1.040800
vt 0.066166 1.035350
vt 0.065794 1.031870
vt 0.066166 1.035350
vt 0.059438 1.036340
vt 0.067531 1.040310
vt 0.057857 1.034360
vt 0.117016 1.056180
vt 0.116520 1.058660
vt 0.068461 1.043280
vt 0.171896 1.073050
vt 0.248543 1.095870
vt 0.170780 1.076030
vt 0.294680 1.116210
vt 0.281534 1.117200
vt 0.285254 1.110260
vt 0.286991 1.120680
vt 0.248047 1.101820
vt 0.086630 1.432720
vt 0.068833 1.425280
vt 0.086010 1.426770
vt 0.068647 1.432220
vt 0.084336 1.394520
vt 0.069329 1.399980
vt 0.084336 1.394520
vt 0.081173 1.323580
vt 0.170780 1.076030
vt 0.248047 1.101820
vt 0.281534 1.117200
vt 0.086630 1.432720
vt 0.086010 1.426770
vt 0.286991 1.120680
vt 0.288479 1.122660
vt 0.286991 1.123650
vt 0.031936 1.231300
vt 0.050044 1.227830
vt 0.049640 1.229820
vt 0.031874 1.228820
vt 0.050044 1.227830
vt 0.068461 1.435700
vt 0.086692 1.436190
vt 0.086692 1.436190
vt 0.288479 1.122660
vt 0.297409 1.122160
vt 0.286991 1.123650
vt 0.302369 1.110260
vt 0.318244 1.060150
vt 0.313284 1.093390
vt 0.313284 1.093390
vt 0.292200 1.085450
vt 0.247179 1.075530
vt 0.175742 1.049240
vt 0.248667 1.056680
vt 0.174377 1.060150
vt 0.173384 1.068090
vt 0.288479 1.101330
vt 0.247798 1.088930
vt 0.117822 1.052220
vt 0.080429 1.273970
vt 0.073298 1.274470
vt 0.078941 1.230310
vt 0.075220 1.231300
vt 0.078941 1.230310
vt 0.080429 1.273970
vt 0.068461 1.043280
vt 0.116520 1.058660
vt 0.117016 1.056180
vt 0.071562 1.323580
vt 0.081173 1.323580
vt 0.070569 1.038820
vt 0.067531 1.040310
vt 0.059438 1.036340
vt 0.059531 1.038320
vt 0.056617 1.037330
vt 0.119683 1.047750
vt 0.070569 1.038820
vt 0.059531 1.038320
vt 0.077639 1.222370
vt 0.075592 1.222380
vt 0.077639 1.222380
vt 0.049640 1.229820
vt 0.888007 1.745260
vt 0.912316 1.706560
vt 0.895450 1.747990
vt 0.910332 1.754680
vt 0.892473 1.797470
vt 0.878582 1.791520
vt 0.872629 1.789290
vt 0.872132 1.739550
vt 0.871357 1.739230
vt 0.904053 1.703000
vt 0.887235 1.744930
vt 0.888815 1.697480
vt 0.904875 1.703340
vt 0.923727 1.663900
vt 0.930175 1.667120
vt 0.945059 1.626440
vt 0.950516 1.629420
vt 0.964406 1.596680
vt 0.957461 1.590720
vt 0.968375 1.599160
vt 0.977800 1.578820
vt 0.974825 1.574350
vt 0.980281 1.581300
vt 0.984250 1.574350
vt 0.984746 1.571870
vt 0.985243 1.576090
vt 0.988219 1.574110
vt 0.990700 1.577330
vt 0.989211 1.577830
vt 0.992684 1.575350
vt 0.997148 1.584520
vt 0.992188 1.585270
vt 0.988715 1.585020
vt 0.987227 1.576830
vt 0.984250 1.583530
vt 0.973336 1.639340
vt 0.975816 1.602630
vt 0.983754 1.606100
vt 0.961925 1.634630
vt 0.959445 1.679770
vt 0.945059 1.673320
vt 0.943570 1.719960
vt 0.943834 1.677640
vt 0.928785 1.713300
vt 0.944162 1.720250
vt 0.928191 1.713010
vt 0.966391 1.682250
vt 0.951012 1.722930
vt 0.978793 1.641330
vt 0.988219 1.607100
vt 0.996652 1.608340
vt 0.991195 1.643560
vt 0.934641 1.619000
vt 0.981770 1.687710
vt 0.908844 1.656210
vt 0.888504 1.696140
vt 0.932656 1.763860
vt 0.967382 1.729630
vt 0.925711 1.760880
vt 0.910889 1.754950
vt 0.912813 1.806030
vt 0.906859 1.803050
vt 0.948531 1.771800
vt 0.926703 1.813220
vt 0.857746 1.784330
vn 0.9713 -0.1497 -0.1850
vn 0.9607 0.1295 -0.2457
vn 0.9272 -0.1906 -0.3225
vn 0.9767 -0.1975 -0.0838
vn 0.9781 0.0459 -0.2029
vn 0.7309 -0.6643 0.1561
vn 0.9786 -0.1975 -0.0583
vn 0.8085 -0.5557 0.1935
vn -0.8085 0.5558 -0.1935
vn -0.7309 0.6643 -0.1561
vn -0.5996 0.7507 -0.2774
vn -0.9786 0.1975 0.0582
vn -0.9298 0.3646 -0.0502
vn -0.7310 0.6643 -0.1561
vn 0.9786 -0.1975 -0.0582
vn 0.9298 -0.3645 0.0502
vn 0.8874 0.3662 -0.2801
vn -0.8738 -0.4101 0.2612
vn -0.8874 -0.3662 0.2801
vn 0.8799 -0.4596 0.1204
vn 0.8738 0.4101 -0.2612
vn 0.6784 -0.7031 0.2130
vn 0.6111 -0.7537 0.2418
vn 0.5111 -0.8218 0.2520
vn 0.5199 -0.8539 0.0243
vn 0.2298 -0.9719 0.0513
vn 0.5198 0.8539 -0.0243
vn 0.7257 -0.0512 0.6861
vn 0.8526 -0.3512 0.3870
vn 0.2358 0.2384 0.9421
vn -0.9020 0.3637 -0.2326
vn -0.4820 0.7868 -0.3854
vn -0.3714 0.8391 -0.3974
vn -0.8739 0.4100 -0.2611
vn -0.8246 0.4556 -0.3354
vn -0.3697 0.8327 -0.4122
vn -0.7015 0.3630 -0.6133
vn -0.2862 0.7210 -0.6311
vn -0.7577 0.4757 -0.4468
vn 0.7015 -0.3630 0.6133
vn 0.2862 -0.7210 0.6311
vn 0.3708 -0.3692 0.8522
vn 0.3805 -0.7921 0.4773
vn 0.7577 -0.4758 0.4468
vn -0.0393 0.4430 -0.8957
vn 0.0082 0.7659 -0.6429
vn -0.0274 0.7804 -0.6247
vn 0.0393 -0.4430 0.8957
vn -0.0082 -0.7659 0.6429
vn 0.0462 -0.4584 0.8875
vn -0.0611 -0.8653 0.4975
vn 0.0274 -0.7804 0.6247
vn -0.0925 -0.8767 0.4720
vn -0.0103 0.7648 -0.6442
vn -0.0630 0.8653 -0.4974
vn -0.0944 0.8765 -0.4720
vn -0.0630 0.8652 -0.4974
vn -0.0754 0.9053 -0.4179
vn 0.3700 0.8325 -0.4123
vn 0.4517 0.7894 -0.4157
vn -0.4149 -0.7533 0.5104
vn -0.3126 -0.7653 0.5627
vn -0.3454 -0.7901 0.5064
vn -0.9781 -0.0459 0.2029
vn -0.9767 0.1975 0.0839
vn 0.3454 0.7901 -0.5064
vn 0.2864 0.7178 -0.6346
vn 0.3126 0.7653 -0.5627
vn 0.0355 0.4378 -0.8984
vn 0.0261 0.7783 -0.6274
vn 0.0631 -0.8652 0.4974
vn -0.0261 -0.7783 0.6274
vn 0.0103 -0.7648 0.6442
vn -0.3783 -0.4670 0.7993
vn -0.2864 -0.7178 0.6346
vn 0.3687 0.3595 -0.8572
vn 0.3783 0.4670 -0.7993
vn 0.5094 0.0240 -0.8602
vn 0.4792 -0.4256 -0.7676
vn -0.5094 -0.0240 0.8602
vn -0.4792 0.4256 0.7676
vn -0.2467 0.9035 0.3506
vn -0.0137 0.8650 0.5016
vn -0.0133 0.7093 0.7048
vn -0.0078 0.9649 0.2624
vn -0.0071 -0.8013 -0.5983
vn 0.0137 -0.8650 -0.5016
vn 0.0133 -0.7093 -0.7048
vn -0.0087 0.8010 0.5986
vn 0.0081 0.8683 0.4959
vn 0.0111 0.7162 0.6978
vn 0.0299 0.1728 -0.9845
vn 0.0181 0.1194 -0.9927
vn -0.0426 -0.4586 0.8876
vn -0.0355 -0.4378 0.8984
vn -0.0299 -0.1727 0.9845
vn 0.0426 0.4586 -0.8876
vn -0.0348 0.1808 -0.9829
vn -0.0462 0.4585 -0.8875
vn 0.0248 -0.1357 0.9904
vn 0.0348 -0.1808 0.9829
vn 0.7015 -0.3630 0.6132
vn 0.3707 -0.3692 0.8522
vn 0.5154 -0.0342 0.8563
vn 0.7677 0.3123 0.5595
vn 0.2573 0.9021 0.3464
vn -0.9712 -0.1480 -0.1868
vn -0.7677 -0.3123 -0.5596
vn -0.7015 0.3630 -0.6132
vn 0.6400 -0.7135 0.2852
vn 0.5996 -0.7507 0.2774
vn 0.7989 -0.5482 0.2476
vn -0.6328 -0.6313 0.4484
vn -0.6006 -0.7506 0.2753
vn -0.6640 -0.7006 0.2613
vn 0.8085 -0.5558 0.1935
vn -0.8085 0.5557 -0.1935
vn -0.9713 0.1497 0.1850
vn -0.8086 -0.5556 0.1936
vn -0.7307 -0.6646 0.1563
vn -0.6457 -0.7336 0.2120
vn -0.5896 -0.7775 0.2190
vn -0.6783 -0.7033 0.2130
vn -0.9297 -0.3649 0.0503
vn -0.9769 -0.1966 -0.0836
vn -0.9785 -0.1978 -0.0580
vn -0.7307 -0.6645 0.1563
vn 0.9785 0.1978 0.0580
vn 0.9769 0.1966 0.0836
vn 0.8246 -0.4556 0.3354
vn 0.8801 0.4593 -0.1202
vn 0.8739 -0.4100 0.2611
vn 0.9297 0.3649 -0.0503
vn 0.0768 0.9140 -0.3984
vn 0.0370 0.9179 -0.3950
vn -0.0037 0.9207 -0.3902
vn -0.0447 0.9215 -0.3859
vn -0.0035 -0.9207 0.3902
vn 0.0373 -0.9179 0.3950
vn -0.0447 -0.9214 0.3860
vn -0.0374 0.9179 -0.3950
vn -0.0775 0.9139 -0.3984
vn 0.0035 0.9207 -0.3902
vn 0.3715 0.8390 -0.3975
vn 0.4819 0.7869 -0.3856
vn 0.9020 0.3637 -0.2327
vn -0.3700 -0.8325 0.4123
vn -0.0777 0.9092 -0.4090
vn -0.0775 0.9139 -0.3985
vn 0.0611 0.8653 -0.4975
vn 0.0925 0.8767 -0.4721
vn 0.0737 0.9055 -0.4179
vn -0.0767 -0.9093 0.4089
vn -0.0925 -0.8767 0.4721
vn -0.0737 -0.9055 0.4179
vn -0.0768 -0.9140 0.3984
vn -0.0370 -0.9179 0.3950
vn 0.0775 -0.9139 0.3985
vn 0.0777 -0.9093 0.4089
vn 0.0374 -0.9179 0.3950
vn 0.4820 -0.7868 0.3854
vn 0.3698 -0.8327 0.4122
vn 0.3697 -0.8327 0.4122
vn -0.9020 -0.3638 0.2327
vn -0.4818 -0.7869 0.3856
vn 0.9020 0.3637 -0.2328
vn 0.8644 -0.5005 0.0483
vn -0.8525 -0.3513 0.3871
vn -0.5199 0.8539 -0.0243
vn -0.8644 0.5005 -0.0483
vn -0.7256 -0.0516 0.6862
vn 0.2360 -0.2383 -0.9421
vn 0.1683 0.8215 -0.5448
vn 0.7256 0.0515 -0.6862
vn 0.0230 0.7661 -0.6424
vn 0.1684 0.8215 -0.5447
vn 0.8525 0.3513 -0.3871
vn -0.8800 0.4596 -0.1204
vn -0.6111 0.7537 -0.2418
vn -0.2360 0.2383 0.9421
vn -0.2298 0.9719 -0.0513
vn 0.2273 0.9725 -0.0512
vn 0.5106 0.8220 -0.2521
vn 0.2300 0.9718 -0.0513
vn 0.5198 0.8539 -0.0244
vn -0.6114 -0.7535 0.2417
vn -0.5198 -0.8539 0.0243
vn -0.5107 -0.8220 0.2521
vn -0.8645 -0.5004 0.0482
vn 0.5107 0.8220 -0.2521
vn 0.6114 0.7535 -0.2417
vn 0.6783 0.7033 -0.2130
vn 0.8645 0.5004 -0.0482
vn 0.9020 -0.3637 0.2326
vn -0.8526 0.3512 -0.3870
vn 0.3715 -0.8391 0.3974
vn 0.1684 -0.8215 0.5448
vn -0.0447 0.9215 -0.3858
vn -0.0451 0.9218 -0.3851
vn 0.0462 -0.9218 0.3849
vn 0.0447 -0.9215 0.3859
vn 0.0452 -0.9218 0.3851
vn 0.0446 0.9216 -0.3857
vn 0.0455 0.9218 -0.3849
vn 0.0459 0.9218 -0.3848
vn -0.1684 0.8215 -0.5448
vn -0.0227 0.7662 -0.6422
vn -0.2358 -0.2384 -0.9421
vn 0.7307 0.6646 -0.1563
vn 0.7307 0.6645 -0.1563
vn 0.8086 0.5556 -0.1936
vn -0.9712 -0.1481 -0.1868
vn -0.9769 -0.1965 -0.0836
vn 0.9712 0.1481 0.1868
vn 0.9751 0.1718 -0.1400
vn 0.8694 0.3797 -0.3161
vn 0.6462 -0.7332 0.2119
vn -0.6784 0.7031 -0.2130
vn -0.6462 0.7332 -0.2119
vn 0.7310 -0.6643 0.1562
vn 0.5902 -0.7770 0.2189
vn 0.6006 0.7506 -0.2753
vn 0.5896 0.7775 -0.2190
vn -0.5902 0.7770 -0.2189
vn -0.1683 -0.8215 0.5447
vn -0.0022 0.9668 0.2557
vn 0.9034 -0.3889 0.1808
vn 0.8300 0.5024 -0.2423
vn 0.6488 0.7068 -0.2818
vn -0.0205 0.9198 -0.3918
vn -0.6488 -0.7068 0.2818
vn -0.0508 -0.9295 0.3652
vn 0.0205 -0.9198 0.3918
vn 0.0508 0.9295 -0.3653
vn 0.9338 0.3459 -0.0911
vn 0.5840 -0.7380 0.3382
vn -0.5840 0.7379 -0.3383
vn -0.9033 0.3880 -0.1830
vn -0.2422 0.8915 -0.3829
vn 0.2422 -0.8915 0.3829
vn 0.6680 -0.6873 0.2855
vn 0.2282 -0.8958 0.3815
vn 0.7805 -0.5894 0.2083
vn 0.7467 0.5953 -0.2966
vn 0.7962 -0.5851 0.1537
vn 0.7529 0.5944 -0.2824
vn 0.7998 -0.5913 0.1036
vn -0.7962 0.5851 -0.1537
vn -0.7998 0.5913 -0.1036
vn -0.3027 0.9159 -0.2635
vn -0.7733 -0.5783 0.2600
vn -0.7529 -0.5945 0.2823
vn -0.7998 0.5999 -0.0227
vn -0.3362 0.9243 -0.1807
vn 0.7733 0.5784 -0.2599
vn 0.7998 -0.5999 0.0227
vn 0.7928 0.5415 -0.2798
vn 0.7924 -0.5215 -0.3164
vn -0.7924 0.5215 0.3164
vn -0.3676 0.9267 0.0777
vn 0.6379 0.5171 -0.5706
vn -0.0022 0.2488 0.9686
vn -0.6379 -0.5171 0.5707
vn 0.3676 -0.9267 -0.0778
vn 0.0022 -0.2488 -0.9685
vn 0.6300 0.7328 0.2570
vn -0.0023 0.2488 0.9686
vn 0.8219 -0.2586 0.5076
vn 0.3086 0.9351 0.1743
vn 0.3248 0.9331 -0.1545
vn -0.7863 -0.6170 0.0340
vn -0.8308 0.4973 -0.2501
vn -0.8219 0.2587 -0.5076
vn -0.0951 0.8367 -0.5394
vn -0.0080 0.9521 -0.3057
vn -0.7723 0.5757 -0.2684
vn 0.0171 0.9483 -0.3168
vn -0.8101 0.5331 -0.2440
vn 0.0367 0.9334 -0.3570
vn -0.7505 0.5989 -0.2794
vn 0.0328 0.9170 -0.3975
vn -0.6146 0.7167 -0.3296
vn -0.0328 -0.9170 0.3975
vn -0.0636 -0.9069 0.4165
vn 0.6146 -0.7167 0.3296
vn 0.0636 0.9069 -0.4165
vn 0.7467 0.5954 -0.2966
vn 0.0327 0.9170 -0.3975
vn -0.7467 -0.5953 0.2966
vn -0.8298 -0.4980 0.2519
vn -0.7467 -0.5953 0.2967
vn -0.0367 -0.9334 0.3570
vn 0.7529 0.5945 -0.2823
vn -0.0172 -0.9483 0.3168
vn -0.7733 -0.5783 0.2599
vn -0.7928 -0.5415 0.2797
vn 0.0080 -0.9521 0.3057
vn 0.0952 -0.8367 0.5394
vn 0.0023 -0.2488 -0.9686
vn 0.8308 -0.4972 0.2501
vn 0.8101 -0.5331 0.2440
vn -0.0171 -0.9483 0.3168
vn 0.7723 -0.5757 0.2684
vn 0.7505 -0.5989 0.2794
vn 0.7490 0.6226 -0.2269
vn 0.8933 0.4156 -0.1710
vn 0.7535 0.6328 -0.1783
vn -0.7535 -0.6328 0.1783
vn 0.7715 0.6249 -0.1198
vn -0.7715 -0.6249 0.1197
vn 0.2912 0.9256 -0.2417
vn 0.7862 0.6170 -0.0340
vn 0.7715 0.6249 -0.1197
vn 0.7863 0.6170 -0.0340
vn -0.7715 -0.6249 0.1198
vn -0.2912 -0.9256 0.2417
vn -0.2426 -0.9194 0.3095
vn 0.3027 -0.9159 0.2636
vn 0.7962 -0.5852 0.1537
vn 0.2534 -0.9121 0.3223
vn -0.7805 0.5894 -0.2083
vn -0.2534 0.9121 -0.3223
vn 0.2079 0.9107 -0.3569
vn 0.2426 0.9194 -0.3095
vn -0.7805 0.5894 -0.2082
vn -0.2172 0.9024 -0.3721
vn 0.2172 -0.9024 0.3721
vn 0.2281 -0.8956 0.3820
vn -0.6018 -0.7309 0.3219
vn -0.8933 -0.4156 0.1710
vn -0.2250 -0.8946 0.3860
vn 0.2250 0.8946 -0.3860
vn -0.7490 -0.6226 0.2269
vn -0.2079 -0.9107 0.3568
vn -0.2079 -0.9107 0.3569
vn 0.9313 -0.3424 0.1242
vn 0.6018 0.7309 -0.3218
vn -0.9313 0.3424 -0.1242
vn -0.8887 -0.4093 0.2066
vn -0.5911 0.7572 -0.2779
vn 0.5911 -0.7572 0.2779
vn 0.8887 0.4093 -0.2066
vn -0.2543 -0.8898 0.3789
vn -0.2634 -0.8869 0.3795
vn 0.2544 0.8897 -0.3790
vn 0.2690 -0.8861 0.3775
vn 0.2422 -0.8915 0.3828
vn 0.5840 -0.7379 0.3383
vn 0.2634 0.8869 -0.3795
usemtl Model0hohhhk
s 1
f 2/1/1 4/2/2 3/3/3
f 2/1/1 5/4/4 4/2/2
f 4/2/2 5/4/4 6/5/5
f 5/4/4 8/6/6 7/7/7
f 9/8/8 8/6/6 5/4/4
f 9/8/9 8/6/10 10/9/11
f 7/7/12 11/10/13 8/6/14
f 7/7/15 11/10/16 12/11/17
f 13/12/18 11/10/13 12/11/19
f 11/10/16 14/13/20 13/12/21
f 15/14/22 14/13/20 11/10/16
f 15/14/22 16/15/23 14/13/20
f 17/16/24 16/15/23 15/14/22
f 17/16/24 18/17/25 16/15/23
f 17/16/24 19/18/26 18/17/25
f 20/19/27 22/20/28 23/21/29
f 21/22/30 22/20/28 20/19/27
f 26/23/31 27/24/32 25/25/33
f 28/26/34 27/24/32 26/23/31
f 30/27/35 29/28/36 28/26/34
f 34/29/37 33/30/38 32/31/39
f 34/29/40 33/30/41 35/32/42
f 31/33/43 33/30/41 32/31/44
f 35/34/45 36/35/46 33/36/47
f 35/34/48 36/35/49 37/37/50
f 31/38/51 36/35/49 33/36/52
f 38/39/53 36/35/49 31/38/51
f 36/35/54 39/40/55 38/39/56
f 38/39/56 39/40/57 40/41/58
f 40/42/59 39/43/60 12/11/17
f 12/11/61 6/5/62 39/43/63
f 6/5/5 7/7/15 12/11/17
f 6/5/64 7/7/12 5/4/65
f 39/43/66 41/44/67 6/5/68
f 42/45/69 41/46/70 36/35/54
f 39/40/71 41/46/72 36/35/73
f 6/5/62 4/2/74 41/44/75
f 42/47/76 4/2/77 41/44/67
f 43/48/78 4/2/77 42/47/76
f 3/3/79 4/2/77 43/48/78
f 43/48/80 3/3/81 44/49/82
f 45/50/83 43/51/84 44/52/85
f 47/53/86 45/50/87 43/51/88
f 47/53/89 45/50/90 48/54/91
f 47/55/92 43/56/93 42/45/69
f 37/37/94 42/45/95 47/55/96
f 37/37/97 42/45/69 36/35/54
f 47/55/98 37/37/99 35/34/45
f 48/57/100 35/34/48 47/55/101
f 34/29/102 35/32/103 48/58/104
f 49/59/105 48/58/104 46/60/106
f 34/29/102 48/58/104 49/59/105
f 50/61/107 49/59/108 34/29/109
f 51/62/110 10/9/111 1/63/112
f 52/64/113 10/9/114 51/62/115
f 10/9/111 9/8/116 1/63/112
f 1/63/112 9/8/116 2/1/1
f 5/4/65 9/8/117 2/1/118
f 52/64/113 53/65/119 10/9/114
f 53/65/119 54/66/120 10/9/114
f 54/66/120 56/67/121 55/68/122
f 54/66/120 57/69/123 56/67/121
f 54/66/120 58/70/124 57/69/123
f 60/71/125 59/72/126 54/66/127
f 59/72/128 32/31/44 60/71/129
f 59/72/128 30/27/130 32/31/44
f 59/72/126 30/27/35 58/70/124
f 30/27/35 28/26/34 58/70/124
f 61/73/131 28/26/132 58/70/133
f 27/74/134 62/75/135 25/76/136
f 25/76/136 62/75/135 63/77/137
f 64/78/138 62/75/139 63/77/140
f 62/75/141 65/79/142 64/78/143
f 64/80/144 65/81/145 66/82/146
f 65/81/145 40/42/59 13/12/21
f 13/12/18 12/11/19 40/42/147
f 67/83/148 40/41/58 65/79/149
f 67/83/148 38/39/56 40/41/58
f 31/38/150 38/39/151 29/84/152
f 67/83/153 38/39/154 29/84/155
f 27/74/156 67/83/153 29/84/155
f 62/75/157 67/83/153 27/74/156
f 65/79/158 67/83/159 62/75/160
f 27/24/161 29/28/162 28/26/132
f 29/28/163 31/33/43 30/27/130
f 30/27/130 31/33/43 32/31/44
f 66/82/164 13/12/18 65/81/165
f 13/12/21 14/13/20 66/82/166
f 18/17/25 68/85/167 16/15/23
f 69/86/168 18/17/169 68/85/170
f 70/87/171 18/17/169 69/86/168
f 21/22/172 71/88/173 70/87/174
f 72/89/175 71/88/173 21/22/172
f 71/88/176 64/80/144 69/86/177
f 64/80/144 66/82/146 69/86/177
f 69/86/168 68/85/170 66/82/164
f 66/82/164 68/85/170 14/13/178
f 14/13/178 68/85/170 16/15/179
f 18/17/169 70/87/171 21/22/180
f 19/18/181 18/17/169 21/22/180
f 19/18/182 21/22/30 20/19/27
f 17/16/183 19/18/184 20/19/185
f 73/90/186 20/19/187 17/16/188
f 74/91/189 20/19/187 73/90/186
f 17/16/190 73/90/191 57/69/192
f 73/90/191 61/73/131 57/69/192
f 74/91/193 61/73/131 73/90/191
f 61/73/131 26/23/194 28/26/132
f 74/91/193 26/23/194 61/73/131
f 26/23/31 23/21/195 74/91/189
f 23/21/29 25/25/196 26/23/194
f 24/92/197 25/25/196 23/21/29
f 25/76/136 63/77/198 24/93/199
f 72/94/200 63/77/201 24/93/202
f 63/77/203 71/95/204 72/94/205
f 63/77/203 64/78/143 71/95/204
f 24/92/206 72/89/207 21/22/208
f 21/22/30 24/92/197 22/20/28
f 22/20/28 24/92/197 23/21/29
f 74/91/189 23/21/195 20/19/187
f 61/73/131 58/70/133 57/69/192
f 58/70/133 59/72/128 54/66/209
f 54/66/210 60/71/129 53/65/211
f 50/61/212 60/71/213 53/65/119
f 60/71/129 34/29/102 50/61/214
f 60/71/129 32/31/44 34/29/102
f 53/65/211 50/61/215 52/64/216
f 57/69/123 17/16/188 56/67/121
f 17/16/24 15/14/22 56/67/217
f 11/10/13 15/14/218 8/6/14
f 8/6/14 15/14/218 56/67/219
f 56/67/217 8/6/220 55/68/221
f 10/9/222 55/68/223 54/66/209
f 8/6/10 55/68/224 10/9/11
f 70/87/171 69/86/168 71/88/225
f 48/54/91 45/50/90 46/96/226
f 75/97/227 76/98/228 77/99/229
f 78/100/230 77/99/229 76/98/228
f 77/99/231 79/101/232 78/100/233
f 79/101/234 80/102/235 77/99/229
f 80/102/235 75/97/227 77/99/229
f 81/103/236 75/97/227 80/102/235
f 81/103/237 75/97/238 82/104/239
f 82/105/240 83/106/241 75/107/227
f 83/106/241 82/105/240 84/108/242
f 75/97/227 83/109/241 76/98/228
f 83/109/241 85/110/243 76/98/228
f 76/98/228 85/110/243 86/111/244
f 85/110/243 87/112/245 86/111/244
f 86/111/244 87/112/245 88/113/246
f 87/112/245 89/114/247 88/113/246
f 87/112/248 89/114/249 90/115/250
f 91/116/251 89/114/249 88/113/252
f 89/114/249 92/117/253 93/118/254
f 91/116/251 92/117/253 89/114/249
f 91/116/255 92/117/256 94/119/257
f 92/117/256 95/120/258 94/119/257
f 92/117/253 95/120/259 96/121/260
f 94/119/257 95/120/258 97/122/261
f 98/123/262 95/120/259 97/122/263
f 96/121/264 98/123/265 95/120/258
f 99/124/266 98/123/267 100/125/268
f 96/126/269 98/123/267 99/124/266
f 93/127/270 96/126/269 99/124/266
f 93/118/254 92/117/253 96/121/260
f 101/128/271 102/129/272 100/125/273
f 102/129/272 103/130/274 100/125/273
f 102/129/272 104/131/275 103/130/274
f 107/132/276 106/133/277 105/134/278
f 107/132/276 108/135/279 106/133/277
f 109/136/280 110/137/281 108/135/279
f 111/138/282 110/137/281 109/136/280
f 110/139/283 112/140/284 111/141/285
f 112/142/286 86/111/287 110/137/288
f 78/100/230 76/98/228 112/142/286
f 86/111/289 76/98/290 112/142/284
f 88/113/252 86/111/291 110/137/283
f 88/113/252 110/137/283 108/135/292
f 108/135/279 88/113/293 91/116/255
f 106/133/294 91/116/295 108/135/292
f 94/119/296 91/116/295 106/133/294
f 106/133/277 94/119/257 104/131/275
f 97/122/263 94/119/296 104/131/297
f 103/130/298 97/122/263 104/131/297
f 98/123/262 97/122/263 103/130/298
f 103/130/274 98/123/299 100/125/273
f 102/129/300 104/131/297 105/134/301
f 104/131/297 106/133/302 105/134/301
f 107/132/303 108/135/292 109/136/304
f 113/143/305 109/136/304 114/144/306
f 107/132/303 109/136/304 113/143/305
f 115/145/307 107/132/303 113/143/305
f 115/145/308 107/132/276 105/134/278
f 116/146/309 105/134/301 115/145/307
f 102/129/300 105/134/301 116/146/309
f 116/146/310 102/129/272 101/128/271
f 90/147/311 101/128/312 116/146/313
f 93/127/270 99/124/266 101/128/314
f 99/124/266 100/125/268 101/128/314
f 90/147/311 93/127/270 101/128/314
f 90/115/250 89/114/249 93/118/254
f 116/146/315 90/147/316 117/148/317
f 90/115/318 87/112/319 117/149/320
f 85/110/321 87/112/248 117/149/322
f 115/145/308 116/146/315 117/148/317
f 118/150/323 117/148/324 115/145/307
f 85/110/325 117/149/322 118/151/326
f 118/151/327 85/110/243 83/109/241
f 118/151/327 83/109/241 84/152/328
f 119/153/329 114/144/330 84/154/331
f 84/154/332 113/143/305 114/144/306
f 113/143/333 118/150/334 84/154/331
f 113/143/333 115/145/308 118/150/335
f 114/144/306 120/155/336 119/153/337
f 120/155/338 111/138/282 114/144/330
f 114/144/330 111/138/282 109/136/280
f 120/155/338 78/100/230 111/138/282
f 78/156/233 111/141/285 112/140/284
f 122/157/339 121/158/340 120/155/338
f 78/100/233 121/158/341 120/155/336
f 121/158/340 79/101/234 78/100/230
f 119/153/337 120/155/336 122/157/342
f 119/153/329 82/159/343 123/160/344
f 82/159/345 84/154/332 119/153/337
f 123/161/346 82/104/347 81/103/348
f 122/157/342 123/160/349 119/153/337
