# Blender v2.93.0 OBJ File: 'edif.blend'
# www.blender.org
mtllib dino1_PD.mtl
o dino1.004
v -1.992010 3.048829 -0.768541
v -2.051808 1.493136 -3.385571
v -2.289660 2.254378 3.070357
v -1.299812 -1.780253 -1.084812
v -1.007589 -1.491991 0.795387
v -1.334225 -5.002391 1.499431
v -1.880230 -4.411466 0.722978
v -2.430678 -5.135406 1.025159
v -2.896419 -4.025498 1.781389
v -2.685546 -5.149310 1.636821
v -2.680284 -4.733466 2.980085
v -2.766642 -3.892234 2.969405
v -2.899112 -0.880874 2.712934
v -2.168227 -3.971025 3.274411
v -2.196966 -1.030734 4.035580
v -1.116119 -1.605624 2.779348
v -3.130363 -1.070028 0.756015
v -2.503023 -1.790497 -2.344473
v -1.723924 -2.043512 -2.391038
v -2.175077 -4.683414 3.653909
v -2.187797 -5.811275 3.502929
v -1.458677 -5.862074 2.812710
v -2.733652 -5.905603 2.588371
v -2.147179 -6.290420 2.801765
v -1.502295 -9.460466 -0.152646
v -2.169893 -9.344124 0.115238
v -2.605977 -9.333242 -0.405428
v -2.545618 -7.975453 -0.153829
v -3.051790 -6.090896 0.913471
v -2.959346 -5.973822 -0.129012
v -1.862217 -5.780496 -0.291872
v -2.197356 -7.795951 -0.524354
v -0.909129 -6.262848 1.042050
v -2.565701 -9.401617 -0.994377
v -2.568161 -10.106146 -1.027553
v -2.493200 -9.983156 -0.441671
v -2.105160 -9.894744 0.114522
v -1.600203 -9.981615 -0.243487
v -1.170641 -12.826299 1.191987
v -1.189987 -12.758485 0.217926
v -1.418119 -10.308658 -1.030947
v -1.448569 -9.521494 -0.877676
v -1.503496 -4.742993 3.123337
v -2.125601 -9.367632 -1.196500
v -2.161969 -10.005294 -1.545308
v -2.010785 -10.417604 -1.190615
v -2.644337 -12.770820 0.218642
v -2.780061 -12.897829 1.293165
v -2.011143 -12.662752 1.293243
v -2.571555 -13.050548 1.760915
v -1.799399 -13.052735 3.115862
v -1.344949 -13.058989 1.753302
v -1.356274 -13.838644 2.465551
v -1.473492 -13.818883 1.591158
v -0.963064 -13.155750 2.069121
v -0.715544 -13.824159 1.885881
v -0.858120 -13.814616 0.929724
v -1.893245 -13.537018 0.420485
v -1.931683 -12.943986 0.066571
v -2.943544 -13.822306 1.122023
v -2.495473 -13.799633 2.140984
v -3.092517 -13.834929 2.509594
v -2.949756 -13.170958 2.660171
v -2.841852 -13.846018 3.113779
v -1.701210 -13.841884 3.746725
v -0.951743 -13.832436 2.396631
vt 0.277023 1.279060
vt 0.351144 1.366070
vt 0.305295 1.382960
vt 0.302985 1.296640
vt 0.291158 1.275270
vt 0.073107 1.307710
vt 0.098156 1.277270
vt 0.101124 1.296640
vt 0.078400 1.274510
vt 0.040566 1.286790
vt 0.036891 1.311650
vt 0.049178 1.401710
vt 0.014399 1.309320
vt 0.019218 1.395950
vt 0.211549 1.309320
vt 0.254824 1.382870
vt 0.233802 1.395950
vt 0.243891 1.447850
vt 0.070470 1.526020
vt 0.162627 1.501990
vt 0.102156 1.394990
vt 0.175222 1.361330
vt 0.237739 1.455590
vt 0.181593 1.350210
vt 0.383455 1.350210
vt 0.501917 1.430900
vt 0.558062 1.536280
vt 0.469606 1.446750
vt 0.009530 1.288270
vt 0.252245 1.253450
vt 0.206679 1.288270
vt 0.218366 1.254950
vt 0.021216 1.254950
vt 0.055728 1.252160
vt 0.050644 1.240790
vt 0.250583 1.227980
vt 0.331660 1.147140
vt 0.320404 1.146090
vt 0.121745 1.150570
vt 0.134477 1.150900
vt 0.134060 1.191010
vt 0.095634 1.246690
vt 0.123299 1.252920
vt 0.344547 1.196310
vt 0.335166 1.262690
vt 0.306136 1.248620
vt 0.135661 1.261280
vt 0.142686 1.196310
vt 0.150894 1.148880
vt 0.158005 1.133480
vt 0.134848 1.116300
vt 0.119910 1.118920
vt 0.331387 1.116350
vt 0.321772 1.118920
vt 0.286317 1.047700
vt 0.316633 1.049700
vt 0.359957 1.127500
vt 0.351341 1.145330
vt 0.235371 1.286510
vt 0.358747 1.149880
vt 0.369430 1.131040
vt 0.156886 1.149880
vt 0.167569 1.131040
vt 0.359903 1.118860
vt 0.158042 1.118860
vt 0.113428 1.049340
vt 0.085903 1.045580
vt 0.083828 1.052530
vt 0.285690 1.052530
vt 0.073444 1.041070
vt 0.028449 1.041010
vt 0.230310 1.041010
vt 0.271842 1.040820
vt 0.252773 1.017790
vt 0.275889 1.018370
vt 0.262551 1.037960
vt 0.266488 1.018220
vt 0.291974 1.018500
vt 0.308411 1.026700
vt 0.319714 1.044220
vt 0.091731 1.018270
vt 0.074028 1.018370
vt 0.106550 1.026700
vt 0.055809 1.017900
vt 0.074963 1.018940
vt 0.051005 1.037510
vt 0.117853 1.044220
vt 0.038794 1.017570
vt 0.050911 1.017790
vt 0.019150 1.017690
vt 0.221011 1.017690
vt 0.090112 1.018500
vt 0.051946 1.017970
vt 0.253807 1.017970
vt 0.064627 1.018220
vn 0.9750 0.0835 -0.2061
vn 0.8355 -0.3843 -0.3928
vn 0.9940 -0.1010 -0.0427
vn 0.5991 -0.5417 -0.5896
vn 0.3577 0.2547 -0.8984
vn 0.9751 0.1418 0.1707
vn 0.7000 -0.4763 0.5321
vn 0.6122 0.4490 0.6508
vn -0.9760 0.2011 -0.0837
vn -0.9751 -0.1418 -0.1707
vn -0.7000 0.4763 -0.5321
vn -0.9398 -0.0910 0.3293
vn 0.8134 -0.0657 -0.5780
vn 0.9398 0.0910 -0.3293
vn -0.8134 0.0657 0.5781
vn -0.9432 0.0714 0.3243
vn -0.6093 0.1338 0.7816
vn -0.8835 -0.0055 0.4684
vn -0.9432 0.0715 0.3243
vn 0.8212 0.1737 0.5436
vn 0.8693 -0.0815 0.4874
vn 0.7607 0.0121 0.6490
vn 0.7858 0.1947 0.5870
vn -0.9603 0.1606 0.2282
vn 0.9783 -0.1984 0.0594
vn 0.9603 -0.1606 -0.2282
vn 0.9432 -0.0715 -0.3243
vn 0.9958 -0.0770 0.0504
vn -0.8176 -0.3066 -0.4874
vn -0.9958 0.0770 -0.0504
vn -0.9783 0.1984 -0.0593
vn 0.7482 0.1049 0.6551
vn 0.9783 -0.1984 0.0593
vn 0.8176 0.3066 0.4874
vn -0.2252 -0.5448 -0.8078
vn -0.6122 -0.4490 -0.6508
vn 0.9082 -0.3539 -0.2235
vn 0.9510 0.0013 -0.3090
vn -0.9081 -0.0829 -0.4104
vn -0.6651 -0.7084 -0.2364
vn 0.2252 0.5448 0.8078
vn 0.6093 -0.1339 -0.7816
vn -0.6093 0.1339 0.7816
vn -0.8133 0.0656 0.5781
vn -0.6901 0.1045 0.7161
vn 0.6901 -0.1045 -0.7161
vn 0.8300 -0.2548 0.4962
vn 0.6453 0.0263 0.7634
vn 0.5995 -0.4439 0.6660
vn 0.7826 0.3085 -0.5407
vn -0.9096 -0.2570 0.3264
vn -0.7826 -0.3085 0.5407
vn 0.5921 0.6111 -0.5252
vn 0.9096 0.2570 -0.3264
vn 0.3328 -0.6660 0.6676
vn -0.7509 0.3469 -0.5619
vn -0.3328 0.6660 -0.6676
vn -0.8300 0.2548 -0.4962
vn -0.3898 0.2858 -0.8754
vn -0.5921 -0.6112 0.5252
vn -0.6863 -0.3868 0.6159
vn 0.9578 0.1258 -0.2585
vn 0.6863 0.3868 -0.6159
vn -0.9578 -0.1258 0.2585
vn -0.9682 -0.0431 -0.2465
vn -0.9981 0.0206 0.0582
vn 0.9760 -0.2011 0.0837
vn 0.9981 -0.0206 -0.0581
vn 0.7551 -0.3697 0.5414
vn -0.7552 0.3697 -0.5414
vn 0.6858 0.1512 -0.7119
vn 0.6587 0.4987 -0.5634
vn 0.8921 0.2002 -0.4051
vn -0.9750 -0.0835 0.2060
vn -0.3577 -0.2547 0.8984
vn -0.6587 -0.4986 0.5634
vn 0.7000 -0.4763 0.5322
vn 0.2157 -0.5372 0.8154
vn 0.5414 -0.1825 0.8208
vn 0.2157 -0.5373 0.8154
vn 0.9682 0.0431 0.2466
vn -0.7551 0.3697 -0.5414
vn -0.8065 0.2281 -0.5455
vn -0.5413 0.1824 -0.8208
vn -0.9155 -0.2106 -0.3428
vn 0.9092 -0.0913 -0.4062
vn 0.9155 0.2106 0.3428
vn 0.8038 0.0201 -0.5946
vn 0.8333 0.0705 0.5483
vn 0.3898 -0.2858 0.8754
vn 0.4622 0.3092 0.8311
vn 0.7509 -0.3469 0.5619
vn 0.7347 0.5882 0.3381
vn -0.8333 -0.0705 -0.5483
vn -0.8335 0.1658 0.5270
vn -0.7347 -0.5882 -0.3380
vn -0.8258 0.2332 0.5136
vn 0.8257 -0.2332 -0.5136
vn 0.9146 0.1182 -0.3866
vn -0.9750 -0.0835 0.2061
vn -0.8921 -0.2002 0.4051
vn 0.8556 0.2465 0.4552
vn -0.8556 -0.2465 -0.4552
vn -0.8212 -0.1738 -0.5436
vn 0.6453 0.0263 0.7635
vn -0.6453 -0.0263 -0.7635
vn 0.4827 0.3843 -0.7870
vn 0.5085 0.0100 -0.8610
vn -0.4078 0.4004 -0.8206
vn -0.6594 -0.0648 -0.7490
vn -0.5085 -0.0100 0.8610
vn -0.3095 0.4858 0.8175
vn 0.4290 0.4980 0.7537
vn 0.6595 0.0648 0.7489
vn -0.4290 -0.4979 -0.7537
vn -0.5941 -0.4251 -0.6829
vn -0.9092 0.0914 0.4063
vn 0.5941 0.4251 0.6829
vn 0.9092 -0.0913 -0.4063
vn -0.4537 0.8786 -0.1488
vn -0.2269 -0.7928 0.5656
vn -0.9092 0.0913 0.4063
vn 0.4537 -0.8787 0.1488
vn -0.2270 -0.7929 0.5655
vn -0.8038 -0.0201 0.5946
vn -0.9092 0.0914 0.4062
vn 0.3061 0.7859 0.5373
vn 0.4537 -0.8786 0.1489
vn -0.2270 -0.7928 0.5656
vn 0.6242 -0.7337 -0.2685
vn 0.7775 -0.4661 -0.4222
vn 0.8130 0.5266 0.2484
vn 0.4828 0.7258 0.4900
vn 0.9776 0.1526 0.1449
vn -0.3793 0.0415 0.9243
vn 0.3793 -0.0415 -0.9243
vn -0.4828 -0.7258 -0.4900
vn -0.1100 -0.6456 -0.7557
vn -0.7347 -0.5882 -0.3381
vn 0.9469 0.3144 0.0672
vn 0.7347 0.5882 0.3380
vn 0.1100 0.6456 0.7557
vn 0.9113 0.0668 -0.4064
vn 0.8336 -0.1659 -0.5270
vn 0.2861 -0.4750 -0.8322
vn -0.2922 0.4363 0.8510
vn -0.2861 0.4750 0.8322
vn -0.8055 0.2257 0.5479
vn 0.0602 0.8984 0.4350
vn 0.1739 0.8805 0.4410
vn 0.8056 -0.2258 -0.5478
vn 0.5069 0.0724 -0.8590
vn 0.6305 0.7456 -0.2155
vn 0.9892 -0.1425 -0.0351
vn -0.8056 0.2257 0.5478
vn 0.3268 0.5000 0.8020
vn -0.4537 0.8787 -0.1489
vn -0.9892 0.1425 0.0351
vn 0.9892 -0.1426 -0.0350
vn 0.6306 0.7456 -0.2155
vn -0.6242 0.7337 0.2685
vn -0.6305 -0.7456 0.2155
vn 0.7918 -0.5549 0.2554
vn 0.6306 0.7456 -0.2156
vn 0.9892 -0.1425 -0.0350
vn -0.5069 -0.0724 0.8590
vn -0.7918 0.5549 -0.2554
vn -0.6306 -0.7456 0.2156
vn -0.8056 0.2258 0.5478
vn -0.0603 -0.8984 -0.4350
vn 0.0300 0.9994 0.0148
vn -0.0300 -0.9994 -0.0148
vn -0.7185 -0.6071 0.3394
vn 0.9172 0.3122 0.2477
vn 0.7185 0.6070 -0.3395
vn -0.3268 -0.5000 -0.8020
vn -0.1739 -0.8805 -0.4410
vn -0.0579 -0.9962 -0.0652
vn -0.0602 -0.8984 -0.4350
vn -0.0019 0.9999 0.0120
vn 0.0579 0.9962 0.0652
vn -0.9469 -0.3144 -0.0672
vn -0.0694 -0.4355 -0.8975
vn -0.0102 0.9999 0.0115
vn 0.8065 -0.2281 0.5455
vn 0.4078 -0.4004 0.8206
vn -0.6858 -0.1512 0.7119
vn -0.4827 -0.3843 0.7870
usemtl Material_000001
s 1
f 6/1/1 4/2/2 5/3/3
f 4/2/2 6/1/1 7/4/4
f 6/1/1 8/5/5 7/4/4
f 9/6/6 8/7/7 7/8/8
f 10/9/9 9/6/10 8/7/11
f 10/9/9 11/10/12 9/6/10
f 9/6/6 12/11/13 11/10/14
f 9/6/10 12/11/15 13/12/16
f 14/13/17 15/14/18 13/12/19
f 14/15/20 16/16/21 15/17/22
f 6/1/1 16/16/21 14/15/20
f 16/16/21 3/18/23 15/17/22
f 15/14/18 3/19/24 13/12/19
f 1/20/25 3/19/26 13/12/27
f 17/21/28 13/12/27 9/6/6
f 1/20/25 13/12/27 17/21/28
f 18/22/29 17/21/30 1/20/31
f 9/6/10 17/21/30 18/22/29
f 2/23/32 1/20/33 18/22/34
f 19/24/35 7/8/36 18/22/29
f 7/4/4 19/25/37 4/2/2
f 19/26/38 2/27/39 4/28/40
f 2/23/32 18/22/34 19/24/41
f 18/22/34 9/6/6 7/8/8
f 12/11/13 13/12/27 14/13/42
f 14/13/43 12/11/44 20/29/45
f 12/11/13 20/29/46 11/10/14
f 22/30/47 20/31/48 21/32/49
f 11/10/14 20/29/46 21/33/50
f 23/34/51 21/33/52 11/10/12
f 21/33/50 24/35/53 23/34/54
f 24/36/55 22/30/47 21/32/49
f 25/37/56 24/36/57 22/30/58
f 26/38/59 24/36/57 25/37/56
f 24/35/60 23/34/51 26/39/61
f 27/40/62 23/34/54 26/39/63
f 27/40/64 23/34/51 28/41/65
f 28/41/65 23/34/51 29/42/66
f 10/9/67 23/34/54 29/42/68
f 10/9/67 11/10/14 23/34/54
f 30/43/69 10/9/67 29/42/68
f 30/43/70 10/9/9 8/7/11
f 32/44/71 31/45/72 33/46/73
f 33/46/73 31/45/72 6/1/1
f 6/1/74 8/5/75 31/45/76
f 8/7/77 30/43/69 31/47/78
f 30/43/69 32/48/79 31/47/80
f 30/43/69 28/41/81 32/48/79
f 28/41/65 29/42/66 30/43/82
f 34/49/83 28/41/65 32/48/84
f 34/49/83 27/40/64 28/41/65
f 35/50/85 27/40/64 34/49/83
f 27/40/62 36/51/86 35/50/87
f 27/40/62 37/52/88 36/51/86
f 38/53/89 26/38/90 37/54/91
f 25/37/92 26/38/90 38/53/89
f 27/40/62 26/39/63 37/52/88
f 39/55/93 38/53/89 37/54/91
f 38/53/94 40/56/95 39/55/96
f 38/53/94 41/57/97 40/56/95
f 41/57/98 25/37/92 38/53/89
f 41/57/98 42/58/99 25/37/92
f 42/58/99 22/30/47 25/37/92
f 42/58/99 33/46/73 22/30/47
f 22/30/58 6/1/100 33/46/101
f 22/30/47 6/1/1 43/59/102
f 43/59/103 14/15/104 6/1/100
f 43/59/102 14/15/20 20/31/105
f 20/31/106 43/59/103 22/30/58
f 33/46/73 42/58/99 44/60/107
f 42/58/99 45/61/108 44/60/107
f 44/62/109 45/63/110 34/49/83
f 35/50/85 34/49/83 45/63/110
f 45/61/111 46/64/112 41/57/97
f 35/50/87 46/65/113 45/63/114
f 46/65/115 47/66/116 35/50/85
f 47/66/116 36/51/117 35/50/85
f 47/66/118 36/51/119 48/67/120
f 49/68/121 36/51/122 48/67/123
f 49/68/124 37/52/125 36/51/126
f 39/55/93 37/54/91 49/69/127
f 48/67/128 49/68/129 50/70/130
f 49/68/129 51/71/131 50/70/130
f 49/69/127 51/72/132 52/73/133
f 53/74/134 52/73/133 51/72/132
f 53/74/134 54/75/135 52/73/133
f 54/75/136 52/73/137 55/76/138
f 55/76/138 52/73/137 39/55/139
f 39/55/93 49/69/127 52/73/133
f 56/77/140 39/55/141 55/76/142
f 56/77/140 57/78/143 39/55/141
f 57/78/143 40/56/144 39/55/141
f 57/78/143 58/79/145 40/56/144
f 59/80/146 58/79/147 40/56/95
f 60/81/148 54/82/149 58/83/150
f 60/81/151 62/84/152 61/85/153
f 62/84/152 60/81/151 63/86/154
f 47/66/118 60/81/155 59/87/156
f 48/67/157 47/66/118 60/81/155
f 63/86/158 48/67/157 60/81/155
f 48/67/128 50/70/130 63/86/159
f 61/85/160 50/70/130 51/71/131
f 63/86/158 50/70/161 61/85/162
f 64/88/163 61/85/164 63/86/165
f 61/85/153 62/84/152 63/86/154
f 62/84/166 64/88/167 61/85/162
f 54/82/149 61/85/168 60/81/169
f 54/82/170 61/85/160 53/89/171
f 53/89/172 65/90/173 61/85/162
f 65/91/174 53/74/134 51/72/132
f 65/90/175 61/85/160 51/71/131
f 59/87/156 60/81/155 58/83/150
f 59/87/176 47/66/116 46/65/115
f 46/64/112 59/80/146 41/57/97
f 41/57/97 59/80/146 40/56/95
f 58/83/177 57/92/178 54/82/179
f 54/82/149 66/93/180 57/92/181
f 55/76/138 56/77/182 66/94/183
f 66/93/180 56/95/184 57/92/181
f 54/75/136 55/76/138 66/94/183
f 41/57/98 45/61/108 42/58/99
f 32/48/79 34/49/185 44/62/186
f 32/44/187 44/60/188 33/46/101
f 6/1/1 5/3/3 16/16/21
