# Blender v2.93.0 OBJ File: 'edif.blend'
# www.blender.org
mtllib dino1_cuello.mtl
o dino1.006
v 0.000000 1.010274 -1.247959
v -1.340184 0.329316 -0.567298
v 0.000000 2.336846 0.142959
v -1.034354 1.975973 0.840995
v -0.894311 -1.342720 0.652945
v -0.747837 0.500723 2.085072
v -0.929064 3.936487 2.308121
v -0.624262 2.339025 3.488741
v -0.913045 4.140432 4.355863
v -0.511532 5.108002 3.358451
v -1.037317 5.405823 4.257752
v -1.413100 4.436853 4.670266
v 0.000000 5.841579 5.147356
v -1.336605 2.636223 4.961081
v 0.626476 2.959577 4.585061
v 0.000000 2.750028 4.634646
v -0.626476 2.959577 4.585061
v 0.000000 2.012247 3.629167
v 0.624262 2.339025 3.488741
v 0.913045 4.140432 4.355849
v 0.929064 3.936487 2.308121
v 0.747837 0.500723 2.085072
v 0.511532 5.108002 3.358451
v 0.000000 4.608416 1.598004
v 0.000000 5.183043 3.641451
v 1.037317 5.405823 4.257752
v 1.413100 4.436853 4.670266
v 0.000000 0.195272 2.278508
v 0.000000 -1.654709 0.845774
v 0.894311 -1.342720 0.652945
v 1.340184 0.329316 -0.567298
v 1.034354 1.975973 0.840995
v 0.170939 -0.928596 -3.597761
v -0.248201 -0.903824 -1.382077
v -0.108755 -1.426751 -1.000448
v 0.170939 -2.325159 -1.116276
v 0.450634 -1.426751 -1.000448
v 0.590080 -0.903824 -1.382077
vt 0.941815 1.071510
vt 0.922901 1.186140
vt 0.991269 1.111590
vt 0.876243 1.164470
vt 0.899810 1.026460
vt 0.880194 1.166830
vt 0.843560 1.135520
vt 0.820640 1.185030
vt 0.855911 1.220330
vt 0.806979 1.251480
vt 0.840221 1.281580
vt 0.804154 1.301160
vt 0.794691 1.266820
vt 0.804594 1.167690
vt 0.790766 1.179010
vt 0.789175 1.199730
vt 0.789175 1.199730
vt 0.820640 1.185030
vt 0.806979 1.251480
vt 0.855911 1.220330
vt 0.843560 1.135520
vt 0.840221 1.281580
vt 0.901459 1.249790
vt 0.858345 1.302020
vt 0.790248 1.353320
vt 0.804154 1.301160
vt 0.828676 1.115830
vt 0.880258 1.008490
vt 0.876243 1.164470
vt 0.941815 1.071510
vt 0.880194 1.166830
vt 0.899810 1.026460
vt 0.770186 1.187540
vt 0.794691 1.266820
vt 0.899810 1.026460
vt 0.941813 1.071510
vt 0.107823 0.704393
vt 0.175223 0.768277
vt 0.087952 0.781065
vt 0.941813 1.071510
vt 0.899810 1.026460
vt 0.160257 0.765949
vt 0.199476 0.735256
vt 0.146758 0.713864
vt 0.880258 1.008490
vt 0.141756 0.736726
vt 0.259492 0.758849
vn -0.9312 0.3208 -0.1729
vn 0.0000 0.6369 -0.7709
vn 0.0000 0.7236 -0.6902
vn -0.9411 0.2501 -0.2277
vn -0.8602 -0.2478 0.4457
vn -0.7855 -0.3467 0.5126
vn -0.7855 -0.3467 0.5127
vn -0.8045 -0.4270 0.4127
vn -0.9739 0.1997 -0.1078
vn 0.9739 -0.1997 0.1078
vn 0.9917 0.0656 0.1104
vn 0.8045 0.4271 -0.4128
vn 0.5221 -0.7556 0.3955
vn -0.8744 -0.1124 -0.4720
vn -0.7902 0.3046 -0.5318
vn -0.5221 0.7556 -0.3955
vn 0.5187 -0.3293 0.7890
vn 0.8086 0.1541 0.5678
vn 0.5471 0.1415 0.8250
vn 0.0000 -0.7694 0.6388
vn -0.3134 -0.9406 0.1307
vn -0.6063 -0.6798 -0.4126
vn -0.1286 -0.7548 0.6432
vn 0.8045 -0.4270 0.4128
vn 0.8744 -0.1124 -0.4720
vn 0.6063 -0.6798 -0.4126
vn 0.9739 0.1997 -0.1078
vn -0.8045 0.4271 -0.4127
vn -0.9739 -0.1997 0.1078
vn -0.7855 0.3467 -0.5126
vn -0.5221 -0.7556 0.3955
vn -0.0000 -0.7946 0.6072
vn -0.0000 0.7946 -0.6072
vn 0.0000 -0.9417 0.3364
vn -0.0346 0.9762 -0.2139
vn -0.0000 0.9417 -0.3364
vn 0.0000 -0.9778 0.2095
vn -0.6507 -0.4632 0.6017
vn 0.0000 0.7693 -0.6388
vn -0.6063 0.6798 0.4126
vn -0.8045 0.4270 -0.4127
vn 0.8627 0.5057 0.0086
vn 0.0000 0.7694 -0.6388
vn -0.0000 -0.7693 0.6389
vn 0.0000 -0.5989 0.8008
vn -0.0000 0.6033 -0.7975
vn 0.7855 0.3467 -0.5126
vn -0.0000 0.5989 -0.8008
vn 0.8602 0.2477 -0.4457
vn -0.9411 -0.2501 0.2277
vn -0.0000 -0.6369 0.7709
vn -0.9312 -0.3208 0.1729
vn 0.0000 0.7945 -0.6072
vn 0.9411 -0.2501 0.2276
vn 0.7855 0.3467 -0.5127
vn 0.7855 -0.3467 0.5126
vn 0.9411 0.2501 -0.2276
vn -0.9411 -0.2501 0.2276
vn -0.8602 0.2477 -0.4457
vn 0.8602 -0.2477 0.4457
vn 0.9312 0.3208 -0.1729
vn 0.8806 -0.1877 0.4350
vn 0.2185 -0.7339 0.6431
vn 0.7855 -0.3467 0.5127
vn 0.8045 -0.4271 0.4127
vn -0.7855 0.3467 -0.5127
vn -0.0000 -0.7181 0.6959
vn 0.4882 0.3745 0.7883
vn -0.5187 -0.3293 0.7890
vn -0.6727 -0.3423 0.6560
vn -0.8424 0.1947 0.5025
vn 0.8744 -0.1125 -0.4720
vn 0.5221 0.7556 -0.3956
vn 0.6507 0.4632 -0.6017
vn -0.8744 0.1124 0.4720
vn 0.9831 0.0189 0.1820
vn 0.7312 -0.4661 -0.4980
vn 0.7756 0.0017 -0.6312
vn -0.7955 0.5420 -0.2709
vn -0.8572 -0.1537 -0.4915
vn -0.7324 -0.2497 -0.6335
vn -0.9329 -0.3475 -0.0945
vn -0.6596 -0.7210 -0.2121
vn 0.6241 0.7170 -0.3105
vn 0.9730 -0.2261 -0.0462
vn 0.5251 0.7019 -0.4813
vn -0.7149 -0.6990 0.0185
vn -0.9073 -0.3617 -0.2143
vn -0.6227 -0.6507 0.4346
vn 0.7587 -0.6314 0.1606
vn -0.6549 0.4317 -0.6203
vn 0.7775 0.6285 -0.0211
vn -0.6520 -0.2383 0.7198
usemtl Material_000001
s 1
f 2/1/1 3/2/2 1/3/3
f 3/2/2 2/1/1 4/4/4
f 5/5/5 4/6/4 2/1/1
f 5/5/5 6/7/6 4/6/4
f 6/7/7 8/8/8 7/9/9
f 7/9/10 9/10/11 8/8/12
f 10/11/13 9/10/11 7/9/10
f 9/10/14 11/12/15 10/11/16
f 11/12/17 12/13/18 9/10/19
f 18/14/20 16/15/21 17/16/22
f 18/14/20 15/17/23 16/15/21
f 19/18/24 20/19/25 15/17/26
f 19/18/24 21/20/27 20/19/25
f 19/18/28 21/20/29 22/21/30
f 23/22/31 24/23/32 21/20/29
f 7/9/9 10/11/16 24/23/33
f 25/24/34 10/11/13 24/23/32
f 10/11/16 13/25/35 25/24/36
f 10/11/16 11/12/15 13/25/35
f 13/25/37 25/24/34 23/22/31
f 23/22/31 25/24/34 24/23/32
f 26/26/38 13/25/37 23/22/31
f 18/14/39 15/17/40 19/18/41
f 17/16/42 18/14/43 8/8/12
f 18/14/44 8/8/8 28/27/45
f 28/27/45 8/8/8 6/7/7
f 29/28/46 6/7/47 28/27/48
f 5/5/49 6/7/47 29/28/46
f 32/29/50 3/2/51 31/30/52
f 24/23/32 3/2/51 32/31/50
f 3/2/2 4/6/4 24/23/53
f 24/23/32 7/9/10 4/6/54
f 4/6/54 7/9/10 6/7/55
f 21/20/29 24/23/32 32/31/50
f 22/21/56 32/31/57 21/20/27
f 22/21/30 32/31/58 30/32/59
f 30/32/60 31/30/61 32/31/57
f 30/32/62 22/21/56 29/28/63
f 22/21/64 19/18/65 28/27/45
f 28/27/48 18/14/39 19/18/41
f 29/28/46 28/27/48 22/21/66
f 1/3/67 31/30/52 3/2/51
f 9/10/11 17/16/42 8/8/12
f 9/10/11 14/33/68 17/16/42
f 26/26/69 20/19/70 27/34/71
f 20/19/72 23/22/73 26/26/74
f 20/19/75 23/22/31 21/20/29
f 31/30/76 37/35/77 38/36/78
f 29/28/63 37/35/77 30/32/62
f 1/37/79 34/38/80 2/39/81
f 5/5/82 34/40/80 35/41/83
f 29/28/84 35/41/85 5/5/86
f 1/42/87 38/43/88 31/44/89
f 31/30/76 30/32/62 37/35/77
f 29/28/63 36/45/90 37/35/77
f 1/37/79 33/46/91 34/38/80
f 5/5/82 2/1/81 34/40/80
f 29/28/84 36/45/92 35/41/85
f 1/42/87 33/47/93 38/43/88
