# Blender v2.93.0 OBJ File: 'edif.blend'
# www.blender.org
mtllib dino1_C.mtl
o dino1.007
v -0.305800 -0.272875 -0.115771
v -0.937725 1.117529 -0.394568
v -0.880060 -4.145954 0.634137
v -3.381807 -2.287256 -1.392247
v -4.817250 2.219609 -2.809879
v -1.061996 2.382765 -0.492679
v -4.209542 5.256674 -2.171548
v 0.000000 3.118990 -0.808435
v -1.867946 6.584649 -1.817789
v 1.061996 2.382765 -0.492679
v 4.209542 5.256674 -2.171548
v 1.867946 6.584649 -1.817789
v 4.817250 2.219609 -2.809879
v 0.937725 1.117529 -0.394568
v 3.381807 -2.287256 -1.392247
v 0.880060 -4.145954 0.634137
v 0.305800 -0.272875 -0.115771
v -0.305800 -0.242347 -0.210518
v -0.937725 1.148057 -0.489315
v -1.061996 2.413293 -0.587426
v 0.000000 3.149518 -0.903182
v 0.000000 2.849931 0.302137
v -0.913045 1.150237 -0.489440
v -1.037317 2.415628 -0.587551
v -1.413100 1.446658 -0.175037
v -1.368643 2.712049 0.340445
v -1.720608 2.136178 1.095428
v -1.332001 0.331657 0.512349
v -1.220377 1.689523 2.048567
v -1.027400 2.684182 1.384081
v -0.554350 1.789784 3.223660
v 0.000000 2.836440 1.374226
v -0.887950 3.121027 3.907577
v -0.352946 1.807997 4.590868
v -0.237191 1.407893 3.994759
v -1.042115 3.790465 3.160144
v -1.117866 3.873912 1.913279
v -0.915467 2.689319 1.339353
v -1.163985 3.417293 0.550912
v -0.984875 2.690253 0.649039
v -1.336605 -0.353972 0.115778
v 0.000000 0.331657 0.512364
v 0.000000 -0.748315 -0.086657
v 1.332001 0.331657 0.512349
v 1.336605 -0.353972 0.115778
v 0.626476 -0.030617 -0.260243
v 0.000000 -0.240166 -0.210658
v -0.626476 -0.030617 -0.260243
v 0.913045 1.150237 -0.489454
v -0.034036 1.147926 -0.674654
v 1.037317 2.415628 -0.587551
v 1.368643 2.712049 0.340445
v 1.027400 2.684182 1.384065
v 0.554350 1.789784 3.223660
v 1.220377 1.689523 2.048567
v 1.720608 2.136178 1.095428
v 1.413100 1.446658 -0.175037
v 1.220375 -0.105968 2.074254
v 0.000000 0.222367 2.074254
v 0.954922 -0.415309 2.639849
v 0.000000 -0.572393 4.700469
v 0.609232 -0.481319 3.406588
v 0.689556 0.958125 3.877063
v 0.887949 3.121027 3.907577
v 1.042115 3.790465 3.160144
v 1.117866 3.873912 1.913279
v 1.163985 3.417293 0.550912
v 0.984875 2.690253 0.649039
v 0.915467 2.689319 1.339353
v 0.237191 1.407893 3.994759
v 0.352946 1.807997 4.590868
v 0.405269 1.252209 4.125377
v 0.000000 1.323668 4.204776
v 0.000000 0.523457 4.832644
v -0.405269 1.252209 4.125377
v -0.466748 0.393151 4.734874
v -0.689556 0.958125 3.877063
v 0.000000 1.813758 3.346339
v -0.954922 -0.415309 2.639849
v -0.609232 -0.481319 3.406588
v -0.396062 -0.577844 4.598653
v -1.220375 -0.105968 2.074254
v 0.466748 0.393151 4.734874
v 0.396062 -0.577844 4.598653
v -0.171809 -0.842660 4.241672
v -0.171809 -0.202959 4.502130
v -0.600790 0.059211 2.636736
v -0.600790 -0.603997 2.543480
v 0.171809 -0.842660 4.241672
v 0.600790 0.059211 2.636736
v 0.171809 -0.202959 4.502130
v 0.600790 -0.603997 2.543480
v 1.061996 2.413293 -0.587426
v 0.937725 1.148057 -0.489315
v 0.305800 -0.242347 -0.210518
vt 0.770015 1.510630
vt 0.820185 1.683920
vt 0.794645 1.638180
vt 0.896697 1.559700
vt 0.988636 1.701970
vt 0.820883 1.721250
vt 0.949744 1.815580
vt 0.821504 1.749710
vt 0.856537 1.869540
vt 0.820883 1.721250
vt 0.949744 1.815580
vt 0.856537 1.869540
vt 0.988636 1.701970
vt 0.820185 1.683920
vt 0.896697 1.559700
vt 0.770015 1.510630
vt 0.794645 1.638180
vt 0.821504 1.749710
vt 0.820883 1.721250
vt 0.787414 1.745270
vt 0.756660 1.220940
vt 0.741816 1.305940
vt 0.794691 1.266820
vt 0.696046 1.291850
vt 0.732281 1.332450
vt 0.643736 1.301320
vt 0.733688 1.352130
vt 0.847008 1.395370
vt 0.825057 1.477660
vt 0.933828 1.425890
vt 0.786724 1.407100
vt 0.810571 1.385720
vt 0.862233 1.502600
vt 0.917836 1.495660
vt 0.935836 1.425840
vt 0.975187 1.453100
vt 0.966338 1.427270
vt 0.804154 1.301160
vt 0.779478 1.327100
vt 0.790248 1.353320
vt 0.770186 1.187540
vt 0.770186 1.187540
vt 0.776810 1.168490
vt 0.789175 1.199730
vt 0.790766 1.179010
vt 0.789175 1.199730
vt 0.804154 1.301160
vt 0.779478 1.327100
vt 0.732281 1.332450
vt 0.643736 1.301320
vt 0.696046 1.291850
vt 0.741816 1.305940
vt 0.794691 1.266820
vt 0.756660 1.220940
vt 0.683516 1.209990
vt 0.684580 1.591570
vt 0.726931 1.591570
vt 0.730879 1.540240
vt 0.717542 1.612900
vt 0.656076 1.199630
vt 0.684580 1.685850
vt 0.705316 1.640080
vt 0.621108 1.200000
vt 0.609030 1.270470
vt 0.825057 1.477660
vt 0.933828 1.425890
vt 0.847008 1.395370
vt 0.966338 1.427270
vt 0.975187 1.453100
vt 0.935836 1.425840
vt 0.917836 1.495660
vt 0.862233 1.502600
vt 0.810571 1.385720
vt 0.786724 1.407100
vt 0.599705 1.285290
vt 0.586276 1.304900
vt 0.553344 1.263810
vt 0.599705 1.285290
vt 0.566802 1.250450
vt 0.609030 1.270470
vt 0.628486 1.321980
vt 0.656076 1.199630
vt 0.621108 1.200000
vt 0.566792 1.203210
vt 0.544636 1.204090
vt 0.697776 1.682310
vt 0.705316 1.640080
vt 0.717542 1.612900
vt 0.726931 1.591570
vt 0.683516 1.209990
vt 0.730879 1.540240
vt 0.684580 1.540240
vt 0.806979 1.251480
vt 0.820883 1.721250
vt 0.820185 1.683920
vt 0.794645 1.638180
vt 0.820185 1.683920
vt 0.820883 1.721250
vt 0.806979 1.251480
vt 0.820185 1.683920
vt 0.821504 1.749710
vt 0.794645 1.638180
vt 0.794645 1.638180
vt 0.566802 1.250450
vt 0.566792 1.203210
vt 0.697776 1.682310
vt 0.836593 2.073560
vt 0.570865 2.073560
vt 0.570865 1.864470
vt 0.836593 1.864470
vt 0.570865 2.073560
vt 0.836593 2.073560
vt 0.570865 1.864470
vt 0.836593 1.864470
vn 0.2925 -0.1803 -0.9391
vn -0.1062 -0.7468 -0.6565
vn -0.6221 -0.5565 -0.5507
vn 0.5268 -0.1321 -0.8397
vn 0.5180 -0.0166 -0.8552
vn 0.7010 0.6598 -0.2707
vn -0.4736 0.3493 0.8085
vn -0.2833 0.1884 0.9404
vn -0.5180 0.0166 0.8552
vn 0.4735 -0.3494 -0.8085
vn 0.2833 -0.1884 -0.9404
vn 0.3140 -0.5409 -0.7803
vn 0.2345 -0.1579 -0.9592
vn -0.4735 -0.3494 -0.8085
vn -0.3140 -0.5409 -0.7803
vn -0.2833 -0.1884 -0.9404
vn -0.2345 -0.1580 -0.9592
vn 0.5180 0.0166 0.8552
vn 0.2833 0.1884 0.9404
vn 0.4736 0.3493 0.8085
vn 0.0067 -0.6454 -0.7638
vn -0.0095 -0.0887 -0.9960
vn -0.5180 -0.0166 -0.8552
vn -0.5268 -0.1321 -0.8397
vn -0.2925 -0.1803 -0.9391
vn 0.5849 -0.5495 -0.5966
vn -0.9138 0.4053 0.0282
vn -0.8029 0.5902 0.0833
vn 0.0000 0.6876 0.7261
vn -0.9840 -0.1477 0.1000
vn -0.9634 0.2157 0.1589
vn -0.9022 -0.0214 -0.4308
vn -0.9115 0.1600 0.3788
vn 0.4547 -0.8299 -0.3233
vn 0.4716 -0.7349 -0.4874
vn 0.9115 -0.1601 -0.3788
vn -0.0000 0.9473 0.3205
vn -0.4547 0.8299 0.3233
vn -0.4716 0.7349 0.4874
vn -0.9267 -0.3534 0.1275
vn -0.9308 -0.0270 0.3645
vn -0.9829 -0.1773 0.0495
vn -0.8834 -0.4123 0.2229
vn 0.9645 0.2639 0.0128
vn 0.8833 0.4123 -0.2229
vn 0.9308 0.0270 -0.3645
vn -0.9645 -0.2639 -0.0128
vn -0.2132 0.8643 0.4555
vn -0.8442 -0.5159 0.1454
vn 0.2132 -0.8643 -0.4555
vn 0.9829 0.1773 -0.0495
vn 0.8442 0.5159 -0.1455
vn -0.8442 -0.5160 0.1455
vn -0.9680 -0.2243 0.1127
vn -0.9645 -0.2639 -0.0127
vn 0.9680 0.2243 -0.1126
vn -0.0923 0.4245 -0.9007
vn 0.8442 0.5160 -0.1454
vn 0.0923 -0.4245 0.9007
vn -0.0118 0.1309 0.9913
vn -0.9680 -0.2243 0.1126
vn 0.2190 0.9226 -0.3176
vn -0.6600 0.7293 -0.1802
vn 0.0064 0.9747 -0.2232
vn 0.6355 -0.4719 0.6110
vn 0.6600 -0.7293 0.1802
vn 0.9085 0.1523 0.3891
vn 0.4547 -0.8299 -0.3232
vn 0.0000 -0.9778 0.2095
vn -0.6600 0.7294 -0.1802
vn 0.9634 -0.2157 -0.1589
vn -0.7211 -0.3726 -0.5841
vn 0.7212 -0.3726 -0.5841
vn 0.0000 -0.6502 -0.7597
vn 0.5937 -0.4454 -0.6701
vn 0.4754 -0.3387 -0.8120
vn 0.0000 0.9268 0.3755
vn 0.0823 0.1307 0.9880
vn -0.0263 0.4661 0.8844
vn 0.6508 0.4632 -0.6016
vn 0.0000 0.9778 -0.2095
vn 0.6600 0.7293 -0.1802
vn -0.4547 -0.8299 -0.3233
vn 0.0000 -0.9473 -0.3205
vn 0.4716 0.7349 0.4874
vn 0.4547 0.8299 0.3233
vn 0.9115 0.1601 0.3788
vn 0.9634 0.2157 0.1589
vn -0.9634 -0.2157 -0.1589
vn -0.9022 0.0214 0.4309
vn -0.9840 0.1477 -0.1000
vn 0.9022 -0.0214 -0.4308
vn 0.6600 0.7294 -0.1802
vn -0.9115 -0.1600 -0.3788
vn 0.9672 0.0036 0.2539
vn 0.9840 -0.1477 0.1000
vn 0.9115 0.1600 0.3788
vn 0.0000 0.9522 0.3054
vn 0.2363 0.8782 0.4159
vn 0.2377 0.9689 -0.0687
vn -0.2363 -0.8782 -0.4159
vn -0.4166 -0.8231 -0.3859
vn 0.0000 -0.9522 -0.3054
vn 0.9292 -0.0740 0.3621
vn 0.0000 0.9679 0.2512
vn 0.4166 0.8231 0.3859
vn -0.0000 0.9522 0.3053
vn -0.4166 -0.8232 -0.3857
vn -0.3273 -0.9193 -0.2187
vn 0.0000 -0.9679 -0.2512
vn 0.9487 -0.1448 0.2812
vn 0.9316 0.1264 0.3409
vn -0.4716 -0.7349 -0.4874
vn -0.4547 -0.8299 -0.3232
vn -0.9308 0.0271 -0.3645
vn -0.9829 0.1773 -0.0495
vn -0.9267 0.3534 -0.1275
vn 0.9829 -0.1773 0.0495
vn -0.0119 -0.1309 -0.9913
vn 0.0923 0.4245 -0.9007
vn 0.0118 0.1309 0.9913
vn -0.0923 -0.4245 0.9007
vn 0.9680 -0.2243 0.1126
vn 0.8442 -0.5159 0.1454
vn -0.2133 -0.8643 -0.4555
vn -0.9645 0.2639 0.0128
vn 0.2132 0.8643 0.4556
vn -0.8442 0.5159 -0.1454
vn 0.9308 -0.0270 0.3646
vn 0.8834 -0.4123 0.2229
vn 0.9267 -0.3534 0.1275
vn -0.8834 0.4123 -0.2229
vn 0.9645 -0.2639 -0.0128
vn -0.9680 0.2243 -0.1127
vn 0.5145 0.5951 0.6174
vn 0.0000 0.7874 0.6164
vn 0.0000 0.3848 0.9230
vn 0.0000 -0.3848 -0.9230
vn 0.5145 -0.5951 -0.6174
vn -0.0000 -0.7874 -0.6164
vn -0.5145 0.5950 0.6174
vn -0.5942 0.1373 0.7925
vn 0.9316 -0.1265 -0.3409
vn 0.5942 -0.1373 -0.7925
vn 0.4716 -0.7349 -0.4873
vn -0.5145 0.5951 0.6174
vn 0.0000 -0.8783 -0.4782
vn 0.4715 -0.7349 -0.4874
vn -0.4715 -0.7349 -0.4874
vn -0.0000 0.8783 0.4782
vn -0.9316 0.1265 0.3408
vn -0.9292 -0.0740 0.3621
vn 0.9292 0.0740 -0.3621
vn 0.9316 -0.1265 -0.3408
vn 0.9487 0.1448 -0.2812
vn -0.8504 -0.1387 0.5075
vn -0.9487 -0.1448 0.2812
vn 0.0000 -0.1383 0.9904
vn -0.5941 0.1373 0.7926
vn -0.8504 -0.1386 0.5075
vn -0.0000 0.1382 -0.9904
vn 0.8504 0.1387 -0.5075
vn -0.0361 0.9955 0.0871
vn -0.3272 0.9193 0.2188
vn 0.4166 -0.8231 -0.3859
vn 0.0000 -0.9679 -0.2513
vn 0.3273 -0.9193 -0.2187
vn 0.2363 -0.8782 -0.4159
vn 0.9672 -0.0036 -0.2539
vn 0.9840 0.1477 -0.1000
vn 0.2377 -0.9689 0.0687
vn -0.5946 0.4494 -0.6667
vn -0.2377 0.9689 -0.0687
vn 0.9099 -0.3109 -0.2745
vn 0.7211 -0.3726 -0.5841
vn 0.9022 -0.0213 -0.4308
vn -0.8093 0.3497 0.4719
vn -0.7211 0.3726 0.5841
vn -0.7153 -0.2155 0.6648
vn -0.6063 0.6798 0.4126
vn -0.9976 -0.0160 -0.0681
vn -0.3318 0.3841 -0.8616
vn 0.2808 0.5060 -0.8155
vn 0.7996 -0.3200 -0.5082
vn 0.6851 -0.1563 0.7115
vn 0.6099 0.3419 0.7149
vn 0.5739 0.1179 0.8104
vn 0.4505 0.4107 0.7927
vn 0.4060 0.5062 -0.7609
vn -0.2979 0.5498 -0.7804
vn -0.6600 -0.7293 0.1802
vn -0.6355 -0.4719 0.6110
vn -0.9158 0.2195 0.3363
vn -0.5942 -0.1373 -0.7926
vn 0.5942 0.1373 0.7925
vn -0.5145 -0.5951 -0.6174
vn -0.9316 -0.1265 -0.3409
vn -0.8504 0.1387 -0.5075
vn 0.8504 -0.1387 0.5075
vn -0.0361 -0.9955 -0.0871
vn 0.9722 0.0600 -0.2261
vn 0.9735 0.0862 -0.2118
vn -0.9722 -0.0600 0.2261
vn -0.9701 -0.0338 0.2403
vn -0.9735 0.0862 -0.2118
vn -0.9722 0.0600 -0.2261
vn -0.9701 0.0338 -0.2403
usemtl Material_000001
s 1
f 3/1/1 2/2/2 1/3/3
f 4/4/4 2/2/2 3/1/1
f 4/4/4 5/5/5 2/2/2
f 5/5/5 6/6/6 2/2/2
f 6/6/7 7/7/8 5/5/9
f 6/6/10 7/7/11 8/8/12
f 7/7/11 9/9/13 8/8/12
f 10/10/14 8/8/15 11/11/16
f 8/8/15 12/12/17 11/11/16
f 13/13/18 11/11/19 10/10/20
f 14/14/21 10/10/22 13/13/23
f 15/15/24 14/14/21 13/13/23
f 16/16/25 14/14/21 15/15/24
f 16/16/25 17/17/26 14/14/21
f 21/18/27 20/19/28 22/20/29
f 28/21/30 27/22/31 25/23/32
f 28/21/30 29/24/33 27/22/31
f 30/25/34 31/26/35 29/24/36
f 32/27/37 30/25/38 31/26/39
f 31/28/40 33/29/41 30/30/42
f 31/28/40 34/31/43 33/29/41
f 35/32/44 34/31/43 31/28/40
f 34/31/45 33/29/46 35/32/47
f 35/32/44 36/33/48 33/29/41
f 30/30/42 33/29/41 36/33/48
f 37/34/49 36/33/50 30/30/51
f 35/32/44 37/34/52 36/33/48
f 37/34/53 38/35/54 35/32/55
f 38/35/56 39/36/57 37/34/58
f 39/36/59 37/34/49 30/30/51
f 40/37/60 39/36/59 30/30/51
f 39/36/59 40/37/60 38/35/61
f 24/38/62 26/39/63 22/40/64
f 24/38/65 26/39/66 25/23/67
f 30/25/68 26/39/66 22/40/69
f 26/39/70 27/22/31 30/25/38
f 27/22/71 30/25/34 29/24/36
f 26/39/66 27/22/71 25/23/67
f 41/41/72 28/21/30 25/23/32
f 45/42/73 43/43/74 46/44/75
f 46/44/75 43/43/74 47/45/76
f 47/45/77 48/46/78 43/43/79
f 51/47/80 22/40/81 52/48/82
f 53/49/83 32/27/84 22/40/69
f 32/27/37 54/50/85 53/49/86
f 55/51/87 56/52/88 53/49/86
f 56/52/89 57/53/90 44/54/91
f 57/53/92 52/48/93 56/52/88
f 52/48/93 53/49/86 56/52/88
f 55/51/94 56/52/89 44/54/91
f 58/55/95 44/54/96 55/51/97
f 59/56/98 58/57/99 44/58/100
f 58/57/101 60/59/102 59/56/103
f 60/60/104 58/55/95 55/51/97
f 61/61/105 60/59/106 59/56/107
f 60/59/108 62/62/109 61/61/110
f 62/63/111 60/60/104 63/64/112
f 60/60/104 55/51/97 63/64/112
f 63/64/112 55/51/97 54/50/85
f 54/50/113 53/49/114 55/51/94
f 64/65/115 53/66/116 54/67/117
f 53/66/118 68/68/119 67/69/120
f 68/68/121 67/69/122 69/70/123
f 67/69/122 66/71/124 69/70/123
f 66/71/124 67/69/122 53/66/116
f 65/72/125 66/71/124 53/66/116
f 70/73/126 65/72/127 66/71/128
f 70/73/126 64/65/129 65/72/127
f 64/65/115 65/72/125 53/66/116
f 70/73/126 71/74/130 64/65/129
f 54/67/131 64/65/129 71/74/130
f 71/74/132 54/67/117 70/73/133
f 70/73/126 66/71/128 69/70/134
f 63/64/112 54/50/85 72/75/135
f 54/50/85 73/76/136 72/75/135
f 72/75/135 73/76/136 74/77/137
f 74/77/138 75/78/139 73/76/140
f 74/77/137 75/78/141 76/79/142
f 77/80/143 75/78/139 76/79/144
f 31/26/145 75/78/139 77/80/143
f 31/26/39 75/78/146 73/76/136
f 78/81/147 73/76/140 31/26/148
f 73/76/140 78/81/147 54/50/149
f 32/27/37 31/26/39 78/81/150
f 54/50/149 78/81/147 32/27/84
f 77/80/151 31/26/39 29/24/33
f 79/82/152 77/80/151 29/24/33
f 79/82/153 77/80/154 80/83/155
f 81/84/156 77/80/151 80/83/157
f 61/85/158 76/79/159 81/84/160
f 61/85/161 76/79/144 74/77/138
f 77/80/143 76/79/144 81/84/162
f 81/86/163 61/61/105 80/87/164
f 79/88/165 61/61/166 80/87/167
f 59/56/103 61/61/166 79/88/165
f 59/56/103 79/88/165 82/89/168
f 82/90/169 29/24/36 79/82/153
f 28/21/170 29/24/36 82/90/169
f 28/91/171 59/56/103 82/89/168
f 59/56/98 42/92/172 28/91/173
f 42/92/172 59/56/98 44/58/174
f 45/42/175 57/53/176 44/54/96
f 49/93/177 45/42/178 57/53/179
f 49/93/177 46/44/180 45/42/178
f 20/19/28 21/18/27 50/94/181
f 94/95/182 95/96/183 50/97/181
f 93/98/184 94/95/182 50/94/181
f 25/23/185 41/41/186 23/99/187
f 48/46/78 41/41/188 43/43/79
f 19/100/189 20/19/28 50/97/181
f 21/18/27 93/98/184 50/101/181
f 18/102/190 19/100/189 50/103/181
f 52/48/191 51/47/192 57/53/193
f 61/85/161 74/77/138 83/104/194
f 83/104/195 72/75/135 74/77/137
f 72/75/196 63/64/197 83/104/194
f 83/104/194 63/64/197 84/105/198
f 84/105/199 62/63/111 63/64/112
f 62/62/109 84/106/200 61/61/110
f 84/105/198 61/85/161 83/104/194
f 52/48/191 53/49/83 22/40/69
f 32/27/84 30/25/68 22/40/69
f 87/107/201 86/108/202 85/109/201
f 85/109/203 87/107/203 88/110/204
f 91/111/205 90/112/206 89/113/206
f 90/112/206 92/114/207 89/113/206
f 21/18/27 22/20/29 93/98/184
