# Blender v2.93.0 OBJ File: 'edif.blend'
# www.blender.org
mtllib malla.mtl
o malla_Plano.002
v 211.360962 40.902771 -36.016808
v 211.360962 40.902771 33.605640
v 211.360962 4.353975 -36.016808
v 211.360962 4.353975 33.605640
v 346.633850 40.902771 -97.989845
v 230.519073 40.902771 -55.315746
v 346.633850 4.353975 -97.989845
v 230.519073 4.353975 -55.315754
v 231.441528 40.902771 -56.294445
v 210.794510 40.902767 -34.873322
v 231.441528 4.353977 -56.294445
v 210.794510 4.353973 -34.873322
v 374.294861 40.902771 -122.622910
v 346.823456 40.902767 -97.946632
v 374.294861 4.353975 -122.622910
v 346.823456 4.353973 -97.946632
v 542.975708 40.902771 -123.404251
v 374.160339 40.902767 -123.089355
v 542.975708 4.353977 -123.404251
v 374.160339 4.353973 -123.089355
v 542.825256 40.902771 -123.635239
v 543.140198 40.902763 33.219536
v 542.825256 4.353979 -123.635239
v 543.140198 4.353975 33.219536
v 542.975708 40.902771 32.402058
v 211.061523 40.902767 32.716946
v 542.975708 4.353977 32.402058
v 211.061523 4.353973 32.716946
vt -57.624771 60.829651
vt -34.464149 104.949104
vt -57.624771 104.949104
vt -11.303132 104.949104
vt -34.463753 28.699314
vt -11.303132 28.699314
vt -30.428886 5.538694
vt -45.017464 28.699314
vt -45.017464 5.538694
vt -30.427937 28.699314
vt -11.302733 5.538694
vt -11.302733 28.699314
vt 35.018501 104.949104
vt 11.857885 -1.310519
vt 35.018501 -1.310519
vt -11.303132 5.552241
vt 11.857488 104.949104
vt -11.303132 104.949104
vt 58.179123 104.949104
vt 35.018501 -103.949104
vt 58.179123 -103.949104
vt -34.464149 60.829651
vt -34.463753 104.949104
vt -30.428886 28.699314
vt -30.427937 5.538694
vt 11.857885 104.949104
vt 11.857488 5.552241
vt 35.018501 104.949104
vn 1.0000 0.0000 0.0000
vn 0.3450 0.0000 0.9386
vn 0.7200 0.0000 0.6940
vn 0.6682 0.0000 0.7439
vn 0.0019 0.0000 1.0000
vn 1.0000 0.0000 -0.0020
vn 0.0009 0.0000 1.0000
usemtl Material.013
s off
f 2/1/1 3/2/1 1/3/1
f 6/4/2 7/5/2 5/6/2
f 10/7/3 11/8/3 9/9/3
f 14/10/4 15/11/4 13/12/4
f 18/13/5 19/14/5 17/15/5
f 22/16/6 23/17/6 21/18/6
f 26/19/7 27/20/7 25/21/7
f 2/1/1 4/22/1 3/2/1
f 6/4/2 8/23/2 7/5/2
f 10/7/3 12/24/3 11/8/3
f 14/10/4 16/25/4 15/11/4
f 18/13/5 20/26/5 19/14/5
f 22/16/6 24/27/6 23/17/6
f 26/19/7 28/28/7 27/20/7
