# Blender v2.93.0 OBJ File: 'objetos.blend'
# www.blender.org
mtllib ManoIzq.mtl
o ManoIzq_santa.001
v 0.691777 -0.483044 -0.860901
v 0.662029 -1.052423 -0.491261
v 0.647032 -0.999956 -0.949029
v 0.663550 -1.108442 -0.002644
v 0.747600 -0.551412 -0.413164
v 0.748314 -0.609985 0.058589
v 0.568882 -1.635654 -0.069611
v 0.567724 -1.574112 -0.583494
v 0.520012 -1.506456 -1.057916
v -0.342065 -0.304064 -0.832636
v -0.570038 -0.846274 -0.463801
v -0.484463 -0.345262 -0.385699
v -0.664343 -1.367960 -0.556034
v -0.475061 -0.812206 -0.924016
v -0.514019 -1.333442 -1.034864
v -0.718903 -1.420181 -0.040906
v -0.624236 -0.892970 0.026064
v -0.539471 -0.394509 0.087296
v 0.518749 -0.669417 -1.638306
v 0.339299 -0.875880 -1.902921
v 0.403282 -0.555930 -1.738629
v 0.433517 -1.168668 -1.714624
v 0.507667 -0.921105 -1.759081
v 0.066072 -1.183060 -1.849259
v 0.290722 -1.216162 -1.832392
v 0.182069 -0.502644 -1.752824
v 0.123149 -0.832492 -1.920089
v 0.247292 -3.321662 -0.812274
v 0.056902 -3.179792 -1.184521
v 0.212399 -3.118534 -1.085868
v 0.237132 -3.471065 -0.329846
v 0.017437 -3.474816 -0.824618
v -0.286780 -3.489007 -0.829168
v -0.003975 -3.631074 -0.346123
v -0.322761 -3.646241 -0.343753
v -0.225311 -3.188804 -1.194033
v 0.289257 -3.058122 0.715916
v 0.059097 -3.403874 0.595987
v 0.214679 -3.318302 0.515961
v 0.336722 -2.635308 0.869634
v 0.092787 -3.065772 0.886691
v -0.132953 -2.623368 1.081796
v 0.140707 -2.638544 1.057584
v -0.181638 -3.065214 0.907396
v -0.223083 -3.416044 0.611584
v 0.419595 -2.176083 0.946384
v 0.575307 -1.674247 0.508416
v 0.516412 -1.690510 0.977266
v 0.475742 -2.174217 0.462159
v 0.467422 -2.143734 -0.139786
v 0.391122 -2.653029 0.390836
v 0.382020 -2.633944 -0.210544
v -0.599841 -1.803711 -1.054401
v -0.679253 -2.242542 -1.150874
v -0.762576 -1.852659 -0.657019
v -0.820368 -1.928259 -0.111081
v -0.846045 -2.326569 -0.740366
v -0.907348 -2.431452 -0.183494
v 0.408569 -1.972442 -1.076881
v 0.277527 -1.590256 -1.220546
v 0.330391 -2.401104 -1.172056
v 0.211277 -1.937631 -1.221936
v -0.061538 -1.909681 -1.229509
v 0.133335 -2.365375 -1.323751
v -0.140431 -2.346348 -1.333131
v 0.012152 -1.558408 -1.228231
v 0.411612 -1.177664 1.170599
v 0.321597 -1.685047 1.163601
v 0.490565 -0.699032 1.174561
v 0.605705 -1.188669 0.993371
v 0.680905 -0.717304 1.004001
v 0.223970 -0.649141 1.202126
v 0.141352 -1.138739 1.195114
v 0.050134 -1.653447 1.189264
v -0.403821 -1.152928 -1.452584
v -0.283083 -0.447118 -1.334021
v -0.229665 -0.544195 -1.621619
v -0.412131 -0.789490 -1.383749
v -0.314901 -1.043442 -1.697944
v -0.314501 -0.783538 -1.740756
v -0.066468 -0.204064 -0.946029
v 0.214619 -0.247166 -0.966657
v -0.059026 -0.342988 -1.339342
v -0.064641 -0.477635 -1.728196
v 0.205927 -0.374333 -1.360206
v 0.605079 -0.595725 -1.353819
v 0.484339 -1.301535 -1.472382
v 0.602909 -0.959325 -1.406376
v 0.287072 -1.402030 -1.514479
v 0.041880 -1.370618 -1.526726
v 0.745642 -0.674817 0.582678
v 0.667227 -1.159727 0.547261
v -0.656761 -1.468097 0.535884
v -0.402708 -1.019942 1.015846
v -0.492000 -1.521782 0.999744
v -0.320726 -0.536846 1.038571
v -0.564843 -0.953577 0.574726
v -0.482458 -0.466345 0.613286
v 0.018377 -3.599868 0.156232
v 0.248480 -3.446614 0.178939
v -0.285823 -3.615823 0.165519
v 0.335529 -3.107536 -0.279271
v 0.342064 -2.972369 -0.800831
v 0.387537 -2.520297 -0.766249
v 0.285754 -2.825712 -1.185544
v -0.838643 -3.340752 0.193477
v -0.958573 -2.943993 -0.257183
v -0.899153 -3.360413 -0.314646
v -0.707038 -3.220930 0.529262
v -0.894066 -2.947612 0.297919
v -0.842463 -2.459297 0.416721
v -0.724106 -2.930055 0.733212
v -0.672931 -2.476745 0.890816
v 0.224137 -2.175152 1.137909
v -0.048496 -2.150557 1.163619
v 0.344044 -3.104082 0.276781
v -0.727601 -2.697644 -1.168249
v -0.709319 -3.021159 -1.072569
v -0.896049 -2.815901 -0.779694
v -0.839834 -3.215799 -0.797731
v 0.088707 -2.794703 -1.331086
v -0.185773 -2.790322 -1.341666
v 0.469492 -2.058809 -0.684479
v -0.756333 -1.968064 0.489626
v -0.588815 -2.007355 0.968867
v 0.807954 -0.130840 -0.359744
v 0.818539 -0.189077 0.110316
v 0.724062 -0.069967 -0.694834
v 0.868079 0.243864 -0.320009
v 0.765442 0.305079 -0.662357
v 0.881472 0.184231 0.149648
v 0.477939 -0.304884 -0.967029
v 0.524722 -0.000097 -0.807297
v 0.562724 0.395128 -0.764889
v 0.256895 0.066382 -0.799454
v 0.305277 0.485048 -0.738164
v -0.271056 0.126326 -0.644696
v -0.417448 0.093550 -0.314584
v -0.394211 0.422483 0.201533
v -0.467518 0.030573 0.143133
v -0.343036 0.488349 -0.253364
v -0.201753 0.548239 -0.563664
v -0.406013 -0.040176 0.667256
v -0.325428 0.345577 0.722413
v -0.234833 -0.117111 1.084174
v -0.126477 0.266850 1.143531
v -0.065265 -0.596856 1.195626
v 0.024734 -0.175809 1.234476
v 0.145092 0.204321 1.287381
v 0.313947 -0.228102 1.235551
v 0.434119 0.145408 1.278293
v 0.759612 -0.316239 1.031384
v 0.813879 -0.270132 0.615706
v 0.897384 0.080630 0.641411
v 0.858034 0.033798 1.058536
v -0.115431 -0.799796 -1.892781
v -0.177206 -1.137871 -1.821959
v -0.604640 -3.421421 -0.817216
v -0.654186 -3.575261 -0.338383
v -0.522288 -3.124367 -1.176898
v -0.470278 -2.994614 0.896304
v -0.420293 -2.550442 1.069359
v -0.520091 -3.348452 0.603609
v -0.427671 -2.277270 -1.311981
v -0.349038 -1.843879 -1.209446
v -0.269588 -1.498714 -1.208351
v -0.148703 -1.083914 1.183089
v -0.238715 -1.591295 1.176091
v 0.449112 -0.429658 -1.351994
v -0.220453 -1.317111 -1.503166
v -0.603703 -3.546474 0.163637
v -0.336173 -2.081400 1.150396
v -0.474360 -2.723540 -1.321479
v -0.027051 0.113288 -0.775369
v 0.031197 0.543285 -0.697069
v 0.576002 -0.288462 1.203039
v 0.686242 0.072338 1.236316
vt 0.400787 0.316829
vt 0.400787 0.316829
vt 0.400787 0.316829
vt 0.400787 0.316829
vt 0.400787 0.316829
vt 0.400787 0.316829
vt 0.400787 0.316829
vt 0.400787 0.316829
vt 0.400787 0.316829
vt 0.400787 0.316829
vt 0.400787 0.316829
vt 0.400787 0.316829
vt 0.400787 0.316829
vt 0.400787 0.316829
vt 0.400787 0.316829
vt 0.400787 0.316829
vt 0.400787 0.316829
vt 0.400787 0.316829
vt 0.400787 0.316829
vt 0.400787 0.316829
vt 0.400787 0.316829
vt 0.400787 0.316829
vt 0.400788 0.316829
vt 0.400788 0.316829
vt 0.400787 0.316829
vt 0.400787 0.316829
vt 0.400788 0.316829
vt 0.400787 0.316829
vt 0.400787 0.316829
vt 0.400787 0.316829
vt 0.400788 0.316829
vt 0.400788 0.316829
vt 0.400787 0.316829
vt 0.400787 0.316829
vt 0.400787 0.316829
vt 0.400787 0.316829
vt 0.400787 0.316829
vt 0.400787 0.316829
vt 0.400787 0.316829
vt 0.400787 0.316829
vt 0.400787 0.316829
vt 0.400787 0.316829
vt 0.400787 0.316829
vt 0.400787 0.316829
vt 0.400787 0.316829
vt 0.400787 0.316829
vt 0.400787 0.316829
vt 0.400787 0.316829
vt 0.400787 0.316829
vt 0.400787 0.316829
vt 0.400787 0.316829
vt 0.400787 0.316829
vt 0.400787 0.316829
vt 0.400787 0.316829
vt 0.400787 0.316829
vt 0.400787 0.316829
vt 0.400787 0.316829
vt 0.400787 0.316829
vt 0.400787 0.316829
vt 0.400787 0.316829
vt 0.400787 0.316829
vt 0.400787 0.316829
vt 0.400788 0.316829
vt 0.400787 0.316829
vt 0.400787 0.316829
vt 0.400787 0.316829
vt 0.400787 0.316829
vt 0.400787 0.316829
vt 0.400787 0.316829
vt 0.400787 0.316829
vt 0.400787 0.316829
vt 0.400788 0.316829
vt 0.400788 0.316829
vt 0.400787 0.316829
vt 0.400787 0.316829
vt 0.400787 0.316829
vt 0.400787 0.316829
vt 0.400787 0.316829
vt 0.400787 0.316829
vt 0.400787 0.316829
vt 0.400787 0.316829
vt 0.400788 0.316829
vt 0.400787 0.316829
vt 0.400787 0.316829
vt 0.400788 0.316829
vt 0.400787 0.316829
vt 0.400787 0.316829
vt 0.400787 0.316829
vt 0.400787 0.316829
vt 0.400787 0.316829
vt 0.400787 0.316829
vt 0.400787 0.316829
vt 0.400787 0.316829
vt 0.400787 0.316829
vt 0.400788 0.316829
vt 0.400788 0.316829
vt 0.400787 0.316829
vt 0.400787 0.316829
vt 0.400788 0.316829
vt 0.400787 0.316829
vt 0.400787 0.316829
vt 0.400787 0.316829
vt 0.400787 0.316829
vt 0.400787 0.316829
vt 0.400787 0.316829
vt 0.400787 0.316829
vt 0.400787 0.316829
vt 0.400788 0.316829
vt 0.400787 0.316829
vt 0.400787 0.316829
vt 0.400787 0.316829
vt 0.400787 0.316829
vt 0.400787 0.316829
vt 0.400787 0.316829
vt 0.400787 0.316829
vt 0.400787 0.316829
vt 0.400787 0.316829
vt 0.400787 0.316829
vt 0.400787 0.316829
vt 0.400787 0.316829
vt 0.400787 0.316829
vt 0.400787 0.316829
vt 0.400788 0.316829
vt 0.400787 0.316829
vt 0.400787 0.316829
vt 0.400787 0.316829
vt 0.400787 0.316829
vt 0.400787 0.316829
vt 0.400787 0.316829
vt 0.400787 0.316829
vt 0.400787 0.316829
vt 0.400787 0.316829
vt 0.400787 0.316829
vt 0.400787 0.316829
vt 0.400787 0.316829
vt 0.400788 0.316829
vt 0.400787 0.316829
vt 0.400787 0.316829
vt 0.400787 0.316829
vt 0.400787 0.316829
vt 0.400787 0.316829
vt 0.400787 0.316829
vt 0.400787 0.316829
vt 0.400787 0.316829
vt 0.400787 0.316829
vt 0.400787 0.316829
vt 0.400788 0.316829
vt 0.400787 0.316829
vt 0.400787 0.316829
vt 0.400787 0.316829
vt 0.400787 0.316829
vt 0.400787 0.316829
vt 0.400787 0.316829
vt 0.400787 0.316829
vt 0.400787 0.316829
vt 0.400787 0.316829
vt 0.400787 0.316829
vt 0.400787 0.316829
vt 0.400787 0.316829
vt 0.400787 0.316829
vt 0.400787 0.316829
vt 0.400788 0.316829
vt 0.400787 0.316829
vt 0.400787 0.316829
vt 0.400787 0.316829
vt 0.400787 0.316829
vt 0.400787 0.316829
vt 0.400787 0.316829
vt 0.400787 0.316829
vt 0.400787 0.316829
vt 0.400787 0.316829
vt 0.400787 0.316829
vt 0.400787 0.316829
vt 0.400787 0.316829
vt 0.400787 0.316829
vt 0.400787 0.316829
vt 0.400787 0.316829
vn 0.9448 0.1407 -0.2961
vn 0.9870 -0.1542 -0.0449
vn 0.9874 -0.1441 -0.0648
vn 0.9854 -0.1688 -0.0215
vn 0.9886 -0.1310 -0.0742
vn 0.9867 -0.1611 -0.0212
vn 0.9827 -0.1834 -0.0236
vn 0.9779 -0.1899 -0.0879
vn 0.8932 -0.3095 -0.3261
vn -0.8159 0.4354 -0.3804
vn -0.9678 0.2058 -0.1448
vn -0.9638 0.1727 -0.2030
vn -0.9582 0.2108 -0.1936
vn -0.9652 0.1669 -0.2012
vn -0.9023 0.0229 -0.4304
vn -0.9825 0.1855 0.0173
vn -0.9850 0.1722 0.0136
vn -0.9864 0.1636 0.0169
vn 0.8629 0.2830 -0.4187
vn 0.3789 0.0586 -0.9236
vn 0.5362 0.5859 -0.6076
vn 0.7339 -0.4615 -0.4985
vn 0.8199 -0.0808 -0.5668
vn -0.1086 -0.5631 -0.8192
vn 0.2948 -0.5611 -0.7735
vn 0.1141 0.7442 -0.6581
vn 0.0054 0.1373 -0.9905
vn 0.7928 -0.5284 -0.3039
vn 0.3397 -0.5594 -0.7561
vn 0.7522 -0.4183 -0.5091
vn 0.7925 -0.6048 -0.0786
vn 0.2894 -0.8502 -0.4398
vn -0.0802 -0.8731 -0.4809
vn 0.2974 -0.9472 -0.1199
vn -0.0879 -0.9883 -0.1244
vn -0.0587 -0.5831 -0.8103
vn 0.8232 -0.3879 0.4146
vn 0.3432 -0.7662 0.5433
vn 0.7585 -0.5555 0.3408
vn 0.8598 -0.2507 0.4449
vn 0.3348 -0.5039 0.7962
vn -0.0203 -0.2730 0.9618
vn 0.3712 -0.3027 0.8778
vn -0.0430 -0.5120 0.8579
vn -0.0596 -0.7967 0.6014
vn 0.8739 -0.2122 0.4374
vn 0.9809 -0.1890 0.0466
vn 0.8770 -0.1826 0.4445
vn 0.9805 -0.1907 0.0467
vn 0.9833 -0.1803 -0.0230
vn 0.9866 -0.1552 0.0507
vn 0.9912 -0.1310 -0.0180
vn -0.7595 0.2069 -0.6168
vn -0.7501 0.1935 -0.6323
vn -0.9522 0.2224 -0.2095
vn -0.9835 0.1799 0.0206
vn -0.9634 0.1533 -0.2197
vn -0.9914 0.1298 0.0156
vn 0.8437 -0.0964 -0.5280
vn 0.3540 -0.4762 -0.8049
vn 0.8401 -0.0544 -0.5397
vn 0.3368 0.0473 -0.9404
vn -0.0007 0.1233 -0.9924
vn 0.3311 0.0772 -0.9404
vn -0.0014 0.1193 -0.9929
vn -0.0943 -0.4645 -0.8805
vn 0.3998 -0.0833 0.9128
vn 0.4101 -0.1060 0.9059
vn 0.3882 -0.1081 0.9152
vn 0.8736 -0.1593 0.4598
vn 0.8687 -0.1773 0.4625
vn 0.0302 -0.0538 0.9981
vn 0.0231 -0.0177 0.9996
vn 0.0195 -0.0360 0.9992
vn -0.8582 -0.2972 -0.4185
vn -0.7127 0.6206 -0.3271
vn -0.6830 0.6040 -0.4109
vn -0.9600 0.1969 -0.1993
vn -0.8266 -0.2176 -0.5189
vn -0.7872 0.2241 -0.5745
vn -0.2305 0.7445 -0.6266
vn 0.1106 0.7552 -0.6461
vn -0.1702 0.9266 -0.3353
vn -0.2955 0.7525 -0.5886
vn 0.1452 0.9371 -0.3174
vn 0.8741 0.3744 -0.3095
vn 0.7583 -0.5051 -0.4121
vn 0.9711 -0.1343 -0.1972
vn 0.2187 -0.8249 -0.5212
vn -0.1491 -0.8409 -0.5203
vn 0.9837 -0.1716 0.0539
vn 0.9840 -0.1702 0.0520
vn -0.9579 0.1618 0.2372
vn -0.7673 0.1095 0.6319
vn -0.7747 0.1200 0.6208
vn -0.7609 0.0875 0.6430
vn -0.9580 0.1492 0.2450
vn -0.9588 0.1384 0.2481
vn 0.2952 -0.9337 0.2026
vn 0.7970 -0.5872 0.1415
vn -0.0813 -0.9664 0.2438
vn 0.9829 -0.1824 -0.0241
vn 0.9737 -0.1839 -0.1347
vn 0.9872 -0.1269 -0.0971
vn 0.8138 -0.2189 -0.5383
vn -0.8221 -0.4888 0.2919
vn -0.9996 -0.0277 -0.0031
vn -0.8715 -0.4863 -0.0625
vn -0.7224 -0.4810 0.4967
vn -0.9640 -0.0886 0.2508
vn -0.9702 0.0848 0.2269
vn -0.7867 -0.2524 0.5633
vn -0.7984 -0.0393 0.6008
vn 0.4006 -0.1753 0.8993
vn 0.0056 -0.1148 0.9934
vn 0.9726 -0.2187 0.0786
vn -0.7559 -0.0621 -0.6518
vn -0.7136 -0.3000 -0.6331
vn -0.9621 -0.0115 -0.2726
vn -0.8245 -0.3940 -0.4062
vn 0.3035 -0.1865 -0.9344
vn -0.0349 -0.1715 -0.9846
vn 0.9804 -0.1662 -0.1057
vn -0.9614 0.1511 0.2302
vn -0.7860 0.0833 0.6126
vn 0.9795 -0.1338 -0.1504
vn 0.9851 -0.1679 -0.0382
vn 0.8319 0.0627 -0.5513
vn 0.9776 -0.1279 -0.1674
vn 0.7485 -0.0154 -0.6630
vn 0.9858 -0.1586 -0.0546
vn 0.4700 0.6321 -0.6161
vn 0.3067 0.2450 -0.9197
vn 0.1846 0.1023 -0.9775
vn 0.0019 0.3032 -0.9529
vn -0.0715 0.1653 -0.9836
vn -0.7069 0.3179 -0.6318
vn -0.9512 0.1999 -0.2351
vn -0.9824 0.1840 0.0322
vn -0.9846 0.1729 0.0251
vn -0.9485 0.2128 -0.2347
vn -0.7189 0.2358 -0.6539
vn -0.9518 0.1500 0.2675
vn -0.9410 0.1686 0.2935
vn -0.7421 0.0869 0.6647
vn -0.6981 0.0971 0.7094
vn -0.2873 -0.0042 0.9578
vn -0.2739 -0.0406 0.9609
vn -0.2249 -0.0561 0.9728
vn 0.0382 -0.1106 0.9931
vn 0.0618 -0.1257 0.9901
vn 0.8620 -0.2386 0.4473
vn 0.9779 -0.2058 0.0359
vn 0.9759 -0.2179 0.0079
vn 0.8714 -0.2667 0.4117
vn -0.3437 0.1816 -0.9214
vn -0.4723 -0.4869 -0.7348
vn -0.4122 -0.7735 -0.4814
vn -0.4513 -0.8852 -0.1127
vn -0.3810 -0.5037 -0.7754
vn -0.3665 -0.4256 0.8274
vn -0.3671 -0.1894 0.9107
vn -0.3909 -0.6895 0.6098
vn -0.2879 0.1678 -0.9429
vn -0.2850 0.1671 -0.9438
vn -0.4528 -0.3354 -0.8261
vn -0.3002 0.0321 0.9533
vn -0.3108 0.0272 0.9501
vn 0.4918 0.8086 -0.3230
vn -0.4545 -0.7288 -0.5121
vn -0.4223 -0.8664 0.2666
vn -0.3365 -0.0414 0.9408
vn -0.3170 -0.1152 -0.9414
vn -0.2472 0.3497 -0.9037
vn -0.3051 0.2105 -0.9288
vn 0.3851 -0.1761 0.9059
vn 0.4110 -0.1991 0.8896
usemtl colores.005
s 1
f 1/1/1 2/2/2 3/3/3
f 4/4/4 5/5/5 6/6/6
f 7/7/7 2/2/2 4/4/4
f 3/3/3 8/8/8 9/9/9
f 10/10/10 11/11/11 12/12/12
f 13/13/13 14/14/14 15/15/15
f 16/16/16 11/11/11 13/13/13
f 12/12/12 17/17/17 18/18/18
f 19/19/19 20/20/20 21/21/21
f 22/22/22 20/20/20 23/23/23
f 24/24/24 20/20/20 25/25/25
f 26/26/26 20/20/20 27/27/27
f 28/28/28 29/29/29 30/30/30
f 31/31/31 32/32/32 28/28/28
f 33/33/33 34/34/34 35/35/35
f 36/36/36 32/32/32 33/33/33
f 37/37/37 38/38/38 39/39/39
f 40/40/40 41/41/41 37/37/37
f 42/42/42 41/41/41 43/43/43
f 38/38/38 44/44/44 45/45/45
f 46/46/46 47/47/47 48/48/48
f 40/40/40 49/49/49 46/46/46
f 50/50/50 51/51/51 52/52/52
f 7/7/7 49/49/49 50/50/50
f 53/53/53 13/13/13 15/15/15
f 54/54/54 55/55/55 53/53/53
f 56/56/56 57/57/57 58/58/58
f 13/13/13 56/56/56 16/16/16
f 59/59/59 60/60/60 9/9/9
f 61/61/61 62/62/62 59/59/59
f 63/63/63 64/64/64 65/65/65
f 66/66/66 62/62/62 63/63/63
f 48/48/48 67/67/67 68/68/68
f 69/69/69 70/70/70 71/71/71
f 72/72/72 67/67/67 69/69/69
f 68/68/68 73/73/73 74/74/74
f 14/14/14 75/75/75 15/15/15
f 76/76/76 14/14/14 10/10/10
f 77/77/77 78/78/78 76/76/76
f 79/79/79 78/78/78 80/80/80
f 81/81/81 76/76/76 10/10/10
f 82/82/82 83/83/83 81/81/81
f 84/84/84 85/85/85 26/26/26
f 77/77/77 83/83/83 84/84/84
f 3/3/3 86/86/86 1/1/1
f 87/87/87 3/3/3 9/9/9
f 22/22/22 88/88/88 87/87/87
f 19/19/19 88/88/88 23/23/23
f 60/60/60 87/87/87 9/9/9
f 66/66/66 89/89/89 60/60/60
f 25/25/25 90/90/90 24/24/24
f 22/22/22 89/89/89 25/25/25
f 91/91/91 4/4/4 6/6/6
f 71/71/71 92/92/92 91/91/91
f 47/47/47 70/70/70 48/48/48
f 4/4/4 47/47/47 7/7/7
f 93/93/93 17/17/17 16/16/16
f 94/94/94 93/93/93 95/95/95
f 96/96/96 97/97/97 94/94/94
f 17/17/17 98/98/98 18/18/18
f 31/31/31 99/99/99 34/34/34
f 38/38/38 100/100/100 39/39/39
f 45/45/45 99/99/99 38/38/38
f 34/34/34 101/101/101 35/35/35
f 28/28/28 102/102/102 31/31/31
f 30/30/30 103/103/103 28/28/28
f 104/104/104 105/105/105 61/61/61
f 52/52/52 103/103/103 104/104/104
f 106/106/106 107/107/107 108/108/108
f 109/109/109 110/110/110 106/106/106
f 111/111/111 112/112/112 113/113/113
f 58/58/58 110/110/110 111/111/111
f 40/40/40 114/114/114 43/43/43
f 68/68/68 46/46/46 48/48/48
f 74/74/74 114/114/114 68/68/68
f 43/43/43 115/115/115 42/42/42
f 37/37/37 51/51/51 40/40/40
f 39/39/39 116/116/116 37/37/37
f 102/102/102 100/100/100 31/31/31
f 52/52/52 116/116/116 102/102/102
f 117/117/117 57/57/57 54/54/54
f 118/118/118 119/119/119 117/117/117
f 107/107/107 120/120/120 108/108/108
f 58/58/58 119/119/119 107/107/107
f 61/61/61 121/121/121 64/64/64
f 30/30/30 121/121/121 105/105/105
f 122/122/122 29/29/29 36/36/36
f 65/65/65 121/121/121 122/122/122
f 61/61/61 123/123/123 104/104/104
f 8/8/8 59/59/59 9/9/9
f 50/50/50 8/8/8 7/7/7
f 104/104/104 50/50/50 52/52/52
f 113/113/113 124/124/124 111/111/111
f 93/93/93 125/125/125 95/95/95
f 16/16/16 124/124/124 93/93/93
f 111/111/111 56/56/56 58/58/58
f 6/6/6 126/126/126 127/127/127
f 128/128/128 5/5/5 1/1/1
f 129/129/129 128/128/128 130/130/130
f 131/131/131 126/126/126 129/129/129
f 132/132/132 128/128/128 1/1/1
f 82/82/82 133/133/133 132/132/132
f 134/134/134 135/135/135 136/136/136
f 130/130/130 133/133/133 134/134/134
f 12/12/12 137/137/137 10/10/10
f 18/18/18 138/138/138 12/12/12
f 139/139/139 138/138/138 140/140/140
f 137/137/137 141/141/141 142/142/142
f 98/98/98 140/140/140 18/18/18
f 96/96/96 143/143/143 98/98/98
f 144/144/144 145/145/145 146/146/146
f 139/139/139 143/143/143 144/144/144
f 147/147/147 145/145/145 96/96/96
f 72/72/72 148/148/148 147/147/147
f 149/149/149 150/150/150 151/151/151
f 146/146/146 148/148/148 149/149/149
f 91/91/91 152/152/152 71/71/71
f 6/6/6 153/153/153 91/91/91
f 154/154/154 127/127/127 131/131/131
f 155/155/155 153/153/153 154/154/154
f 24/24/24 156/156/156 27/27/27
f 79/79/79 156/156/156 157/157/157
f 77/77/77 156/156/156 80/80/80
f 26/26/26 156/156/156 84/84/84
f 35/35/35 158/158/158 33/33/33
f 108/108/108 158/158/158 159/159/159
f 118/118/118 158/158/158 120/120/120
f 33/33/33 160/160/160 36/36/36
f 42/42/42 161/161/161 44/44/44
f 113/113/113 161/161/161 162/162/162
f 109/109/109 161/161/161 112/112/112
f 44/44/44 163/163/163 45/45/45
f 164/164/164 63/63/63 65/65/65
f 54/54/54 165/165/165 164/164/164
f 166/166/166 53/53/53 15/15/15
f 66/66/66 165/165/165 166/166/166
f 72/72/72 167/167/167 73/73/73
f 94/94/94 147/147/147 96/96/96
f 95/95/95 167/167/167 94/94/94
f 73/73/73 168/168/168 74/74/74
f 132/132/132 85/85/85 82/82/82
f 86/86/86 132/132/132 1/1/1
f 19/19/19 169/169/169 86/86/86
f 85/85/85 21/21/21 26/26/26
f 66/66/66 170/170/170 90/90/90
f 75/75/75 166/166/166 15/15/15
f 79/79/79 170/170/170 75/75/75
f 90/90/90 157/157/157 24/24/24
f 163/163/163 101/101/101 45/45/45
f 109/109/109 171/171/171 163/163/163
f 108/108/108 171/171/171 106/106/106
f 35/35/35 171/171/171 159/159/159
f 74/74/74 172/172/172 115/115/115
f 125/125/125 168/168/168 95/95/95
f 162/162/162 125/125/125 113/113/113
f 115/115/115 162/162/162 42/42/42
f 160/160/160 122/122/122 36/36/36
f 118/118/118 173/173/173 160/160/160
f 164/164/164 117/117/117 54/54/54
f 65/65/65 173/173/173 164/164/164
f 81/81/81 135/135/135 82/82/82
f 137/137/137 81/81/81 10/10/10
f 142/142/142 174/174/174 137/137/137
f 136/136/136 174/174/174 175/175/175
f 72/72/72 176/176/176 150/150/150
f 71/71/71 176/176/176 69/69/69
f 177/177/177 152/152/152 155/155/155
f 151/151/151 176/176/176 177/177/177
f 1/1/1 5/5/5 2/2/2
f 4/4/4 2/2/2 5/5/5
f 7/7/7 8/8/8 2/2/2
f 3/3/3 2/2/2 8/8/8
f 10/10/10 14/14/14 11/11/11
f 13/13/13 11/11/11 14/14/14
f 16/16/16 17/17/17 11/11/11
f 12/12/12 11/11/11 17/17/17
f 19/19/19 23/23/23 20/20/20
f 22/22/22 25/25/25 20/20/20
f 24/24/24 27/27/27 20/20/20
f 26/26/26 21/21/21 20/20/20
f 28/28/28 32/32/32 29/29/29
f 31/31/31 34/34/34 32/32/32
f 33/33/33 32/32/32 34/34/34
f 36/36/36 29/29/29 32/32/32
f 37/37/37 41/41/41 38/38/38
f 40/40/40 43/43/43 41/41/41
f 42/42/42 44/44/44 41/41/41
f 38/38/38 41/41/41 44/44/44
f 46/46/46 49/49/49 47/47/47
f 40/40/40 51/51/51 49/49/49
f 50/50/50 49/49/49 51/51/51
f 7/7/7 47/47/47 49/49/49
f 53/53/53 55/55/55 13/13/13
f 54/54/54 57/57/57 55/55/55
f 56/56/56 55/55/55 57/57/57
f 13/13/13 55/55/55 56/56/56
f 59/59/59 62/62/62 60/60/60
f 61/61/61 64/64/64 62/62/62
f 63/63/63 62/62/62 64/64/64
f 66/66/66 60/60/60 62/62/62
f 48/48/48 70/70/70 67/67/67
f 69/69/69 67/67/67 70/70/70
f 72/72/72 73/73/73 67/67/67
f 68/68/68 67/67/67 73/73/73
f 14/14/14 78/78/78 75/75/75
f 76/76/76 78/78/78 14/14/14
f 77/77/77 80/80/80 78/78/78
f 79/79/79 75/75/75 78/78/78
f 81/81/81 83/83/83 76/76/76
f 82/82/82 85/85/85 83/83/83
f 84/84/84 83/83/83 85/85/85
f 77/77/77 76/76/76 83/83/83
f 3/3/3 88/88/88 86/86/86
f 87/87/87 88/88/88 3/3/3
f 22/22/22 23/23/23 88/88/88
f 19/19/19 86/86/86 88/88/88
f 60/60/60 89/89/89 87/87/87
f 66/66/66 90/90/90 89/89/89
f 25/25/25 89/89/89 90/90/90
f 22/22/22 87/87/87 89/89/89
f 91/91/91 92/92/92 4/4/4
f 71/71/71 70/70/70 92/92/92
f 47/47/47 92/92/92 70/70/70
f 4/4/4 92/92/92 47/47/47
f 93/93/93 97/97/97 17/17/17
f 94/94/94 97/97/97 93/93/93
f 96/96/96 98/98/98 97/97/97
f 17/17/17 97/97/97 98/98/98
f 31/31/31 100/100/100 99/99/99
f 38/38/38 99/99/99 100/100/100
f 45/45/45 101/101/101 99/99/99
f 34/34/34 99/99/99 101/101/101
f 28/28/28 103/103/103 102/102/102
f 30/30/30 105/105/105 103/103/103
f 104/104/104 103/103/103 105/105/105
f 52/52/52 102/102/102 103/103/103
f 106/106/106 110/110/110 107/107/107
f 109/109/109 112/112/112 110/110/110
f 111/111/111 110/110/110 112/112/112
f 58/58/58 107/107/107 110/110/110
f 40/40/40 46/46/46 114/114/114
f 68/68/68 114/114/114 46/46/46
f 74/74/74 115/115/115 114/114/114
f 43/43/43 114/114/114 115/115/115
f 37/37/37 116/116/116 51/51/51
f 39/39/39 100/100/100 116/116/116
f 102/102/102 116/116/116 100/100/100
f 52/52/52 51/51/51 116/116/116
f 117/117/117 119/119/119 57/57/57
f 118/118/118 120/120/120 119/119/119
f 107/107/107 119/119/119 120/120/120
f 58/58/58 57/57/57 119/119/119
f 61/61/61 105/105/105 121/121/121
f 30/30/30 29/29/29 121/121/121
f 122/122/122 121/121/121 29/29/29
f 65/65/65 64/64/64 121/121/121
f 61/61/61 59/59/59 123/123/123
f 8/8/8 123/123/123 59/59/59
f 50/50/50 123/123/123 8/8/8
f 104/104/104 123/123/123 50/50/50
f 113/113/113 125/125/125 124/124/124
f 93/93/93 124/124/124 125/125/125
f 16/16/16 56/56/56 124/124/124
f 111/111/111 124/124/124 56/56/56
f 6/6/6 5/5/5 126/126/126
f 128/128/128 126/126/126 5/5/5
f 129/129/129 126/126/126 128/128/128
f 131/131/131 127/127/127 126/126/126
f 132/132/132 133/133/133 128/128/128
f 82/82/82 135/135/135 133/133/133
f 134/134/134 133/133/133 135/135/135
f 130/130/130 128/128/128 133/133/133
f 12/12/12 138/138/138 137/137/137
f 18/18/18 140/140/140 138/138/138
f 139/139/139 141/141/141 138/138/138
f 137/137/137 138/138/138 141/141/141
f 98/98/98 143/143/143 140/140/140
f 96/96/96 145/145/145 143/143/143
f 144/144/144 143/143/143 145/145/145
f 139/139/139 140/140/140 143/143/143
f 147/147/147 148/148/148 145/145/145
f 72/72/72 150/150/150 148/148/148
f 149/149/149 148/148/148 150/150/150
f 146/146/146 145/145/145 148/148/148
f 91/91/91 153/153/153 152/152/152
f 6/6/6 127/127/127 153/153/153
f 154/154/154 153/153/153 127/127/127
f 155/155/155 152/152/152 153/153/153
f 24/24/24 157/157/157 156/156/156
f 79/79/79 80/80/80 156/156/156
f 77/77/77 84/84/84 156/156/156
f 26/26/26 27/27/27 156/156/156
f 35/35/35 159/159/159 158/158/158
f 108/108/108 120/120/120 158/158/158
f 118/118/118 160/160/160 158/158/158
f 33/33/33 158/158/158 160/160/160
f 42/42/42 162/162/162 161/161/161
f 113/113/113 112/112/112 161/161/161
f 109/109/109 163/163/163 161/161/161
f 44/44/44 161/161/161 163/163/163
f 164/164/164 165/165/165 63/63/63
f 54/54/54 53/53/53 165/165/165
f 166/166/166 165/165/165 53/53/53
f 66/66/66 63/63/63 165/165/165
f 72/72/72 147/147/147 167/167/167
f 94/94/94 167/167/167 147/147/147
f 95/95/95 168/168/168 167/167/167
f 73/73/73 167/167/167 168/168/168
f 132/132/132 169/169/169 85/85/85
f 86/86/86 169/169/169 132/132/132
f 19/19/19 21/21/21 169/169/169
f 85/85/85 169/169/169 21/21/21
f 66/66/66 166/166/166 170/170/170
f 75/75/75 170/170/170 166/166/166
f 79/79/79 157/157/157 170/170/170
f 90/90/90 170/170/170 157/157/157
f 163/163/163 171/171/171 101/101/101
f 109/109/109 106/106/106 171/171/171
f 108/108/108 159/159/159 171/171/171
f 35/35/35 101/101/101 171/171/171
f 74/74/74 168/168/168 172/172/172
f 125/125/125 172/172/172 168/168/168
f 162/162/162 172/172/172 125/125/125
f 115/115/115 172/172/172 162/162/162
f 160/160/160 173/173/173 122/122/122
f 118/118/118 117/117/117 173/173/173
f 164/164/164 173/173/173 117/117/117
f 65/65/65 122/122/122 173/173/173
f 81/81/81 174/174/174 135/135/135
f 137/137/137 174/174/174 81/81/81
f 142/142/142 175/175/175 174/174/174
f 136/136/136 135/135/135 174/174/174
f 72/72/72 69/69/69 176/176/176
f 71/71/71 152/152/152 176/176/176
f 177/177/177 176/176/176 152/152/152
f 151/151/151 150/150/150 176/176/176
