# Blender v2.93.0 OBJ File: 'objetos.blend'
# www.blender.org
mtllib PiernaDer.mtl
o PiernaDer_santa.008
v 3.152680 -2.714379 1.872531
v 2.835395 -2.244909 2.224051
v 2.832522 -2.781743 2.163039
v 3.344089 -2.652027 1.470976
v 3.170485 -2.179331 1.918479
v 3.172662 -1.493439 1.965189
v 3.369989 -2.116904 1.501086
v 3.379619 -1.446462 1.534726
v 2.824674 -1.544852 2.282871
v 2.420282 -2.835779 2.301022
v 1.946757 -2.332342 2.349311
v 1.982722 -2.869559 2.278791
v 2.404082 -2.298211 2.370959
v 2.377497 -1.589209 2.435856
v 1.903872 -1.620541 2.413789
v 1.287305 -2.856613 1.769387
v 1.533635 -2.340386 2.149206
v 1.221969 -2.323081 1.813024
v 1.586630 -2.876171 2.088646
v 1.476552 -1.632861 2.206334
v 1.154737 -1.625761 1.857442
v 1.158825 -2.757905 0.914267
v 1.069035 -2.281152 1.383121
v 1.088270 -2.227459 0.919806
v 1.140072 -2.811895 1.359804
v 0.997599 -1.598825 1.411077
v 1.017964 -1.560887 0.933082
v 1.689312 -2.679580 0.157709
v 1.293107 -2.174864 0.483359
v 1.636774 -2.135924 0.149194
v 1.357482 -2.710546 0.487127
v 1.228644 -1.520774 0.489309
v 1.582617 -1.487969 0.151651
v 2.107604 -2.674769 0.005341
v 2.530962 -2.112832 0.014369
v 2.546777 -2.668809 0.026514
v 2.072482 -2.123187 -0.007269
v 2.032872 -1.471950 -0.007999
v 2.507307 -1.457229 0.014051
v 3.234527 -2.604709 0.551364
v 2.942932 -2.081017 0.214489
v 3.250194 -2.057755 0.560221
v 2.941254 -2.634381 0.217719
v 2.933812 -1.428302 0.221521
v 3.252562 -1.407057 0.577079
v 3.370087 -2.613033 0.999849
v 3.394557 -2.073047 1.018711
v 3.403707 -1.415389 1.043421
v 2.862695 -4.644598 2.149479
v 3.177727 -3.560213 1.862534
v 2.859460 -3.560051 2.147199
v 3.370057 -3.580911 1.467857
v 3.174327 -4.656117 1.867672
v 3.360907 -4.684277 1.487624
v 3.360037 -3.304560 1.454624
v 2.851317 -3.322611 2.133996
v 3.167694 -3.303148 1.853036
v 2.464255 -4.646418 2.283842
v 2.021372 -3.586627 2.252957
v 2.043392 -4.660355 2.263227
v 2.452422 -3.569528 2.278194
v 2.446192 -3.344952 2.259939
v 2.016097 -3.366793 2.231847
v 1.664455 -4.685172 2.080090
v 1.336980 -3.633815 1.759342
v 1.380210 -4.716427 1.771810
v 1.631040 -3.609326 2.068942
v 1.624810 -3.384749 2.050687
v 1.328837 -3.396379 1.746139
v 1.264360 -4.698222 0.953515
v 1.194734 -3.656299 1.357349
v 1.216945 -3.685229 0.919337
v 1.243427 -4.749670 1.375762
v 1.206927 -3.408878 0.906109
v 1.184700 -3.399226 1.347857
v 1.453259 -4.640929 0.566632
v 1.745770 -3.775260 0.181597
v 1.768522 -4.680713 0.275967
v 1.410067 -3.440921 0.471142
v 1.743929 -3.479198 0.132519
v 1.416257 -3.729087 0.501659
v 2.168554 -4.715995 0.142379
v 2.591207 -3.816566 0.059909
v 2.589714 -4.722817 0.165792
v 2.158607 -3.811145 0.036447
v 2.158332 -3.507529 -0.020193
v 2.591009 -3.509257 0.002234
v 3.251002 -4.745212 0.653637
v 2.979994 -3.771344 0.245697
v 3.268249 -3.701493 0.569459
v 2.968362 -4.745404 0.346134
v 2.979714 -3.467731 0.189059
v 3.266409 -3.405428 0.520382
v 3.399249 -3.633010 1.006837
v 3.384154 -4.732387 1.058542
v 3.393057 -3.344844 0.976322
v 2.840082 -3.102079 2.136147
v 3.155542 -3.055091 1.853541
v 3.346072 -3.021425 1.455574
v 2.004524 -3.171071 2.240047
v 2.434894 -3.142531 2.265781
v 1.613512 -3.182327 2.056530
v 1.317607 -3.175843 1.748284
v 1.172550 -3.151169 1.348364
v 1.192967 -3.125739 0.907059
v 1.725072 -3.120654 0.138357
v 1.393475 -3.116989 0.474674
v 2.571497 -3.130485 0.006789
v 2.138774 -3.132476 -0.014766
v 2.960157 -3.092685 0.194486
v 3.247552 -3.046889 0.526214
v 3.376467 -3.020911 0.979859
v 2.776355 -0.734856 2.303179
v 3.122922 -0.700196 1.986439
v 3.247772 0.156723 1.582846
v 3.328807 -0.671100 1.560704
v 3.047220 0.146721 1.994964
v 2.709230 0.130102 2.304226
v 1.861312 -0.795264 2.434389
v 2.331717 -0.768135 2.455949
v 2.276349 0.108966 2.453653
v 1.818917 0.086746 2.433053
v 1.437435 -0.811468 2.228124
v 1.118739 -0.815169 1.880889
v 1.407285 0.066862 2.232248
v 1.098369 0.052053 1.893851
v 0.963915 -0.804805 1.436422
v 0.984587 -0.784680 0.963501
v 0.949112 0.045066 1.460454
v 0.969677 0.046344 1.002486
v 1.542027 -0.734002 0.203929
v 1.170225 0.056348 0.590374
v 1.508219 0.072967 0.281106
v 1.192382 -0.759107 0.530926
v 2.459062 -0.696687 0.069284
v 1.988245 -0.715283 0.047726
v 1.941100 0.094100 0.131686
v 2.398527 0.116321 0.152284
v 2.882527 -0.671954 0.275551
v 3.199642 -0.653690 0.626211
v 2.810162 0.136206 0.353083
v 3.119072 0.151013 0.691481
v 3.351389 -0.654502 1.080944
v 3.268329 0.158001 1.124879
v 1.630472 -5.032654 1.622792
v 2.207784 -5.032334 0.429547
v 1.914837 -5.006499 0.527374
v 3.080952 -5.009108 1.414680
v 3.097977 -5.044339 1.100459
v 1.545635 -5.019319 1.023547
v 1.530305 -5.056993 1.332762
v 2.516202 -5.037332 0.446692
v 3.000469 -5.053733 0.803944
v 2.793489 -5.053874 0.578757
v 2.424327 -4.981387 1.997757
v 2.716107 -4.980053 1.899362
v 2.944320 -4.988487 1.692992
v 1.683967 -4.977365 0.740229
v 2.116127 -4.991589 1.982660
v 1.838627 -5.009764 1.848547
v 2.269002 -5.280654 0.877682
v 2.487352 -5.258197 1.509044
v 2.043994 -5.257041 1.011137
v 2.401484 -5.282800 0.885047
v 2.644072 -5.270677 1.300847
v 2.651384 -5.285810 1.165875
v 2.143167 -5.269555 0.919704
v 2.362019 -5.258770 1.551310
v 2.110429 -5.270957 1.487217
v 2.229629 -5.263153 1.544824
v 2.021017 -5.280789 1.390242
v 2.585382 -5.261817 1.420397
v 2.609499 -5.289844 1.038504
v 2.520592 -5.289905 0.941777
v 1.984575 -5.275062 1.132837
v 1.977990 -5.291247 1.265659
vt 0.375000 0.324046
vt 0.375000 0.324046
vt 0.375000 0.324046
vt 0.375000 0.324046
vt 0.375000 0.324046
vt 0.375000 0.324046
vt 0.375000 0.324046
vt 0.375000 0.324046
vt 0.375000 0.324046
vt 0.375000 0.324046
vt 0.375000 0.324046
vt 0.375000 0.324046
vt 0.375000 0.324046
vt 0.375000 0.324046
vt 0.375000 0.324046
vt 0.375000 0.324046
vt 0.375000 0.324046
vt 0.375000 0.324046
vt 0.375000 0.324046
vt 0.375000 0.324046
vt 0.375000 0.324046
vt 0.375000 0.324046
vt 0.375000 0.324046
vt 0.375000 0.324046
vt 0.375000 0.324046
vt 0.375000 0.324046
vt 0.375000 0.324046
vt 0.375000 0.324046
vt 0.375000 0.324046
vt 0.375000 0.324046
vt 0.375000 0.324046
vt 0.375000 0.324046
vt 0.375000 0.324046
vt 0.375000 0.324046
vt 0.375000 0.324046
vt 0.375000 0.324046
vt 0.375000 0.324046
vt 0.375000 0.324046
vt 0.375000 0.324046
vt 0.375000 0.324046
vt 0.375000 0.324046
vt 0.375000 0.324046
vt 0.375000 0.324046
vt 0.375000 0.324046
vt 0.375000 0.324046
vt 0.375000 0.324046
vt 0.375000 0.324046
vt 0.375000 0.324046
vt 0.375000 0.324046
vt 0.375000 0.324046
vt 0.375000 0.324046
vt 0.375000 0.324046
vt 0.375000 0.324046
vt 0.375000 0.324046
vt 0.375000 0.324046
vt 0.375000 0.324046
vt 0.375000 0.324046
vt 0.375000 0.324046
vt 0.375000 0.324046
vt 0.375000 0.324046
vt 0.375000 0.324046
vt 0.375000 0.324046
vt 0.375000 0.324046
vt 0.375000 0.324046
vt 0.375000 0.324046
vt 0.375000 0.324046
vt 0.375000 0.324046
vt 0.375000 0.324046
vt 0.375000 0.324046
vt 0.375000 0.324046
vt 0.375000 0.324046
vt 0.375000 0.324046
vt 0.375000 0.324046
vt 0.375000 0.324046
vt 0.375000 0.324046
vt 0.375000 0.324046
vt 0.375000 0.324046
vt 0.375000 0.324046
vt 0.375000 0.324046
vt 0.375000 0.324046
vt 0.375000 0.324046
vt 0.375000 0.324046
vt 0.375000 0.324046
vt 0.375000 0.324046
vt 0.375000 0.324046
vt 0.375000 0.324046
vt 0.375000 0.324046
vt 0.375000 0.324046
vt 0.375000 0.324046
vt 0.375000 0.324046
vt 0.375000 0.324046
vt 0.375000 0.324046
vt 0.375000 0.324046
vt 0.375000 0.324046
vt 0.375000 0.324046
vt 0.375000 0.324046
vt 0.375000 0.324046
vt 0.375000 0.324046
vt 0.375000 0.324046
vt 0.375000 0.324046
vt 0.375000 0.324046
vt 0.375000 0.324046
vt 0.375000 0.324046
vt 0.375000 0.324046
vt 0.375000 0.324046
vt 0.375000 0.324046
vt 0.375000 0.324046
vt 0.375000 0.324046
vt 0.375000 0.324046
vt 0.375000 0.324046
vt 0.375000 0.324046
vt 0.375000 0.324046
vt 0.375000 0.324046
vt 0.375000 0.324046
vt 0.375000 0.324046
vt 0.375000 0.324046
vt 0.375000 0.324046
vt 0.375000 0.324046
vt 0.375000 0.324046
vt 0.375000 0.324046
vt 0.375000 0.324046
vt 0.375000 0.324046
vt 0.375000 0.324046
vt 0.375000 0.324046
vt 0.375000 0.324046
vt 0.375000 0.324046
vt 0.375000 0.324046
vt 0.375000 0.324046
vt 0.375000 0.324046
vt 0.375000 0.324046
vt 0.375000 0.324046
vt 0.375000 0.324046
vt 0.375000 0.324046
vt 0.375000 0.324046
vt 0.375000 0.324046
vt 0.375000 0.324046
vt 0.375000 0.324046
vt 0.375000 0.324046
vt 0.375000 0.324046
vt 0.375000 0.324046
vt 0.375000 0.324046
vt 0.375000 0.324046
vt 0.375000 0.324046
vt 0.375000 0.324046
vt 0.375000 0.324046
vt 0.375000 0.324046
vt 0.375000 0.324046
vt 0.375000 0.324046
vt 0.375000 0.324046
vt 0.375000 0.324046
vt 0.375000 0.324046
vt 0.375000 0.324046
vt 0.375000 0.324046
vt 0.375000 0.324046
vt 0.375000 0.324046
vt 0.375000 0.324046
vt 0.375000 0.324046
vt 0.375000 0.324046
vt 0.375000 0.324046
vt 0.375000 0.324046
vt 0.375000 0.324046
vt 0.375000 0.324046
vt 0.375000 0.324046
vt 0.375000 0.324046
vt 0.375000 0.324046
vt 0.375000 0.324046
vt 0.375000 0.324046
vt 0.375000 0.324046
vt 0.375000 0.324046
vt 0.375000 0.324046
vt 0.375000 0.324046
vt 0.375000 0.324046
vt 0.375000 0.324046
vt 0.375000 0.324046
vt 0.375000 0.324046
vt 0.375000 0.324046
vn 0.8059 -0.0503 0.5899
vn 0.5167 -0.0811 0.8523
vn 0.5115 -0.0789 0.8556
vn 0.9693 -0.0332 0.2435
vn 0.8066 -0.0598 0.5881
vn 0.8029 -0.0049 0.5961
vn 0.9692 -0.0426 0.2426
vn 0.9689 0.0150 0.2470
vn 0.5124 -0.0279 0.8583
vn 0.1452 -0.1122 0.9830
vn -0.2393 -0.1213 0.9633
vn -0.2385 -0.1390 0.9611
vn 0.1485 -0.1034 0.9835
vn 0.1454 -0.0507 0.9881
vn -0.2426 -0.0695 0.9676
vn -0.8502 -0.1291 0.5104
vn -0.5903 -0.1296 0.7967
vn -0.8525 -0.1296 0.5065
vn -0.5863 -0.1377 0.7983
vn -0.5937 -0.0811 0.8006
vn -0.8553 -0.0841 0.5113
vn -0.9634 -0.1053 -0.2464
vn -0.9831 -0.1230 0.1358
vn -0.9624 -0.1107 -0.2482
vn -0.9835 -0.1178 0.1376
vn -0.9868 -0.0785 0.1416
vn -0.9674 -0.0640 -0.2450
vn -0.5345 -0.0388 -0.8443
vn -0.8071 -0.0862 -0.5841
vn -0.5247 -0.0514 -0.8498
vn -0.8115 -0.0793 -0.5789
vn -0.8069 -0.0386 -0.5895
vn -0.5226 -0.0039 -0.8526
vn -0.1508 0.0009 -0.9886
vn 0.2472 -0.0028 -0.9690
vn 0.2454 0.0215 -0.9692
vn -0.1482 -0.0217 -0.9887
vn -0.1470 0.0267 -0.9888
vn 0.2450 0.0466 -0.9684
vn 0.8744 0.0160 -0.4849
vn 0.6043 0.0046 -0.7968
vn 0.8702 -0.0033 -0.4927
vn 0.6029 0.0286 -0.7973
vn 0.5997 0.0565 -0.7982
vn 0.8655 0.0514 -0.4982
vn 0.9925 -0.0113 -0.1217
vn 0.9913 -0.0235 -0.1293
vn 0.9908 0.0344 -0.1307
vn 0.4852 -0.3084 0.8182
vn 0.7975 0.0287 0.6026
vn 0.4949 0.0338 0.8683
vn 0.9656 0.0223 0.2590
vn 0.7564 -0.3355 0.5615
vn 0.9083 -0.3221 0.2671
vn 0.9668 0.0477 0.2512
vn 0.4948 0.0399 0.8681
vn 0.7976 0.0458 0.6015
vn 0.1240 -0.3013 0.9454
vn -0.2467 0.0508 0.9678
vn -0.1809 -0.3348 0.9248
vn 0.1243 0.0443 0.9913
vn 0.1195 0.0246 0.9925
vn -0.2475 0.0138 0.9688
vn -0.5566 -0.3184 0.7674
vn -0.8503 -0.0134 0.5261
vn -0.7711 -0.3611 0.5245
vn -0.5844 0.0229 0.8111
vn -0.5822 -0.0102 0.8130
vn -0.8508 -0.0263 0.5248
vn -0.8987 -0.3497 -0.2646
vn -0.9884 -0.0363 0.1474
vn -0.9694 -0.0496 -0.2405
vn -0.9079 -0.3921 0.1483
vn -0.9691 -0.0468 -0.2423
vn -0.9885 -0.0421 0.1450
vn -0.7509 -0.3446 -0.5634
vn -0.5353 -0.1238 -0.8355
vn -0.4897 -0.3889 -0.7804
vn -0.8177 -0.0509 -0.5733
vn -0.5345 -0.0761 -0.8417
vn -0.8178 -0.0800 -0.5699
vn -0.1435 -0.4316 -0.8906
vn 0.2522 -0.1449 -0.9568
vn 0.2523 -0.3937 -0.8839
vn -0.1473 -0.1472 -0.9781
vn -0.1481 -0.0869 -0.9851
vn 0.2497 -0.0794 -0.9651
vn 0.8021 -0.3937 -0.4491
vn 0.6099 -0.1162 -0.7839
vn 0.8793 -0.0653 -0.4717
vn 0.5604 -0.4040 -0.7230
vn 0.6073 -0.0491 -0.7930
vn 0.8754 -0.0071 -0.4833
vn 0.9944 -0.0058 -0.1055
vn 0.9236 -0.3703 -0.0995
vn 0.9928 0.0359 -0.1141
vn 0.4996 -0.0209 0.8660
vn 0.8014 0.0042 0.5981
vn 0.9677 0.0224 0.2510
vn -0.2413 -0.1033 0.9649
vn 0.1296 -0.0644 0.9895
vn -0.5807 -0.0957 0.8085
vn -0.8489 -0.0806 0.5223
vn -0.9869 -0.0753 0.1429
vn -0.9680 -0.0667 -0.2418
vn -0.5418 -0.0087 -0.8405
vn -0.8186 -0.0435 -0.5727
vn 0.2446 0.0385 -0.9689
vn -0.1506 0.0196 -0.9884
vn 0.6014 0.0540 -0.7971
vn 0.8756 0.0557 -0.4797
vn 0.9930 0.0383 -0.1115
vn 0.5090 0.0239 0.8604
vn 0.7990 0.0497 0.5992
vn 0.9640 0.0875 0.2512
vn 0.9659 0.0723 0.2487
vn 0.7962 0.0648 0.6015
vn 0.5065 0.0379 0.8614
vn -0.2455 -0.0234 0.9691
vn 0.1424 -0.0021 0.9898
vn 0.1409 0.0113 0.9900
vn -0.2464 -0.0104 0.9691
vn -0.5966 -0.0367 0.8017
vn -0.8577 -0.0400 0.5125
vn -0.5971 -0.0245 0.8018
vn -0.8574 -0.0282 0.5139
vn -0.9890 -0.0339 0.1440
vn -0.9696 -0.0187 -0.2440
vn -0.9889 -0.0219 0.1472
vn -0.9704 -0.0062 -0.2416
vn -0.5195 0.0456 -0.8532
vn -0.8028 0.0197 -0.5960
vn -0.5179 0.0571 -0.8535
vn -0.8057 0.0088 -0.5923
vn 0.2413 0.1004 -0.9652
vn -0.1480 0.0780 -0.9859
vn -0.1500 0.0934 -0.9843
vn 0.2399 0.1169 -0.9637
vn 0.5934 0.1126 -0.7970
vn 0.8577 0.1100 -0.5023
vn 0.5928 0.1290 -0.7950
vn 0.8549 0.1237 -0.5038
vn 0.9864 0.0924 -0.1358
vn 0.9843 0.1063 -0.1407
vn -0.5249 -0.7606 0.3820
vn -0.1109 -0.7927 -0.5994
vn -0.3783 -0.7695 -0.5146
vn 0.6078 -0.7656 0.2109
vn 0.6265 -0.7789 -0.0285
vn -0.5936 -0.7709 -0.2310
vn -0.6235 -0.7784 0.0727
vn 0.1245 -0.7988 -0.5885
vn 0.5439 -0.7868 -0.2918
vn 0.3325 -0.8045 -0.4922
vn 0.1075 -0.7322 0.6726
vn 0.3439 -0.7539 0.5598
vn 0.5143 -0.7412 0.4314
vn -0.5288 -0.7468 -0.4033
vn -0.1344 -0.7338 0.6659
vn -0.3559 -0.7449 0.5643
vn -0.1114 -0.8644 -0.4903
vn 0.2476 -0.8627 0.4409
vn -0.4064 -0.8528 -0.3281
vn 0.0943 -0.8636 -0.4953
vn 0.4506 -0.8697 0.2015
vn 0.4717 -0.8817 -0.0044
vn -0.3231 -0.8580 -0.3994
vn 0.0886 -0.8655 0.4930
vn -0.2406 -0.8785 0.4127
vn -0.0826 -0.8727 0.4812
vn -0.3592 -0.8867 0.2912
vn 0.3752 -0.8637 0.3366
vn 0.4121 -0.8826 -0.2262
vn 0.2697 -0.8755 -0.4009
vn -0.4327 -0.8745 -0.2192
vn -0.4378 -0.8979 0.0467
usemtl colores.002
s 1
f 1/1/1 2/2/2 3/3/3
f 4/4/4 5/5/5 1/1/1
f 6/6/6 7/7/7 8/8/8
f 9/9/9 5/5/5 6/6/6
f 10/10/10 11/11/11 12/12/12
f 3/3/3 13/13/13 10/10/10
f 14/14/14 2/2/2 9/9/9
f 15/15/15 13/13/13 14/14/14
f 16/16/16 17/17/17 18/18/18
f 11/11/11 19/19/19 12/12/12
f 15/15/15 17/17/17 11/11/11
f 18/18/18 20/20/20 21/21/21
f 22/22/22 23/23/23 24/24/24
f 18/18/18 25/25/25 16/16/16
f 21/21/21 23/23/23 18/18/18
f 24/24/24 26/26/26 27/27/27
f 28/28/28 29/29/29 30/30/30
f 24/24/24 31/31/31 22/22/22
f 27/27/27 29/29/29 24/24/24
f 30/30/30 32/32/32 33/33/33
f 34/34/34 35/35/35 36/36/36
f 28/28/28 37/37/37 34/34/34
f 38/38/38 30/30/30 33/33/33
f 39/39/39 37/37/37 38/38/38
f 40/40/40 41/41/41 42/42/42
f 35/35/35 43/43/43 36/36/36
f 39/39/39 41/41/41 35/35/35
f 42/42/42 44/44/44 45/45/45
f 46/46/46 7/7/7 4/4/4
f 42/42/42 46/46/46 40/40/40
f 45/45/45 47/47/47 42/42/42
f 8/8/8 47/47/47 48/48/48
f 49/49/49 50/50/50 51/51/51
f 52/52/52 53/53/53 54/54/54
f 55/55/55 50/50/50 52/52/52
f 56/56/56 50/50/50 57/57/57
f 58/58/58 59/59/59 60/60/60
f 49/49/49 61/61/61 58/58/58
f 62/62/62 51/51/51 56/56/56
f 63/63/63 61/61/61 62/62/62
f 64/64/64 65/65/65 66/66/66
f 60/60/60 67/67/67 64/64/64
f 63/63/63 67/67/67 59/59/59
f 65/65/65 68/68/68 69/69/69
f 70/70/70 71/71/71 72/72/72
f 66/66/66 71/71/71 73/73/73
f 69/69/69 71/71/71 65/65/65
f 74/74/74 71/71/71 75/75/75
f 76/76/76 77/77/77 78/78/78
f 72/72/72 76/76/76 70/70/70
f 79/79/79 72/72/72 74/74/74
f 80/80/80 81/81/81 79/79/79
f 82/82/82 83/83/83 84/84/84
f 78/78/78 85/85/85 82/82/82
f 86/86/86 77/77/77 80/80/80
f 87/87/87 85/85/85 86/86/86
f 88/88/88 89/89/89 90/90/90
f 84/84/84 89/89/89 91/91/91
f 87/87/87 89/89/89 83/83/83
f 90/90/90 92/92/92 93/93/93
f 54/54/54 94/94/94 52/52/52
f 90/90/90 95/95/95 88/88/88
f 93/93/93 94/94/94 90/90/90
f 52/52/52 96/96/96 55/55/55
f 57/57/57 97/97/97 56/56/56
f 55/55/55 98/98/98 57/57/57
f 1/1/1 99/99/99 4/4/4
f 3/3/3 98/98/98 1/1/1
f 62/62/62 100/100/100 63/63/63
f 56/56/56 101/101/101 62/62/62
f 10/10/10 97/97/97 3/3/3
f 12/12/12 101/101/101 10/10/10
f 69/69/69 102/102/102 103/103/103
f 100/100/100 68/68/68 63/63/63
f 12/12/12 102/102/102 100/100/100
f 103/103/103 19/19/19 16/16/16
f 74/74/74 104/104/104 105/105/105
f 103/103/103 75/75/75 69/69/69
f 16/16/16 104/104/104 103/103/103
f 105/105/105 25/25/25 22/22/22
f 79/79/79 106/106/106 80/80/80
f 74/74/74 107/107/107 79/79/79
f 31/31/31 105/105/105 22/22/22
f 28/28/28 107/107/107 31/31/31
f 86/86/86 108/108/108 87/87/87
f 80/80/80 109/109/109 86/86/86
f 34/34/34 106/106/106 28/28/28
f 36/36/36 109/109/109 34/34/34
f 93/93/93 110/110/110 111/111/111
f 108/108/108 92/92/92 87/87/87
f 36/36/36 110/110/110 108/108/108
f 111/111/111 43/43/43 40/40/40
f 55/55/55 112/112/112 99/99/99
f 111/111/111 96/96/96 93/93/93
f 40/40/40 112/112/112 111/111/111
f 99/99/99 46/46/46 4/4/4
f 6/6/6 113/113/113 9/9/9
f 8/8/8 114/114/114 6/6/6
f 115/115/115 114/114/114 116/116/116
f 113/113/113 117/117/117 118/118/118
f 14/14/14 119/119/119 15/15/15
f 9/9/9 120/120/120 14/14/14
f 118/118/118 120/120/120 113/113/113
f 119/119/119 121/121/121 122/122/122
f 21/21/21 123/123/123 124/124/124
f 119/119/119 20/20/20 15/15/15
f 125/125/125 119/119/119 122/122/122
f 126/126/126 123/123/123 125/125/125
f 27/27/27 127/127/127 128/128/128
f 124/124/124 26/26/26 21/21/21
f 129/129/129 124/124/124 126/126/126
f 130/130/130 127/127/127 129/129/129
f 32/32/32 131/131/131 33/33/33
f 128/128/128 32/32/32 27/27/27
f 132/132/132 128/128/128 130/130/130
f 133/133/133 134/134/134 132/132/132
f 38/38/38 135/135/135 39/39/39
f 33/33/33 136/136/136 38/38/38
f 137/137/137 131/131/131 133/133/133
f 138/138/138 136/136/136 137/137/137
f 45/45/45 139/139/139 140/140/140
f 135/135/135 44/44/44 39/39/39
f 138/138/138 139/139/139 135/135/135
f 140/140/140 141/141/141 142/142/142
f 48/48/48 116/116/116 8/8/8
f 140/140/140 48/48/48 45/45/45
f 142/142/142 143/143/143 140/140/140
f 116/116/116 144/144/144 115/115/115
f 73/73/73 145/145/145 66/66/66
f 84/84/84 146/146/146 82/82/82
f 82/82/82 147/147/147 78/78/78
f 95/95/95 148/148/148 149/149/149
f 73/73/73 150/150/150 151/151/151
f 91/91/91 152/152/152 84/84/84
f 91/91/91 153/153/153 154/154/154
f 60/60/60 155/155/155 58/58/58
f 53/53/53 156/156/156 157/157/157
f 70/70/70 158/158/158 150/150/150
f 88/88/88 149/149/149 153/153/153
f 64/64/64 159/159/159 60/60/60
f 66/66/66 160/160/160 64/64/64
f 58/58/58 156/156/156 49/49/49
f 54/54/54 157/157/157 148/148/148
f 78/78/78 158/158/158 76/76/76
f 152/152/152 161/161/161 146/146/146
f 155/155/155 162/162/162 156/156/156
f 147/147/147 163/163/163 158/158/158
f 154/154/154 164/164/164 152/152/152
f 149/149/149 165/165/165 166/166/166
f 146/146/146 167/167/167 147/147/147
f 159/159/159 168/168/168 155/155/155
f 145/145/145 169/169/169 160/160/160
f 160/160/160 170/170/170 159/159/159
f 151/151/151 171/171/171 145/145/145
f 148/148/148 172/172/172 165/165/165
f 154/154/154 173/173/173 174/174/174
f 151/151/151 175/175/175 176/176/176
f 149/149/149 173/173/173 153/153/153
f 150/150/150 163/163/163 175/175/175
f 157/157/157 162/162/162 172/172/172
f 1/1/1 5/5/5 2/2/2
f 4/4/4 7/7/7 5/5/5
f 6/6/6 5/5/5 7/7/7
f 9/9/9 2/2/2 5/5/5
f 10/10/10 13/13/13 11/11/11
f 3/3/3 2/2/2 13/13/13
f 14/14/14 13/13/13 2/2/2
f 15/15/15 11/11/11 13/13/13
f 16/16/16 19/19/19 17/17/17
f 11/11/11 17/17/17 19/19/19
f 15/15/15 20/20/20 17/17/17
f 18/18/18 17/17/17 20/20/20
f 22/22/22 25/25/25 23/23/23
f 18/18/18 23/23/23 25/25/25
f 21/21/21 26/26/26 23/23/23
f 24/24/24 23/23/23 26/26/26
f 28/28/28 31/31/31 29/29/29
f 24/24/24 29/29/29 31/31/31
f 27/27/27 32/32/32 29/29/29
f 30/30/30 29/29/29 32/32/32
f 34/34/34 37/37/37 35/35/35
f 28/28/28 30/30/30 37/37/37
f 38/38/38 37/37/37 30/30/30
f 39/39/39 35/35/35 37/37/37
f 40/40/40 43/43/43 41/41/41
f 35/35/35 41/41/41 43/43/43
f 39/39/39 44/44/44 41/41/41
f 42/42/42 41/41/41 44/44/44
f 46/46/46 47/47/47 7/7/7
f 42/42/42 47/47/47 46/46/46
f 45/45/45 48/48/48 47/47/47
f 8/8/8 7/7/7 47/47/47
f 49/49/49 53/53/53 50/50/50
f 52/52/52 50/50/50 53/53/53
f 55/55/55 57/57/57 50/50/50
f 56/56/56 51/51/51 50/50/50
f 58/58/58 61/61/61 59/59/59
f 49/49/49 51/51/51 61/61/61
f 62/62/62 61/61/61 51/51/51
f 63/63/63 59/59/59 61/61/61
f 64/64/64 67/67/67 65/65/65
f 60/60/60 59/59/59 67/67/67
f 63/63/63 68/68/68 67/67/67
f 65/65/65 67/67/67 68/68/68
f 70/70/70 73/73/73 71/71/71
f 66/66/66 65/65/65 71/71/71
f 69/69/69 75/75/75 71/71/71
f 74/74/74 72/72/72 71/71/71
f 76/76/76 81/81/81 77/77/77
f 72/72/72 81/81/81 76/76/76
f 79/79/79 81/81/81 72/72/72
f 80/80/80 77/77/77 81/81/81
f 82/82/82 85/85/85 83/83/83
f 78/78/78 77/77/77 85/85/85
f 86/86/86 85/85/85 77/77/77
f 87/87/87 83/83/83 85/85/85
f 88/88/88 91/91/91 89/89/89
f 84/84/84 83/83/83 89/89/89
f 87/87/87 92/92/92 89/89/89
f 90/90/90 89/89/89 92/92/92
f 54/54/54 95/95/95 94/94/94
f 90/90/90 94/94/94 95/95/95
f 93/93/93 96/96/96 94/94/94
f 52/52/52 94/94/94 96/96/96
f 57/57/57 98/98/98 97/97/97
f 55/55/55 99/99/99 98/98/98
f 1/1/1 98/98/98 99/99/99
f 3/3/3 97/97/97 98/98/98
f 62/62/62 101/101/101 100/100/100
f 56/56/56 97/97/97 101/101/101
f 10/10/10 101/101/101 97/97/97
f 12/12/12 100/100/100 101/101/101
f 69/69/69 68/68/68 102/102/102
f 100/100/100 102/102/102 68/68/68
f 12/12/12 19/19/19 102/102/102
f 103/103/103 102/102/102 19/19/19
f 74/74/74 75/75/75 104/104/104
f 103/103/103 104/104/104 75/75/75
f 16/16/16 25/25/25 104/104/104
f 105/105/105 104/104/104 25/25/25
f 79/79/79 107/107/107 106/106/106
f 74/74/74 105/105/105 107/107/107
f 31/31/31 107/107/107 105/105/105
f 28/28/28 106/106/106 107/107/107
f 86/86/86 109/109/109 108/108/108
f 80/80/80 106/106/106 109/109/109
f 34/34/34 109/109/109 106/106/106
f 36/36/36 108/108/108 109/109/109
f 93/93/93 92/92/92 110/110/110
f 108/108/108 110/110/110 92/92/92
f 36/36/36 43/43/43 110/110/110
f 111/111/111 110/110/110 43/43/43
f 55/55/55 96/96/96 112/112/112
f 111/111/111 112/112/112 96/96/96
f 40/40/40 46/46/46 112/112/112
f 99/99/99 112/112/112 46/46/46
f 6/6/6 114/114/114 113/113/113
f 8/8/8 116/116/116 114/114/114
f 115/115/115 117/117/117 114/114/114
f 113/113/113 114/114/114 117/117/117
f 14/14/14 120/120/120 119/119/119
f 9/9/9 113/113/113 120/120/120
f 118/118/118 121/121/121 120/120/120
f 119/119/119 120/120/120 121/121/121
f 21/21/21 20/20/20 123/123/123
f 119/119/119 123/123/123 20/20/20
f 125/125/125 123/123/123 119/119/119
f 126/126/126 124/124/124 123/123/123
f 27/27/27 26/26/26 127/127/127
f 124/124/124 127/127/127 26/26/26
f 129/129/129 127/127/127 124/124/124
f 130/130/130 128/128/128 127/127/127
f 32/32/32 134/134/134 131/131/131
f 128/128/128 134/134/134 32/32/32
f 132/132/132 134/134/134 128/128/128
f 133/133/133 131/131/131 134/134/134
f 38/38/38 136/136/136 135/135/135
f 33/33/33 131/131/131 136/136/136
f 137/137/137 136/136/136 131/131/131
f 138/138/138 135/135/135 136/136/136
f 45/45/45 44/44/44 139/139/139
f 135/135/135 139/139/139 44/44/44
f 138/138/138 141/141/141 139/139/139
f 140/140/140 139/139/139 141/141/141
f 48/48/48 143/143/143 116/116/116
f 140/140/140 143/143/143 48/48/48
f 142/142/142 144/144/144 143/143/143
f 116/116/116 143/143/143 144/144/144
f 73/73/73 151/151/151 145/145/145
f 84/84/84 152/152/152 146/146/146
f 82/82/82 146/146/146 147/147/147
f 95/95/95 54/54/54 148/148/148
f 73/73/73 70/70/70 150/150/150
f 91/91/91 154/154/154 152/152/152
f 91/91/91 88/88/88 153/153/153
f 60/60/60 159/159/159 155/155/155
f 53/53/53 49/49/49 156/156/156
f 70/70/70 76/76/76 158/158/158
f 88/88/88 95/95/95 149/149/149
f 64/64/64 160/160/160 159/159/159
f 66/66/66 145/145/145 160/160/160
f 58/58/58 155/155/155 156/156/156
f 54/54/54 53/53/53 157/157/157
f 78/78/78 147/147/147 158/158/158
f 152/152/152 164/164/164 161/161/161
f 155/155/155 168/168/168 162/162/162
f 147/147/147 167/167/167 163/163/163
f 154/154/154 174/174/174 164/164/164
f 149/149/149 148/148/148 165/165/165
f 146/146/146 161/161/161 167/167/167
f 159/159/159 170/170/170 168/168/168
f 145/145/145 171/171/171 169/169/169
f 160/160/160 169/169/169 170/170/170
f 151/151/151 176/176/176 171/171/171
f 148/148/148 157/157/157 172/172/172
f 154/154/154 153/153/153 173/173/173
f 151/151/151 150/150/150 175/175/175
f 149/149/149 166/166/166 173/173/173
f 150/150/150 158/158/158 163/163/163
f 157/157/157 156/156/156 162/162/162
