# Blender v2.93.0 OBJ File: 'objetos.blend'
# www.blender.org
mtllib PiernaIzq.mtl
o PiernaIzq_santa.009
v -2.546256 -2.244909 2.224052
v -2.863535 -2.714379 1.872527
v -2.543380 -2.781743 2.163034
v -2.535536 -1.544848 2.282871
v -2.881345 -2.179331 1.918480
v -3.080851 -2.116904 1.501087
v -2.883523 -1.493439 1.965189
v -3.090481 -1.446456 1.534727
v -3.054951 -2.652027 1.470977
v -1.657618 -2.332342 2.349312
v -2.131136 -2.835779 2.301022
v -1.693583 -2.869557 2.278787
v -1.614733 -1.620541 2.413789
v -2.114938 -2.298211 2.370959
v -2.088358 -1.589209 2.435857
v -0.998165 -2.856613 1.769385
v -1.244493 -2.340386 2.149207
v -1.297490 -2.876171 2.088645
v -1.187413 -1.632861 2.206334
v -0.932831 -2.323081 1.813022
v -0.865598 -1.625761 1.857442
v -0.869686 -2.757905 0.914267
v -0.779895 -2.281152 1.383122
v -0.850933 -2.811893 1.359804
v -0.708460 -1.598825 1.411077
v -0.799125 -2.227459 0.919807
v -0.728821 -1.560887 0.933082
v -1.400173 -2.679580 0.157709
v -1.003968 -2.174864 0.483359
v -1.068343 -2.710545 0.487127
v -0.939506 -1.520770 0.489309
v -1.347630 -2.135919 0.149194
v -1.293478 -1.487969 0.151652
v -2.241823 -2.112832 0.014369
v -1.818465 -2.674769 0.005344
v -2.257638 -2.668809 0.026514
v -2.218166 -1.457229 0.014054
v -1.783343 -2.123187 -0.007268
v -1.743733 -1.471950 -0.007998
v -2.945388 -2.604709 0.551364
v -2.653790 -2.081017 0.214489
v -2.652116 -2.634381 0.217719
v -2.644673 -1.428302 0.221517
v -2.961056 -2.057750 0.560222
v -2.963423 -1.407057 0.577079
v -3.080948 -2.613033 0.999850
v -3.105418 -2.073047 1.018712
v -3.114568 -1.415389 1.043422
v -2.573550 -4.644598 2.149480
v -2.888588 -3.560213 1.862535
v -2.885188 -4.656113 1.867672
v -2.562176 -3.322611 2.133997
v -2.570315 -3.560051 2.147200
v -3.070893 -3.304555 1.454625
v -2.878553 -3.303146 1.853037
v -3.080911 -3.580911 1.467852
v -3.071768 -4.684274 1.487625
v -1.732233 -3.586627 2.252957
v -2.175115 -4.646418 2.283842
v -1.754253 -4.660355 2.263227
v -1.726958 -3.366786 2.231847
v -2.163283 -3.569528 2.278194
v -2.157050 -3.344948 2.259939
v -1.047840 -3.633815 1.759342
v -1.375315 -4.685170 2.080090
v -1.091071 -4.716427 1.771810
v -1.335670 -3.384749 2.050687
v -1.039698 -3.396377 1.746137
v -1.341900 -3.609326 2.068939
v -0.975221 -4.737164 0.953515
v -0.905596 -3.656291 1.357349
v -0.954288 -4.749670 1.375762
v -0.917785 -3.408878 0.906110
v -0.927805 -3.685229 0.919337
v -0.895555 -3.399225 1.347857
v -1.479383 -4.680707 0.275967
v -1.127115 -3.729087 0.501659
v -1.164115 -4.709092 0.566632
v -1.454790 -3.479198 0.132519
v -1.456630 -3.775260 0.181597
v -1.120925 -3.440921 0.471142
v -2.302063 -3.816562 0.059910
v -1.879416 -4.715993 0.142380
v -2.300576 -4.722817 0.165792
v -2.301868 -3.509257 0.002235
v -1.869468 -3.811145 0.036442
v -1.869188 -3.507529 -0.020193
v -2.979108 -3.701488 0.569460
v -2.679218 -4.677241 0.346135
v -2.961863 -4.706262 0.653637
v -2.690571 -3.467731 0.189060
v -2.977271 -3.405428 0.520382
v -2.690851 -3.771344 0.245697
v -3.110108 -3.633010 1.006837
v -3.095016 -4.732387 1.058542
v -3.103918 -3.344842 0.976322
v -2.550941 -3.102079 2.136147
v -2.866403 -3.055091 1.853542
v -3.056933 -3.021422 1.455575
v -1.715385 -3.171069 2.240047
v -2.145755 -3.142531 2.265782
v -1.324373 -3.182324 2.056530
v -1.028468 -3.175842 1.748284
v -0.883411 -3.151169 1.348365
v -0.903825 -3.125739 0.907059
v -1.435933 -3.120654 0.138357
v -1.104333 -3.116989 0.474674
v -2.282358 -3.130485 0.006789
v -1.849635 -3.132476 -0.014766
v -2.671018 -3.092682 0.194487
v -2.958408 -3.046887 0.526215
v -3.087328 -3.020911 0.979855
v -2.487215 -0.734856 2.303179
v -2.758078 0.146721 1.994959
v -2.420090 0.130102 2.304226
v -2.958633 0.156723 1.582847
v -2.833780 -0.700194 1.986439
v -3.039666 -0.671094 1.560704
v -1.572173 -0.795264 2.434389
v -1.987208 0.108971 2.453649
v -1.529778 0.086746 2.433049
v -2.042578 -0.768135 2.455949
v -1.148288 -0.811468 2.228124
v -0.809230 0.052053 1.893851
v -0.829600 -0.815169 1.880889
v -1.118145 0.066862 2.232249
v -0.674775 -0.804805 1.436422
v -0.680535 0.046347 1.002486
v -0.695448 -0.784680 0.963502
v -0.659973 0.045066 1.460454
v -1.252888 -0.734002 0.203924
v -1.219073 0.072970 0.281109
v -0.903243 -0.759107 0.530926
v -0.881086 0.056348 0.590374
v -2.169923 -0.696687 0.069284
v -2.109386 0.116321 0.152286
v -1.699098 -0.715283 0.047729
v -1.651955 0.094100 0.131686
v -2.593388 -0.671954 0.275552
v -2.521023 0.136206 0.353084
v -2.910501 -0.653690 0.626212
v -2.829933 0.151013 0.691481
v -2.979191 0.158001 1.124879
v -3.062251 -0.654500 1.080944
v -2.531868 -4.978852 0.542147
v -2.750758 -5.001325 0.780290
v -1.602668 -4.981536 0.487807
v -1.301946 -5.009201 1.646245
v -1.196015 -5.034943 1.339530
v -1.912471 -5.008862 0.384352
v -2.691381 -4.962491 1.720485
v -1.212225 -5.025260 1.012525
v -2.853878 -5.021556 1.093862
v -1.522075 -4.984991 1.884987
v -1.358513 -5.003519 0.712910
v -2.835873 -4.984300 1.426160
v -2.450035 -4.953572 1.938727
v -2.238633 -5.014148 0.402482
v -2.141473 -4.954981 2.042783
v -1.815540 -4.965772 2.026817
v -1.662110 -5.264297 1.124540
v -2.252168 -5.243545 0.914215
v -2.350043 -5.253594 1.020697
v -1.727520 -5.254573 0.990570
v -1.702225 -5.257113 1.407898
v -1.654863 -5.268624 1.270755
v -1.975216 -5.256965 0.843660
v -2.121053 -5.259326 0.851767
v -2.215578 -5.232242 1.538677
v -2.323493 -5.236230 1.441092
v -2.077611 -5.232872 1.585205
v -1.800655 -5.246294 1.514650
v -2.388101 -5.245982 1.309490
v -1.836691 -5.244748 0.889917
v -1.931873 -5.237697 1.578065
v -2.396151 -5.262641 1.160907
vt 0.375000 0.324135
vt 0.375000 0.324135
vt 0.375000 0.324135
vt 0.375000 0.324135
vt 0.375000 0.324135
vt 0.375000 0.324135
vt 0.375000 0.324135
vt 0.375000 0.324135
vt 0.375000 0.324135
vt 0.375000 0.324135
vt 0.375000 0.324135
vt 0.375000 0.324135
vt 0.375000 0.324135
vt 0.375000 0.324135
vt 0.375000 0.324135
vt 0.375000 0.324135
vt 0.375000 0.324135
vt 0.375000 0.324135
vt 0.375000 0.324135
vt 0.375000 0.324135
vt 0.375000 0.324135
vt 0.375000 0.324135
vt 0.375000 0.324135
vt 0.375000 0.324135
vt 0.375000 0.324135
vt 0.375000 0.324135
vt 0.375000 0.324135
vt 0.375000 0.324135
vt 0.375000 0.324135
vt 0.375000 0.324135
vt 0.375000 0.324135
vt 0.375000 0.324135
vt 0.375000 0.324135
vt 0.375000 0.324135
vt 0.375000 0.324135
vt 0.375000 0.324135
vt 0.375000 0.324135
vt 0.375000 0.324135
vt 0.375000 0.324135
vt 0.375000 0.324135
vt 0.375000 0.324135
vt 0.375000 0.324135
vt 0.375000 0.324135
vt 0.375000 0.324135
vt 0.375000 0.324135
vt 0.375000 0.324135
vt 0.375000 0.324135
vt 0.375000 0.324135
vt 0.375000 0.324135
vt 0.375000 0.324135
vt 0.375000 0.324135
vt 0.375000 0.324135
vt 0.375000 0.324135
vt 0.375000 0.324135
vt 0.375000 0.324135
vt 0.375000 0.324135
vt 0.375000 0.324135
vt 0.375000 0.324135
vt 0.375000 0.324135
vt 0.375000 0.324135
vt 0.375000 0.324135
vt 0.375000 0.324135
vt 0.375000 0.324135
vt 0.375000 0.324135
vt 0.375000 0.324135
vt 0.375000 0.324135
vt 0.375000 0.324135
vt 0.375000 0.324135
vt 0.375000 0.324135
vt 0.375000 0.324135
vt 0.375000 0.324135
vt 0.375000 0.324135
vt 0.375000 0.324135
vt 0.375000 0.324135
vt 0.375000 0.324135
vt 0.375000 0.324135
vt 0.375000 0.324135
vt 0.375000 0.324135
vt 0.375000 0.324135
vt 0.375000 0.324135
vt 0.375000 0.324135
vt 0.375000 0.324135
vt 0.375000 0.324135
vt 0.375000 0.324135
vt 0.375000 0.324135
vt 0.375000 0.324135
vt 0.375000 0.324135
vt 0.375000 0.324135
vt 0.375000 0.324135
vt 0.375000 0.324135
vt 0.375000 0.324135
vt 0.375000 0.324135
vt 0.375000 0.324135
vt 0.375000 0.324135
vt 0.375000 0.324135
vt 0.375000 0.324135
vt 0.375000 0.324135
vt 0.375000 0.324135
vt 0.375000 0.324135
vt 0.375000 0.324135
vt 0.375000 0.324135
vt 0.375000 0.324135
vt 0.375000 0.324135
vt 0.375000 0.324135
vt 0.375000 0.324135
vt 0.375000 0.324135
vt 0.375000 0.324135
vt 0.375000 0.324135
vt 0.375000 0.324135
vt 0.375000 0.324135
vt 0.375000 0.324135
vt 0.375000 0.324135
vt 0.375000 0.324135
vt 0.375000 0.324135
vt 0.375000 0.324135
vt 0.375000 0.324135
vt 0.375000 0.324135
vt 0.375000 0.324135
vt 0.375000 0.324135
vt 0.375000 0.324135
vt 0.375000 0.324135
vt 0.375000 0.324135
vt 0.375000 0.324135
vt 0.375000 0.324135
vt 0.375000 0.324135
vt 0.375000 0.324135
vt 0.375000 0.324135
vt 0.375000 0.324135
vt 0.375000 0.324135
vt 0.375000 0.324135
vt 0.375000 0.324135
vt 0.375000 0.324135
vt 0.375000 0.324135
vt 0.375000 0.324135
vt 0.375000 0.324135
vt 0.375000 0.324135
vt 0.375000 0.324135
vt 0.375000 0.324135
vt 0.375000 0.324135
vt 0.375000 0.324135
vt 0.375000 0.324135
vt 0.375000 0.324135
vt 0.375000 0.324135
vt 0.375000 0.324135
vt 0.375000 0.324135
vt 0.375000 0.324135
vt 0.375000 0.324135
vt 0.375000 0.324135
vt 0.375000 0.324135
vt 0.375000 0.324135
vt 0.375000 0.324135
vt 0.375000 0.324135
vt 0.375000 0.324135
vt 0.375000 0.324135
vt 0.375000 0.324135
vt 0.375000 0.324135
vt 0.375000 0.324135
vt 0.375000 0.324135
vt 0.375000 0.324135
vt 0.375000 0.324135
vt 0.375000 0.324135
vt 0.375000 0.324135
vt 0.375000 0.324135
vt 0.375000 0.324135
vt 0.375000 0.324135
vt 0.375000 0.324135
vt 0.375000 0.324135
vt 0.375000 0.324135
vt 0.375000 0.324135
vt 0.375000 0.324135
vt 0.375000 0.324135
vt 0.375000 0.324135
vt 0.375000 0.324135
vt 0.375000 0.324135
vt 0.375000 0.324135
vt 0.375000 0.324135
vn -0.5164 -0.0817 0.8524
vn -0.8065 -0.0507 0.5890
vn -0.5116 -0.0789 0.8556
vn -0.5124 -0.0279 0.8583
vn -0.8065 -0.0598 0.5881
vn -0.9693 -0.0431 0.2420
vn -0.8032 -0.0047 0.5957
vn -0.9689 0.0150 0.2470
vn -0.9693 -0.0332 0.2435
vn 0.2395 -0.1216 0.9632
vn -0.1453 -0.1140 0.9828
vn 0.2385 -0.1393 0.9611
vn 0.2426 -0.0695 0.9676
vn -0.1485 -0.1034 0.9835
vn -0.1454 -0.0507 0.9881
vn 0.8500 -0.1297 0.5105
vn 0.5903 -0.1296 0.7967
vn 0.5870 -0.1409 0.7972
vn 0.5937 -0.0811 0.8006
vn 0.8522 -0.1306 0.5067
vn 0.8553 -0.0841 0.5113
vn 0.9634 -0.1053 -0.2464
vn 0.9831 -0.1230 0.1359
vn 0.9837 -0.1174 0.1361
vn 0.9868 -0.0781 0.1421
vn 0.9627 -0.1103 -0.2471
vn 0.9675 -0.0636 -0.2446
vn 0.5345 -0.0388 -0.8443
vn 0.8071 -0.0862 -0.5841
vn 0.8120 -0.0816 -0.5779
vn 0.8073 -0.0392 -0.5889
vn 0.5239 -0.0528 -0.8501
vn 0.5226 -0.0039 -0.8526
vn -0.2472 -0.0028 -0.9690
vn 0.1518 0.0013 -0.9884
vn -0.2454 0.0215 -0.9692
vn -0.2450 0.0466 -0.9684
vn 0.1482 -0.0217 -0.9887
vn 0.1468 0.0262 -0.9888
vn -0.8744 0.0160 -0.4849
vn -0.6043 0.0046 -0.7968
vn -0.6043 0.0301 -0.7962
vn -0.5994 0.0568 -0.7984
vn -0.8708 -0.0040 -0.4916
vn -0.8655 0.0514 -0.4982
vn -0.9926 -0.0121 -0.1207
vn -0.9913 -0.0235 -0.1293
vn -0.9906 0.0335 -0.1327
vn -0.4882 -0.2894 0.8233
vn -0.7975 0.0287 0.6026
vn -0.7365 -0.3142 0.5990
vn -0.4953 0.0383 0.8679
vn -0.4970 0.0360 0.8670
vn -0.9668 0.0470 0.2512
vn -0.7986 0.0445 0.6002
vn -0.9656 0.0213 0.2592
vn -0.9042 -0.3196 0.2834
vn 0.2412 0.0470 0.9693
vn -0.1048 -0.3125 0.9441
vn 0.2230 -0.2801 0.9337
vn 0.2475 0.0138 0.9688
vn -0.1247 0.0462 0.9911
vn -0.1217 0.0239 0.9923
vn 0.8515 -0.0120 0.5242
vn 0.5700 -0.3315 0.7518
vn 0.8008 -0.3162 0.5087
vn 0.5805 -0.0093 0.8142
vn 0.8508 -0.0263 0.5248
vn 0.5849 0.0215 0.8108
vn 0.9096 -0.3392 -0.2400
vn 0.9883 -0.0365 0.1479
vn 0.9241 -0.3638 0.1173
vn 0.9692 -0.0468 -0.2419
vn 0.9687 -0.0518 -0.2430
vn 0.9884 -0.0406 0.1466
vn 0.4781 -0.3641 -0.7993
vn 0.8166 -0.0788 -0.5717
vn 0.7329 -0.3574 -0.5789
vn 0.5335 -0.0747 -0.8425
vn 0.5390 -0.1220 -0.8334
vn 0.8165 -0.0517 -0.5750
vn -0.2525 -0.1451 -0.9566
vn 0.1658 -0.3928 -0.9046
vn -0.2451 -0.4238 -0.8720
vn -0.2497 -0.0794 -0.9651
vn 0.1467 -0.1481 -0.9780
vn 0.1475 -0.0858 -0.9853
vn -0.8805 -0.0685 -0.4691
vn -0.5475 -0.3437 -0.7630
vn -0.7976 -0.3628 -0.4818
vn -0.6076 -0.0504 -0.7927
vn -0.8755 -0.0069 -0.4831
vn -0.6118 -0.1200 -0.7819
vn -0.9942 -0.0083 -0.1071
vn -0.9289 -0.3548 -0.1064
vn -0.9930 0.0368 -0.1121
vn -0.5011 -0.0202 0.8652
vn -0.8014 0.0042 0.5981
vn -0.9676 0.0209 0.2515
vn 0.2444 -0.1027 0.9642
vn -0.1296 -0.0644 0.9895
vn 0.5807 -0.0957 0.8085
vn 0.8512 -0.0818 0.5185
vn 0.9869 -0.0753 0.1429
vn 0.9682 -0.0645 -0.2417
vn 0.5420 -0.0102 -0.8403
vn 0.8186 -0.0435 -0.5727
vn -0.2453 0.0387 -0.9687
vn 0.1506 0.0196 -0.9884
vn -0.6014 0.0540 -0.7971
vn -0.8754 0.0520 -0.4805
vn -0.9930 0.0383 -0.1115
vn -0.5090 0.0239 0.8604
vn -0.7963 0.0649 0.6014
vn -0.5065 0.0379 0.8614
vn -0.9640 0.0875 0.2512
vn -0.7993 0.0499 0.5989
vn -0.9661 0.0720 0.2480
vn 0.2455 -0.0234 0.9691
vn -0.1413 0.0112 0.9899
vn 0.2464 -0.0104 0.9691
vn -0.1424 -0.0021 0.9898
vn 0.5966 -0.0367 0.8017
vn 0.8574 -0.0282 0.5139
vn 0.8577 -0.0400 0.5125
vn 0.5968 -0.0244 0.8020
vn 0.9890 -0.0339 0.1440
vn 0.9703 -0.0059 -0.2420
vn 0.9697 -0.0180 -0.2437
vn 0.9890 -0.0215 0.1463
vn 0.5202 0.0452 -0.8529
vn 0.5179 0.0571 -0.8535
vn 0.8057 0.0088 -0.5923
vn 0.8028 0.0197 -0.5960
vn -0.2416 0.1008 -0.9651
vn -0.2399 0.1169 -0.9637
vn 0.1480 0.0780 -0.9859
vn 0.1500 0.0934 -0.9843
vn -0.5934 0.1126 -0.7970
vn -0.5927 0.1291 -0.7950
vn -0.8583 0.1089 -0.5015
vn -0.8549 0.1237 -0.5038
vn -0.9843 0.1063 -0.1407
vn -0.9864 0.0924 -0.1358
vn -0.3905 -0.7418 -0.5452
vn -0.5259 -0.7692 -0.3630
vn 0.3389 -0.7544 -0.5622
vn 0.5327 -0.7675 0.3565
vn 0.6362 -0.7637 0.1095
vn 0.1120 -0.7807 -0.6148
vn -0.5262 -0.7280 0.4394
vn 0.6220 -0.7579 -0.1967
vn -0.6350 -0.7697 -0.0653
vn 0.3742 -0.7569 0.5358
vn 0.4953 -0.7551 -0.4295
vn -0.6332 -0.7381 0.2329
vn -0.3421 -0.7231 0.6001
vn -0.1858 -0.7905 -0.5835
vn -0.0767 -0.7422 0.6657
vn 0.1386 -0.7206 0.6794
vn 0.4187 -0.8963 -0.1463
vn -0.3209 -0.8573 -0.4025
vn -0.3891 -0.8734 -0.2928
vn 0.3422 -0.8801 -0.3291
vn 0.3508 -0.8915 0.2867
vn 0.4228 -0.9023 0.0844
vn 0.1105 -0.8697 -0.4811
vn -0.1577 -0.8685 -0.4699
vn -0.2431 -0.8678 0.4334
vn -0.3680 -0.8687 0.3316
vn -0.0875 -0.8705 0.4844
vn 0.2348 -0.8834 0.4056
vn -0.4416 -0.8747 0.1997
vn 0.2613 -0.8660 -0.4262
vn 0.0802 -0.8774 0.4730
vn -0.4574 -0.8883 -0.0418
usemtl colores.001
s 1
f 1/1/1 2/2/2 3/3/3
f 4/4/4 5/5/5 1/1/1
f 6/6/6 7/7/7 8/8/8
f 9/9/9 5/5/5 6/6/6
f 10/10/10 11/11/11 12/12/12
f 13/13/13 14/14/14 10/10/10
f 1/1/1 15/15/15 4/4/4
f 3/3/3 14/14/14 1/1/1
f 16/16/16 17/17/17 18/18/18
f 19/19/19 20/20/20 21/21/21
f 13/13/13 17/17/17 19/19/19
f 18/18/18 10/10/10 12/12/12
f 22/22/22 23/23/23 24/24/24
f 25/25/25 26/26/26 27/27/27
f 21/21/21 23/23/23 25/25/25
f 24/24/24 20/20/20 16/16/16
f 28/28/28 29/29/29 30/30/30
f 31/31/31 32/32/32 33/33/33
f 27/27/27 29/29/29 31/31/31
f 30/30/30 26/26/26 22/22/22
f 34/34/34 35/35/35 36/36/36
f 37/37/37 38/38/38 34/34/34
f 32/32/32 39/39/39 33/33/33
f 28/28/28 38/38/38 32/32/32
f 40/40/40 41/41/41 42/42/42
f 43/43/43 44/44/44 45/45/45
f 37/37/37 41/41/41 43/43/43
f 42/42/42 34/34/34 36/36/36
f 6/6/6 46/46/46 9/9/9
f 8/8/8 47/47/47 6/6/6
f 45/45/45 47/47/47 48/48/48
f 46/46/46 44/44/44 40/40/40
f 49/49/49 50/50/50 51/51/51
f 52/52/52 50/50/50 53/53/53
f 54/54/54 50/50/50 55/55/55
f 51/51/51 56/56/56 57/57/57
f 58/58/58 59/59/59 60/60/60
f 61/61/61 62/62/62 58/58/58
f 53/53/53 63/63/63 52/52/52
f 49/49/49 62/62/62 53/53/53
f 64/64/64 65/65/65 66/66/66
f 67/67/67 64/64/64 68/68/68
f 61/61/61 69/69/69 67/67/67
f 60/60/60 69/69/69 58/58/58
f 70/70/70 71/71/71 72/72/72
f 73/73/73 71/71/71 74/74/74
f 68/68/68 71/71/71 75/75/75
f 66/66/66 71/71/71 64/64/64
f 76/76/76 77/77/77 78/78/78
f 79/79/79 77/77/77 80/80/80
f 74/74/74 81/81/81 73/73/73
f 78/78/78 74/74/74 70/70/70
f 82/82/82 83/83/83 84/84/84
f 85/85/85 86/86/86 82/82/82
f 80/80/80 87/87/87 79/79/79
f 76/76/76 86/86/86 80/80/80
f 88/88/88 89/89/89 90/90/90
f 91/91/91 88/88/88 92/92/92
f 85/85/85 93/93/93 91/91/91
f 89/89/89 82/82/82 84/84/84
f 57/57/57 94/94/94 95/95/95
f 96/96/96 56/56/56 54/54/54
f 92/92/92 94/94/94 96/96/96
f 90/90/90 94/94/94 88/88/88
f 97/97/97 55/55/55 52/52/52
f 3/3/3 98/98/98 97/97/97
f 99/99/99 2/2/2 9/9/9
f 54/54/54 98/98/98 99/99/99
f 100/100/100 63/63/63 61/61/61
f 12/12/12 101/101/101 100/100/100
f 97/97/97 11/11/11 3/3/3
f 52/52/52 101/101/101 97/97/97
f 68/68/68 102/102/102 67/67/67
f 18/18/18 103/103/103 16/16/16
f 12/12/12 102/102/102 18/18/18
f 67/67/67 100/100/100 61/61/61
f 73/73/73 104/104/104 75/75/75
f 24/24/24 105/105/105 22/22/22
f 16/16/16 104/104/104 24/24/24
f 75/75/75 103/103/103 68/68/68
f 106/106/106 81/81/81 79/79/79
f 28/28/28 107/107/107 106/106/106
f 105/105/105 30/30/30 22/22/22
f 73/73/73 107/107/107 105/105/105
f 108/108/108 87/87/87 85/85/85
f 36/36/36 109/109/109 108/108/108
f 106/106/106 35/35/35 28/28/28
f 79/79/79 109/109/109 106/106/106
f 92/92/92 110/110/110 91/91/91
f 42/42/42 111/111/111 40/40/40
f 36/36/36 110/110/110 42/42/42
f 91/91/91 108/108/108 85/85/85
f 54/54/54 112/112/112 96/96/96
f 46/46/46 99/99/99 9/9/9
f 40/40/40 112/112/112 46/46/46
f 96/96/96 111/111/111 92/92/92
f 113/113/113 7/7/7 4/4/4
f 114/114/114 113/113/113 115/115/115
f 116/116/116 117/117/117 114/114/114
f 8/8/8 117/117/117 118/118/118
f 119/119/119 15/15/15 13/13/13
f 120/120/120 119/119/119 121/121/121
f 115/115/115 122/122/122 120/120/120
f 4/4/4 122/122/122 113/113/113
f 21/21/21 123/123/123 19/19/19
f 124/124/124 123/123/123 125/125/125
f 119/119/119 126/126/126 121/121/121
f 19/19/19 119/119/119 13/13/13
f 27/27/27 127/127/127 25/25/25
f 128/128/128 127/127/127 129/129/129
f 125/125/125 130/130/130 124/124/124
f 25/25/25 125/125/125 21/21/21
f 131/131/131 31/31/31 33/33/33
f 132/132/132 133/133/133 131/131/131
f 129/129/129 134/134/134 128/128/128
f 31/31/31 129/129/129 27/27/27
f 135/135/135 39/39/39 37/37/37
f 136/136/136 137/137/137 135/135/135
f 131/131/131 138/138/138 132/132/132
f 33/33/33 137/137/137 131/131/131
f 45/45/45 139/139/139 43/43/43
f 140/140/140 141/141/141 142/142/142
f 136/136/136 139/139/139 140/140/140
f 43/43/43 135/135/135 37/37/37
f 118/118/118 48/48/48 8/8/8
f 143/143/143 118/118/118 116/116/116
f 142/142/142 144/144/144 143/143/143
f 48/48/48 141/141/141 45/45/45
f 90/90/90 145/145/145 146/146/146
f 78/78/78 147/147/147 76/76/76
f 72/72/72 148/148/148 149/149/149
f 83/83/83 147/147/147 150/150/150
f 57/57/57 151/151/151 51/51/51
f 84/84/84 145/145/145 89/89/89
f 72/72/72 152/152/152 70/70/70
f 95/95/95 146/146/146 153/153/153
f 66/66/66 154/154/154 148/148/148
f 70/70/70 155/155/155 78/78/78
f 95/95/95 156/156/156 57/57/57
f 51/51/51 157/157/157 49/49/49
f 84/84/84 150/150/150 158/158/158
f 60/60/60 159/159/159 160/160/160
f 59/59/59 157/157/157 159/159/159
f 65/65/65 160/160/160 154/154/154
f 149/149/149 161/161/161 152/152/152
f 146/146/146 162/162/162 163/163/163
f 152/152/152 164/164/164 155/155/155
f 149/149/149 165/165/165 166/166/166
f 158/158/158 167/167/167 168/168/168
f 151/151/151 169/169/169 157/157/157
f 156/156/156 170/170/170 151/151/151
f 158/158/158 162/162/162 145/145/145
f 159/159/159 169/169/169 171/171/171
f 148/148/148 172/172/172 165/165/165
f 153/153/153 173/173/173 156/156/156
f 155/155/155 174/174/174 147/147/147
f 160/160/160 171/171/171 175/175/175
f 150/150/150 174/174/174 167/167/167
f 154/154/154 175/175/175 172/172/172
f 153/153/153 163/163/163 176/176/176
f 1/1/1 5/5/5 2/2/2
f 4/4/4 7/7/7 5/5/5
f 6/6/6 5/5/5 7/7/7
f 9/9/9 2/2/2 5/5/5
f 10/10/10 14/14/14 11/11/11
f 13/13/13 15/15/15 14/14/14
f 1/1/1 14/14/14 15/15/15
f 3/3/3 11/11/11 14/14/14
f 16/16/16 20/20/20 17/17/17
f 19/19/19 17/17/17 20/20/20
f 13/13/13 10/10/10 17/17/17
f 18/18/18 17/17/17 10/10/10
f 22/22/22 26/26/26 23/23/23
f 25/25/25 23/23/23 26/26/26
f 21/21/21 20/20/20 23/23/23
f 24/24/24 23/23/23 20/20/20
f 28/28/28 32/32/32 29/29/29
f 31/31/31 29/29/29 32/32/32
f 27/27/27 26/26/26 29/29/29
f 30/30/30 29/29/29 26/26/26
f 34/34/34 38/38/38 35/35/35
f 37/37/37 39/39/39 38/38/38
f 32/32/32 38/38/38 39/39/39
f 28/28/28 35/35/35 38/38/38
f 40/40/40 44/44/44 41/41/41
f 43/43/43 41/41/41 44/44/44
f 37/37/37 34/34/34 41/41/41
f 42/42/42 41/41/41 34/34/34
f 6/6/6 47/47/47 46/46/46
f 8/8/8 48/48/48 47/47/47
f 45/45/45 44/44/44 47/47/47
f 46/46/46 47/47/47 44/44/44
f 49/49/49 53/53/53 50/50/50
f 52/52/52 55/55/55 50/50/50
f 54/54/54 56/56/56 50/50/50
f 51/51/51 50/50/50 56/56/56
f 58/58/58 62/62/62 59/59/59
f 61/61/61 63/63/63 62/62/62
f 53/53/53 62/62/62 63/63/63
f 49/49/49 59/59/59 62/62/62
f 64/64/64 69/69/69 65/65/65
f 67/67/67 69/69/69 64/64/64
f 61/61/61 58/58/58 69/69/69
f 60/60/60 65/65/65 69/69/69
f 70/70/70 74/74/74 71/71/71
f 73/73/73 75/75/75 71/71/71
f 68/68/68 64/64/64 71/71/71
f 66/66/66 72/72/72 71/71/71
f 76/76/76 80/80/80 77/77/77
f 79/79/79 81/81/81 77/77/77
f 74/74/74 77/77/77 81/81/81
f 78/78/78 77/77/77 74/74/74
f 82/82/82 86/86/86 83/83/83
f 85/85/85 87/87/87 86/86/86
f 80/80/80 86/86/86 87/87/87
f 76/76/76 83/83/83 86/86/86
f 88/88/88 93/93/93 89/89/89
f 91/91/91 93/93/93 88/88/88
f 85/85/85 82/82/82 93/93/93
f 89/89/89 93/93/93 82/82/82
f 57/57/57 56/56/56 94/94/94
f 96/96/96 94/94/94 56/56/56
f 92/92/92 88/88/88 94/94/94
f 90/90/90 95/95/95 94/94/94
f 97/97/97 98/98/98 55/55/55
f 3/3/3 2/2/2 98/98/98
f 99/99/99 98/98/98 2/2/2
f 54/54/54 55/55/55 98/98/98
f 100/100/100 101/101/101 63/63/63
f 12/12/12 11/11/11 101/101/101
f 97/97/97 101/101/101 11/11/11
f 52/52/52 63/63/63 101/101/101
f 68/68/68 103/103/103 102/102/102
f 18/18/18 102/102/102 103/103/103
f 12/12/12 100/100/100 102/102/102
f 67/67/67 102/102/102 100/100/100
f 73/73/73 105/105/105 104/104/104
f 24/24/24 104/104/104 105/105/105
f 16/16/16 103/103/103 104/104/104
f 75/75/75 104/104/104 103/103/103
f 106/106/106 107/107/107 81/81/81
f 28/28/28 30/30/30 107/107/107
f 105/105/105 107/107/107 30/30/30
f 73/73/73 81/81/81 107/107/107
f 108/108/108 109/109/109 87/87/87
f 36/36/36 35/35/35 109/109/109
f 106/106/106 109/109/109 35/35/35
f 79/79/79 87/87/87 109/109/109
f 92/92/92 111/111/111 110/110/110
f 42/42/42 110/110/110 111/111/111
f 36/36/36 108/108/108 110/110/110
f 91/91/91 110/110/110 108/108/108
f 54/54/54 99/99/99 112/112/112
f 46/46/46 112/112/112 99/99/99
f 40/40/40 111/111/111 112/112/112
f 96/96/96 112/112/112 111/111/111
f 113/113/113 117/117/117 7/7/7
f 114/114/114 117/117/117 113/113/113
f 116/116/116 118/118/118 117/117/117
f 8/8/8 7/7/7 117/117/117
f 119/119/119 122/122/122 15/15/15
f 120/120/120 122/122/122 119/119/119
f 115/115/115 113/113/113 122/122/122
f 4/4/4 15/15/15 122/122/122
f 21/21/21 125/125/125 123/123/123
f 124/124/124 126/126/126 123/123/123
f 119/119/119 123/123/123 126/126/126
f 19/19/19 123/123/123 119/119/119
f 27/27/27 129/129/129 127/127/127
f 128/128/128 130/130/130 127/127/127
f 125/125/125 127/127/127 130/130/130
f 25/25/25 127/127/127 125/125/125
f 131/131/131 133/133/133 31/31/31
f 132/132/132 134/134/134 133/133/133
f 129/129/129 133/133/133 134/134/134
f 31/31/31 133/133/133 129/129/129
f 135/135/135 137/137/137 39/39/39
f 136/136/136 138/138/138 137/137/137
f 131/131/131 137/137/137 138/138/138
f 33/33/33 39/39/39 137/137/137
f 45/45/45 141/141/141 139/139/139
f 140/140/140 139/139/139 141/141/141
f 136/136/136 135/135/135 139/139/139
f 43/43/43 139/139/139 135/135/135
f 118/118/118 144/144/144 48/48/48
f 143/143/143 144/144/144 118/118/118
f 142/142/142 141/141/141 144/144/144
f 48/48/48 144/144/144 141/141/141
f 90/90/90 89/89/89 145/145/145
f 78/78/78 155/155/155 147/147/147
f 72/72/72 66/66/66 148/148/148
f 83/83/83 76/76/76 147/147/147
f 57/57/57 156/156/156 151/151/151
f 84/84/84 158/158/158 145/145/145
f 72/72/72 149/149/149 152/152/152
f 95/95/95 90/90/90 146/146/146
f 66/66/66 65/65/65 154/154/154
f 70/70/70 152/152/152 155/155/155
f 95/95/95 153/153/153 156/156/156
f 51/51/51 151/151/151 157/157/157
f 84/84/84 83/83/83 150/150/150
f 60/60/60 59/59/59 159/159/159
f 59/59/59 49/49/49 157/157/157
f 65/65/65 60/60/60 160/160/160
f 149/149/149 166/166/166 161/161/161
f 146/146/146 145/145/145 162/162/162
f 152/152/152 161/161/161 164/164/164
f 149/149/149 148/148/148 165/165/165
f 158/158/158 150/150/150 167/167/167
f 151/151/151 170/170/170 169/169/169
f 156/156/156 173/173/173 170/170/170
f 158/158/158 168/168/168 162/162/162
f 159/159/159 157/157/157 169/169/169
f 148/148/148 154/154/154 172/172/172
f 153/153/153 176/176/176 173/173/173
f 155/155/155 164/164/164 174/174/174
f 160/160/160 159/159/159 171/171/171
f 150/150/150 147/147/147 174/174/174
f 154/154/154 160/160/160 175/175/175
f 153/153/153 146/146/146 163/163/163
